<svg xmlns="http://www.w3.org/2000/svg" viewBox="0 0 69.97 18.23">
  <defs>
    <style>
      .cls-1 {
        fill: #ffffff;
      }
    </style>
  </defs>
  <title>アセット 1512px</title>
  <g id="レイヤー_2" data-name="レイヤー 2">
    <g id="レイヤー_1-2" data-name="レイヤー 1"><path class="cls-1" d="M35.23,18.23h-.71a1,1,0,0,1,0-2h.65a1,1,0,0,1,1,1A1,1,0,0,1,35.23,18.23Z"/><path class="cls-1" d="M42.19,17.67a1,1,0,0,1-.15-2l.67-.11a1,1,0,0,1,.35,1.95l-.71.12Z"/><path class="cls-1" d="M27.58,17.57h-.17l-.71-.13a1,1,0,0,1,.37-1.95l.68.12a1,1,0,0,1-.17,2Z"/><path class="cls-1" d="M49.65,15.8a1,1,0,0,1-.33-1.93l.65-.23a1,1,0,0,1,.68,1.87l-.67.24A1.26,1.26,0,0,1,49.65,15.8Z"/><path class="cls-1" d="M20.15,15.6a1,1,0,0,1-.34-.06l-.67-.25a1,1,0,0,1,.71-1.86c.21.09.42.17.64.24a1,1,0,0,1,.59,1.27A1,1,0,0,1,20.15,15.6Z"/><path class="cls-1" d="M56.66,12.66a1,1,0,0,1-.87-.51,1,1,0,0,1,.38-1.35c.2-.11.4-.22.59-.34a1,1,0,1,1,1,1.72l-.62.35A.94.94,0,0,1,56.66,12.66Z"/><path class="cls-1" d="M13.18,12.35a1,1,0,0,1-.5-.13l-.61-.36a1,1,0,1,1,1-1.71l.59.35a1,1,0,0,1-.49,1.85Z"/><path class="cls-1" d="M63,8.34A1,1,0,0,1,62.24,8a1,1,0,0,1,.14-1.4l.53-.43a1,1,0,1,1,1.28,1.52l-.55.45A1,1,0,0,1,63,8.34Z"/><path class="cls-1" d="M6.88,8a1,1,0,0,1-.64-.23L5.7,7.25A1,1,0,1,1,7,5.75l.52.45A1,1,0,0,1,6.88,8Z"/><path class="cls-1" d="M68.53,3a1,1,0,0,1-.65-.24,1,1,0,0,1-.1-1.4l.44-.52a1,1,0,0,1,1.52,1.28l-.46.54A1,1,0,0,1,68.53,3Z"/><path class="cls-1" d="M1.44,2.52a1,1,0,0,1-.76-.35C.53,2,.38,1.8.22,1.62A1,1,0,0,1,.36.22a1,1,0,0,1,1.4.14c.14.18.29.36.44.53a1,1,0,0,1-.12,1.4A1,1,0,0,1,1.44,2.52Z"/></g>
  </g>
</svg>