<svg xmlns="http://www.w3.org/2000/svg" viewBox="0 0 217.09 162.05"><defs><style>.cls-1{fill:#0dac67;}.cls-2{fill:#f7f7f7;}.cls-3{fill:#dbdcdc;}.cls-4{fill:#b4b4b5;}.cls-5{fill:#91c7dc;}.cls-6{fill:#5ab1d4;}.cls-7{fill:#2ca6e0;}.cls-8{fill:#8acbe5;}.cls-9{fill:#63bad9;}.cls-10{fill:#e98736;}.cls-11{fill:#d44516;}.cls-12{fill:#eb6638;}.cls-13{fill:#7db4c5;}.cls-14{fill:#42b379;}.cls-15{fill:#7cc49b;}.cls-16{fill:#9e9e9f;}</style></defs><title>アセット 3512px</title><g id="レイヤー_2" data-name="レイヤー 2"><g id="レイヤー_1-2" data-name="レイヤー 1"><ellipse class="cls-1" cx="37.09" cy="137.02" rx="37.09" ry="24.06"/><path class="cls-1" d="M141.52,42.87c0,13.29-16.6,24.06-37.09,24.06S67.34,56.16,67.34,42.87,84,18.81,104.43,18.81,141.52,29.59,141.52,42.87Z"/><path class="cls-1" d="M217.09,137.61c.15,13.29-16.34,24.23-36.81,24.43s-37.21-10.39-37.37-23.68,16.34-24.22,36.82-24.43S216.94,124.33,217.09,137.61Z"/><polygon class="cls-2" points="81.84 45.28 107.32 54.55 123.8 44.28 98.33 35.02 81.84 45.28"/><polygon class="cls-3" points="106.98 17.56 83.76 9.15 83.76 45.01 106.98 53.41 106.98 17.56"/><polygon class="cls-3" points="107.32 54.55 81.84 45.28 81.84 46.97 107.32 56.24 107.32 54.55"/><polygon class="cls-4" points="106.98 53.41 106.98 17.61 121.7 8.44 121.7 44.24 106.98 53.41"/><polygon class="cls-4" points="107.32 56.24 107.32 54.55 123.8 44.28 123.8 45.98 107.32 56.24"/><polygon class="cls-5" points="86.96 14.92 86.96 18.47 89.33 19.34 89.33 15.78 86.96 14.92"/><polygon class="cls-5" points="101.17 20.1 101.17 23.64 103.53 24.5 103.53 20.96 101.17 20.1"/><polygon class="cls-5" points="86.96 22 86.96 25.55 89.33 26.41 89.33 22.86 86.96 22"/><polygon class="cls-5" points="101.17 27.18 101.17 30.71 103.53 31.58 103.53 28.04 101.17 27.18"/><polygon class="cls-5" points="86.96 29.09 86.96 32.63 89.33 33.49 89.33 29.95 86.96 29.09"/><polygon class="cls-5" points="101.17 34.26 101.17 37.81 103.53 38.67 103.53 35.12 101.17 34.26"/><polygon class="cls-5" points="86.96 36.17 86.96 39.71 89.33 40.56 89.33 37.03 86.96 36.17"/><polygon class="cls-5" points="91.69 16.64 91.69 20.2 94.06 21.06 94.06 17.5 91.69 16.64"/><polygon class="cls-5" points="91.69 23.72 91.69 27.27 94.06 28.13 94.06 24.58 91.69 23.72"/><polygon class="cls-5" points="91.69 30.81 91.69 34.35 94.06 35.21 94.06 31.67 91.69 30.81"/><polygon class="cls-5" points="91.69 37.89 91.69 41.43 94.06 42.3 94.06 38.75 91.69 37.89"/><polygon class="cls-5" points="96.43 18.36 96.43 21.92 98.8 22.78 98.8 19.22 96.43 18.36"/><polygon class="cls-5" points="96.43 25.45 96.43 28.99 98.8 29.86 98.8 26.32 96.43 25.45"/><polygon class="cls-5" points="96.43 32.53 96.43 36.07 98.8 36.95 98.8 33.39 96.43 32.53"/><polygon class="cls-5" points="96.43 39.61 96.43 43.16 98.8 44.02 98.8 40.47 96.43 39.61"/><polygon class="cls-4" points="92.8 43.67 92.8 48.16 95.17 49.02 95.17 44.53 92.8 43.67"/><polygon class="cls-5" points="101.17 41.33 101.17 44.88 103.53 45.75 103.53 42.19 101.17 41.33"/><polygon class="cls-5" points="109.74 20.73 109.74 24.05 111.63 22.87 111.63 19.55 109.74 20.73"/><polygon class="cls-5" points="113.51 18.39 113.51 21.71 115.4 20.54 115.4 17.22 113.51 18.39"/><polygon class="cls-5" points="117.28 16.04 117.28 19.36 119.17 18.19 119.17 14.87 117.28 16.04"/><polygon class="cls-5" points="109.74 27.67 109.74 30.99 111.63 29.82 111.63 26.49 109.74 27.67"/><polygon class="cls-5" points="113.51 25.32 113.51 28.64 115.4 27.46 115.4 24.16 113.51 25.32"/><polygon class="cls-5" points="117.28 22.98 117.28 26.3 119.17 25.13 119.17 21.81 117.28 22.98"/><polygon class="cls-5" points="109.74 34.61 109.74 37.93 111.63 36.76 111.63 33.43 109.74 34.61"/><polygon class="cls-5" points="113.51 32.26 113.51 35.58 115.4 34.4 115.4 31.08 113.51 32.26"/><polygon class="cls-5" points="117.28 29.92 117.28 33.23 119.17 32.07 119.17 28.75 117.28 29.92"/><polygon class="cls-5" points="109.74 41.55 109.74 44.87 111.63 43.7 111.63 40.37 109.74 41.55"/><polygon class="cls-5" points="113.51 39.2 113.51 42.52 115.4 41.35 115.4 38.02 113.51 39.2"/><polygon class="cls-5" points="117.28 36.85 117.28 40.17 119.17 39.01 119.17 35.69 117.28 36.85"/><polygon class="cls-2" points="83.76 9.15 106.91 17.64 121.7 8.44 98.47 0 83.76 9.15"/><polygon class="cls-2" points="87.28 8.8 98.66 1.71 118.17 8.81 106.74 15.91 87.28 8.8"/><polyline class="cls-4" points="116.4 9.91 118.17 8.81 98.66 1.71 87.28 8.8 89.05 9.44 98.66 3.46"/><polygon class="cls-6" points="106.91 11.91 83.69 3.51 83.69 9.25 106.91 17.64 106.91 11.91"/><polygon class="cls-7" points="106.91 11.91 109.95 10.41 109.95 16.15 106.91 17.64 106.91 11.91"/><polygon class="cls-8" points="109.95 10.41 86.72 2.02 83.69 3.51 106.91 11.91 109.95 10.41"/><polygon class="cls-2" points="158.53 139.8 179.28 147.34 195.76 137.08 175.02 129.52 158.53 139.8"/><polygon class="cls-3" points="178.94 102.75 160.45 96.03 160.45 139.52 178.94 146.24 178.94 102.75"/><polygon class="cls-3" points="179.28 147.34 158.53 139.8 158.53 141.48 179.28 149.03 179.28 147.34"/><polygon class="cls-4" points="178.94 146.19 178.94 102.75 193.66 93.6 193.66 137.04 178.94 146.19"/><polygon class="cls-4" points="179.28 149.03 179.28 147.34 195.76 137.08 195.76 138.76 179.28 149.03"/><polygon class="cls-9" points="163.65 109.44 163.65 112.99 166.02 113.84 166.02 110.3 163.65 109.44"/><polygon class="cls-9" points="168.39 111.16 168.39 114.71 170.75 115.57 170.75 112.02 168.39 111.16"/><polygon class="cls-9" points="173.12 112.88 173.12 116.43 175.5 117.29 175.5 113.74 173.12 112.88"/><polygon class="cls-9" points="163.65 116.51 163.65 120.06 166.02 120.92 166.02 117.37 163.65 116.51"/><polygon class="cls-9" points="168.39 118.23 168.39 121.78 170.75 122.65 170.75 119.09 168.39 118.23"/><polygon class="cls-9" points="173.12 119.95 173.12 123.51 175.5 124.37 175.5 120.82 173.12 119.95"/><polygon class="cls-9" points="163.65 123.59 163.65 127.14 166.02 128 166.02 124.45 163.65 123.59"/><polygon class="cls-9" points="168.39 125.31 168.39 128.86 170.75 129.72 170.75 126.17 168.39 125.31"/><polygon class="cls-9" points="173.12 127.03 173.12 130.59 175.5 131.45 175.5 127.89 173.12 127.03"/><polygon class="cls-9" points="163.65 130.67 163.65 134.22 166.02 135.08 166.02 131.53 163.65 130.67"/><polygon class="cls-9" points="168.39 132.39 168.39 135.94 170.75 136.8 170.75 133.25 168.39 132.39"/><polygon class="cls-4" points="168.39 137.65 168.39 142.15 170.75 143.01 170.75 138.51 168.39 137.65"/><polygon class="cls-9" points="173.12 134.13 173.12 137.66 175.5 138.53 175.5 134.99 173.12 134.13"/><polygon class="cls-9" points="181.7 113.52 181.7 116.84 183.58 115.66 183.58 112.34 181.7 113.52"/><polygon class="cls-9" points="185.47 111.17 185.47 114.49 187.35 113.31 187.35 110 185.47 111.17"/><polygon class="cls-9" points="189.24 108.82 189.24 112.14 191.12 110.96 191.12 107.65 189.24 108.82"/><polygon class="cls-9" points="181.7 120.46 181.7 123.78 183.58 122.6 183.58 119.29 181.7 120.46"/><polygon class="cls-9" points="185.47 118.11 185.47 121.43 187.35 120.25 187.35 116.94 185.47 118.11"/><polygon class="cls-9" points="189.24 115.76 189.24 119.08 191.12 117.91 191.12 114.59 189.24 115.76"/><polygon class="cls-9" points="181.7 127.41 181.7 130.72 183.58 129.54 183.58 126.23 181.7 127.41"/><polygon class="cls-9" points="185.47 125.06 185.47 128.37 187.35 127.2 187.35 123.88 185.47 125.06"/><polygon class="cls-9" points="189.24 122.7 189.24 126.02 191.12 124.85 191.12 121.53 189.24 122.7"/><polygon class="cls-9" points="181.7 134.35 181.7 137.65 183.58 136.49 183.58 133.17 181.7 134.35"/><polygon class="cls-9" points="185.47 132 185.47 135.31 187.35 134.14 187.35 130.82 185.47 132"/><polygon class="cls-9" points="189.24 129.64 189.24 132.97 191.12 131.79 191.12 128.47 189.24 129.64"/><polygon class="cls-10" points="160.45 96.03 178.87 102.8 193.66 93.6 175.17 86.86 160.45 96.03"/><polygon class="cls-10" points="163.97 95.66 175.35 88.59 190.12 93.97 178.7 101.08 163.97 95.66"/><polygon class="cls-11" points="175.36 90.33 188.35 95.06 190.12 93.97 175.35 88.59 163.97 95.66 165.74 96.32 175.36 90.33"/><polygon class="cls-12" points="178.94 102.75 160.45 96.03 160.45 104.87 178.94 111.59 178.94 102.75"/><polygon class="cls-11" points="178.94 111.59 178.94 102.75 193.66 93.6 193.66 102.43 178.94 111.59"/><polygon class="cls-2" points="12.07 134.06 36.19 142.83 55.36 130.9 31.25 122.13 12.07 134.06"/><polygon class="cls-2" points="14.3 100.61 35.8 139.61 52.91 97.77 31.42 89.95 14.3 100.61"/><polygon class="cls-3" points="35.8 108.43 14.3 100.61 14.3 133.74 35.8 141.57 35.8 108.43"/><polygon class="cls-3" points="36.19 142.83 12.07 134.06 12.07 136.03 36.19 144.8 36.19 142.83"/><polygon class="cls-4" points="35.8 141.5 35.8 108.43 52.91 97.77 52.91 130.85 35.8 141.5"/><polygon class="cls-4" points="36.19 144.8 36.19 142.83 55.36 130.9 55.36 132.87 36.19 144.8"/><polygon class="cls-5" points="31.89 112.09 17.73 106.93 17.73 110.47 31.89 115.63 31.89 112.09"/><polygon class="cls-13" points="18.66 108.19 31.89 113 31.89 112.09 17.73 106.93 17.73 110.47 18.66 110.81 18.66 108.19"/><polygon class="cls-5" points="31.89 119.2 17.73 114.05 17.73 117.58 31.89 122.73 31.89 119.2"/><polygon class="cls-13" points="18.66 115.3 31.89 120.11 31.89 119.2 17.73 114.05 17.73 117.58 18.66 117.92 18.66 115.3"/><polygon class="cls-5" points="31.89 126.31 17.73 121.16 17.73 124.7 31.89 129.85 31.89 126.31"/><polygon class="cls-13" points="18.66 122.4 31.89 127.21 31.89 126.31 17.73 121.16 17.73 124.7 18.66 125.04 18.66 122.4"/><polygon class="cls-5" points="31.89 133.41 17.73 128.27 17.73 131.81 31.89 136.95 31.89 133.41"/><polygon class="cls-13" points="18.66 129.52 31.89 134.33 31.89 133.41 17.73 128.27 17.73 131.81 18.66 132.15 18.66 129.52"/><polygon class="cls-2" points="22.92 94.75 34.94 103.39 44.52 93.16 32.49 88.79 22.92 94.75"/><polygon class="cls-3" points="34.94 99.12 22.92 94.75 22.92 100.12 34.94 104.49 34.94 99.12"/><polygon class="cls-4" points="34.94 104.46 34.94 99.12 44.52 93.16 44.52 98.49 34.94 104.46"/><polygon class="cls-2" points="26.83 90.91 34.5 96.43 40.61 89.91 32.94 87.11 26.83 90.91"/><polygon class="cls-3" points="34.5 93.71 26.83 90.91 26.83 94.34 34.5 97.12 34.5 93.71"/><polygon class="cls-4" points="34.5 97.1 34.5 93.71 40.61 89.91 40.61 93.3 34.5 97.1"/><polygon class="cls-2" points="38.69 141.5 52.86 146.66 64.11 139.64 49.94 134.5 38.69 141.5"/><polygon class="cls-2" points="40.01 121.86 52.62 144.77 62.67 120.2 50.05 115.61 40.01 121.86"/><polygon class="cls-3" points="52.62 126.45 40.01 121.86 40.01 141.33 52.62 145.91 52.62 126.45"/><polygon class="cls-3" points="52.86 146.66 38.69 141.5 38.69 142.67 52.86 147.82 52.86 146.66"/><polygon class="cls-4" points="52.62 145.88 52.62 126.45 62.67 120.2 62.67 139.62 52.62 145.88"/><polygon class="cls-4" points="52.86 147.82 52.86 146.66 64.11 139.64 64.11 140.81 52.86 147.82"/><polygon class="cls-5" points="50.33 128.61 42.01 125.59 42.01 127.66 50.33 130.68 50.33 128.61"/><polygon class="cls-13" points="42.56 126.31 50.33 129.14 50.33 128.61 42.01 125.59 42.01 127.66 42.56 127.85 42.56 126.31"/><polygon class="cls-5" points="50.33 132.78 42.01 129.75 42.01 131.83 50.33 134.87 50.33 132.78"/><polygon class="cls-13" points="42.56 130.49 50.33 133.32 50.33 132.78 42.01 129.75 42.01 131.83 42.56 132.03 42.56 130.49"/><polygon class="cls-5" points="50.33 136.95 42.01 133.93 42.01 136.01 50.33 139.03 50.33 136.95"/><polygon class="cls-13" points="42.56 134.66 50.33 137.49 50.33 136.95 42.01 133.93 42.01 136.01 42.56 136.21 42.56 134.66"/><polygon class="cls-5" points="50.33 141.14 42.01 138.1 42.01 140.18 50.33 143.21 50.33 141.14"/><polygon class="cls-13" points="42.56 138.84 50.33 141.67 50.33 141.14 42.01 138.1 42.01 140.18 42.56 140.38 42.56 138.84"/><polygon class="cls-14" points="13.38 110.16 11.26 109.38 11.26 122.7 13.38 123.47 13.38 110.16"/><polygon class="cls-1" points="13.38 123.47 13.38 110.16 16.65 108.11 16.65 121.43 13.38 123.47"/><polygon class="cls-15" points="11.26 109.38 13.37 110.16 16.65 108.11 14.54 107.35 13.74 107.84 11.26 109.38"/><polygon class="cls-16" points="115.68 130.36 114.52 131.79 118.7 135.17 92.32 135.31 96.46 131.88 95.29 130.46 89.42 135.32 88.62 135.32 88.62 135.98 88.31 136.24 88.62 136.5 88.63 137.16 89.43 137.15 95.35 141.95 96.51 140.52 92.33 137.14 118.7 137 114.57 140.43 115.74 141.85 122.72 136.07 115.68 130.36"/><polygon class="cls-16" points="85.2 82.05 87.01 81.75 85.55 72.8 77.07 76.01 77.72 77.72 82.74 75.83 69.56 98.67 68.69 93.36 66.88 93.66 68.11 101.18 67.7 101.88 68.27 102.21 68.34 102.61 68.72 102.47 69.29 102.8 69.7 102.09 76.82 99.4 76.17 97.69 71.15 99.58 84.33 76.75 85.2 82.05"/><polygon class="cls-16" points="125.83 82.05 124.02 81.75 125.48 72.8 133.96 76.01 133.31 77.72 128.29 75.83 141.47 98.67 142.34 93.36 144.15 93.66 142.92 101.18 143.33 101.88 142.76 102.21 142.69 102.61 142.31 102.47 141.74 102.8 141.33 102.09 134.21 99.4 134.86 97.69 139.88 99.58 126.69 76.75 125.83 82.05"/></g></g></svg>