<svg xmlns="http://www.w3.org/2000/svg" viewBox="0 0 77.16 58.87"><title>アセット 10512px</title><g id="レイヤー_2" data-name="レイヤー 2"><g id="レイヤー_1-2" data-name="レイヤー 1"><path d="M24.94,32.84c-.28.6-.54,1.17-.81,1.73a3,3,0,0,1-.21.4s-.07.08-.08.07c-.2-.12-.44,0-.65-.17a2.9,2.9,0,0,0-.82-.35,1.87,1.87,0,0,1-.35-.16c-.25-.19-.38-.21-.18-.62a3.07,3.07,0,0,1,.85-1.2,1.39,1.39,0,0,0,.31-.42,2.57,2.57,0,0,0-.61.4A20.75,20.75,0,0,0,21,34.12c-.53.68-1.05,1.37-1.53,2.09a8.35,8.35,0,0,0-.61,1.28,2.05,2.05,0,0,1-1.33,1.4.74.74,0,0,1-.79-.44,6.38,6.38,0,0,1-.59-2.72c0-.48,0-1,0-1.44s.05-1,.08-1.47c0-.19.14-.39-.09-.53,0,0,0-.14.05-.2.14-.24.29-.47.44-.71l.66-1.08a.23.23,0,0,0,0-.12c0-.7-.08-1.39-.12-2.17a3,3,0,0,0-.43.32c-.28.35-.54.72-.82,1.07s-.4.42-.57.66-.39.6-.58.9l-.71,1.17a10.42,10.42,0,0,0-.67,1.1,15.4,15.4,0,0,0-.57,1.47,6.86,6.86,0,0,0-.24.77c-.05.26-.05.53-.09.79s-.07.33-.1.49c-.12.6-.24,1.19-.34,1.79-.06.36-.09.73-.12,1.09a2.71,2.71,0,0,1-.09.87c-.17.32-.07.66-.19,1a1.23,1.23,0,0,0,0,.34c-.06.46-.13.93-.19,1.4s-.15,1.15-.26,1.73a12,12,0,0,1-.34,1.31c-.07.23-.2.45-.28.68a.29.29,0,0,0,0,.24c.4.5.81,1,1.24,1.5s.78.81,1.14,1.24.47.67.71,1,.39.45.57.68.44.6.67.9.51.65.78,1,.46.53.69.78a1.25,1.25,0,0,1-.64.58l-1,.49a2.38,2.38,0,0,0-.33.25c.09.1.19.21.31.32a.25.25,0,0,1,0,.36c-.35.36-.7.72-1,1.1s-.48.67-.73,1-.36.36-.51.56-.21.36-.33.53c-.28.39-.57.76-.86,1.14-.14.19-.22.18-.48-.05l.75-1c.37-.51.74-1,1.13-1.53l1.55-2-1.57-1.66c-.35-.37-.71-.75-1-1.14-.19-.23-.33-.51-.52-.75s-.52-.6-.77-.91-.58-.76-.88-1.13S8.79,49.47,8.4,49c-.05-.06-.18-.05-.26-.1s-.25-.23-.34-.21a2.3,2.3,0,0,0-.58.26s-.09.08-.15.11L5,50.25c-.24.14-.46.32-.71.45a.45.45,0,0,1-.36,0c-.1-.06.06-.39.22-.47A3.35,3.35,0,0,0,4.65,50c.4-.25.78-.53,1.19-.77s.67-.32,1-.49.49-.24.72-.38a1.19,1.19,0,0,0,.33-.26c.21-.21.35-.09.48.12l1.1-1c.18-.16.33-.4.53-.49.55-.23.48-.75.61-1.16a6.48,6.48,0,0,0,.22-1c.11-.66.2-1.33.29-2s.21-1.28.3-1.91c.06-.45.08-.9.13-1.35,0-.18.06-.36.1-.55.11-.49.22-1,.31-1.49,0-.22,0-.44.06-.66a7.55,7.55,0,0,1,.38-1.89c.25-.56.48-1.13.71-1.69a9.23,9.23,0,0,1,1.08-1.85c.27-.39.49-.82.76-1.2s.46-.56.68-.84.47-.64.72-.95a2.14,2.14,0,0,1,.44-.41,1.22,1.22,0,0,1,.44-.07c0-.57-.09-1.2-.12-1.82,0-.29,0-.59,0-.88,0-.63-.1-1.26-.16-1.88s-.12-1-.17-1.48c0-.14,0-.3,0-.45s-.11-.32-.13-.49c-.1-.58-.17-1.17-.26-1.75s-.25-1.2-.3-1.8,0-1.26,0-1.89c0-.28-.05-.56-.06-.84s0-.4,0-.6,0-.41-.07-.61c-.07-.6-.15-1.19-.21-1.79,0-.34,0-.69-.07-1,0-.11-.1-.21-.1-.32,0-.5,0-1,0-1.5a.23.23,0,0,1,0-.14c.41-.39.6-1,1.26-1.14a2.24,2.24,0,0,0,.55-.29L17.63,7c.39-.09.78-.15,1.16-.25a17.73,17.73,0,0,1,2.38-.52c.75-.09,1.49-.21,2.24-.29s1.53-.14,2.3-.2a4.87,4.87,0,0,1,1.26,0,12,12,0,0,0,1.58,0l2.29.15,2.49.18,1.77.14c.38,0,.78,0,1.16.08s1,.25,1.46.32a3.18,3.18,0,0,1,1.08.43,6.39,6.39,0,0,0,1,.41c.1,0,.25-.09.37-.15L41,7c.66-.33,1.33-.64,2-1A16,16,0,0,1,45.2,4.92c.51-.18,1-.49,1.48-.71.32-.14.65-.24,1-.35s.92-.31,1.39-.45,1-.24,1.43-.36,1-.27,1.5-.38,1.08-.21,1.63-.31c.37-.07.74-.12,1.12-.17.18,0,.36,0,.54,0l2.56-.25c.48,0,1-.07,1.45-.07.74,0,1.48,0,2.21,0s1.63.08,2.44.15a4.62,4.62,0,0,1,.71.18l.31.07c.06.43.15.87.17,1.32s0,1.12,0,1.68c0,.36,0,.72,0,1.08V7.44c0,.48,0,1,0,1.46l.12,2.46c0,.14.08.28.08.41,0,.65,0,1.3,0,2s0,1.28,0,1.91c0,.19-.06.38-.06.57s0,.39,0,.58c0,.36,0,.72,0,1.08l0,1.3q0,.57,0,1.14c0,.21,0,.37.26.45a7.72,7.72,0,0,1,2,1,13.46,13.46,0,0,1,1.35,1.17,3.81,3.81,0,0,1,.36.33c.28.35.54.71.81,1.06s.62.76.87,1.17a5.33,5.33,0,0,1,.64,1.34c.09.36.26.7.38,1.05.18.51.35,1,.52,1.53.1.32.19.64.29,1,.14.48.3.95.44,1.43s.23.91.36,1.36c0,.14.12.26.17.4.24.6.48,1.2.71,1.8s.33,1,.5,1.45l.13.33c.11.33.22.66.34,1a6.29,6.29,0,0,0,.32.7.25.25,0,0,0,.21,0,.38.38,0,0,1,.52.33c0,.15.12.29.16.44s.14.48.21.72c0,0,0,.1.07.16a1,1,0,0,1,.07.29.31.31,0,0,1-.21.07.51.51,0,0,1-.25-.23c-.15-.43-.27-.88-.42-1.39-.34.21-.67.39-1,.59l-1.61,1-1.19.75-.24.11c-.22.13-.43.27-.65.38-.53.29-1.07.56-1.6.84-.36.19-.71.39-1.07.57-.2.1-.42.18-.65.27.51.49.59,1.18.94,1.79.49-.29,1-.59,1.49-.87s.73-.38,1.09-.58l2.25-1.24c.69-.4,1.38-.8,2.05-1.22.45-.29.87-.63,1.31-.92a1,1,0,0,1,.42-.16.21.21,0,0,1,.19.08c.28.39.55.77.8,1.17s.56,1,.87,1.54.83,1.2,1.24,1.81a4.08,4.08,0,0,1,.34.57.88.88,0,0,1,0,.36l-.09,0a1.43,1.43,0,0,1-.32-.28q-.59-.81-1.14-1.65c-.21-.31-.37-.65-.56-1s-.43-.73-.66-1.09-.39-.56-.58-.84-.3-.19-.53,0-.71.51-1.08.75c-.11.08-.25.12-.37.19-.51.28-1,.56-1.52.86-.1.06-.17.17-.27.23-.35.2-.71.38-1.07.58s-.46.29-.7.42c-.51.27-1,.54-1.53.82s-1.1.62-1.66.93c-.16.09-.18.19-.1.36.31.6.62,1.19.91,1.8s.51,1.07.73,1.62.38,1.06.57,1.6l.4,1a.59.59,0,0,1,.05.29c0,.07-.08.18-.14.19a.28.28,0,0,1-.22-.11c-.18-.43-.35-.87-.52-1.32-.07-.2-.13-.41-.21-.62-.18-.46-.37-.92-.56-1.38s-.37-.91-.57-1.35c-.29-.62-.6-1.22-.91-1.83-.14-.27-.13-.36.16-.52a.46.46,0,0,0,.12-.09c-.09-.15-.17-.28-.24-.42l-.78-1.5a.39.39,0,0,1-.07-.24.2.2,0,0,0-.13-.28A4,4,0,0,1,66,42.51a5.54,5.54,0,0,1-1.67-1.67c-.32-.61-.54-1.27-.8-1.91-.19-.47-.38-.93-.59-1.39,0-.07-.14-.11-.21-.13-.46-.08-.92-.18-1.38-.23a9.57,9.57,0,0,0-1.07,0c-.53,0-1.06,0-1.59,0s-.91.16-1.36.21-1,.07-1.46.14c-.86.12-1.72.27-2.58.42-.69.12-1.38.26-2.07.41l-1.51.35c-.41.1-.82.16-1.23.27s-.72.24-1.08.36c-.63.21-1.26.39-1.87.62s-1,.47-1.5.7L43,41.17c-.28.13-.55.28-.81.43l-1.58.89a.88.88,0,0,0-.24.23c-.12.18-.24.12-.38.05s-.13,0-.22,0c.26.17.05.31,0,.41s-.17,0-.28,0a3.46,3.46,0,0,0-1.38-.49,14.54,14.54,0,0,1-1.58-.28c-.5-.1-1-.21-1.51-.29s-1.12-.16-1.69-.21-1-.06-1.57-.06-1,0-1.49.08c-.35,0-.69.14-1,.2l-1.11.16c-.1,0-.2.08-.3.1-.28,0-.56.09-.84.15l-.65.13c-.21,0-.41.06-.61.11l-1,.22a.4.4,0,0,1-.24,0c-.08,0-.18-.13-.18-.19a.33.33,0,0,1,.18-.22c.29-.08.58-.13.87-.18.62-.13,1.24-.26,1.86-.36.22,0,.46,0,.68,0s.17-.09.25-.11c.33-.07.68-.1,1-.2a3.59,3.59,0,0,1,1.34-.17.15.15,0,0,0,.07,0,.16.16,0,0,0,.06-.1c-.31,0-.62.06-.93.07s-.89,0-1.33.05l-1.19.12c-.8.1-1.6.31-2.39.49a4.89,4.89,0,0,0-.8.31l-1.2.59a.2.2,0,0,0-.08.13c-.06.28-.08.58-.16.86-.13.48-.3.95-.46,1.42a6.37,6.37,0,0,1-.42,1.08c-.22.43-.44.86-.7,1.28a12.78,12.78,0,0,1-1.19,1.65c-.32.37-.68.73-1,1.09l-1.1,1.18c-.18.2-.33.42-.5.63l-.68.76-.28.33c-.35-.22-.34-.25-.08-.54s.5-.64.77-.95.53-.54.78-.83c.57-.63,1.14-1.27,1.7-1.91.39-.46.78-.92,1.14-1.39a4.6,4.6,0,0,0,.39-.68c.18-.34.36-.68.51-1a5.89,5.89,0,0,0,.29-.8c.22-.81.46-1.63.64-2.45a13.64,13.64,0,0,0,.19-1.43c.07-.58.12-1.17.19-1.75a14.33,14.33,0,0,1,.23-1.6,16.55,16.55,0,0,1,.59-1.67c.15-.39.33-.76.51-1.13s.36-.73.52-1.1.27-.7.39-1a1,1,0,0,0,0-.25Zm33.85-4h0a3.42,3.42,0,0,0,.41,1.2c.4.66.69,1.39,1.08,2.06s.8,1.21,1.21,1.81c.15.23.3.47.43.71.24.44.47.88.7,1.33.09.18.17.36.27.54.18.33.41.64.56,1s.4,1,.6,1.53a13,13,0,0,0,.53,1.35,5.38,5.38,0,0,0,.68,1,4.63,4.63,0,0,0,.65.6,11.24,11.24,0,0,0,1,.79,6.06,6.06,0,0,0,.85.41c.14.06.3.17.43.15a2.91,2.91,0,0,0,.66-.28c.23-.1.44-.24.67-.35.4-.19.82-.34,1.21-.56s.91-.59,1.38-.87c.62-.38,1.27-.72,1.89-1.1s.91-.63,1.39-1c0-.05-.06-.14-.1-.23s-.22-.46-.31-.69-.26-.69-.39-1-.28-.7-.41-1-.35-.93-.53-1.4-.3-.69-.41-1.05c-.23-.7-.43-1.41-.64-2.12-.12-.39-.25-.77-.37-1.16s-.23-.81-.35-1.21c-.17-.55-.34-1.11-.52-1.67a4.75,4.75,0,0,0-.3-.85c-.27-.5-.58-1-.89-1.46a11.58,11.58,0,0,0-1.35-1.7,12.86,12.86,0,0,0-1.41-1.25,12.69,12.69,0,0,0-2-1.1s-.18.06-.18.1c0,.4-.07.79-.11,1.19s-.13.8-.18,1.2-.06.64-.09,1-.05.68-.09,1-.1.47-.12.7c0,.44-.06.88-.09,1.31s0,.57,0,.86a.46.46,0,0,1-.1.27.33.33,0,0,1-.29,0,.29.29,0,0,1-.1-.25c0-.35.07-.69.1-1,.08-.87.16-1.74.25-2.61.07-.57.16-1.13.23-1.7s.12-1.13.14-1.69c0-.2.14-.5-.22-.6-.07,0-.09-.19-.13-.29l.26-.05.1,0c0-.36,0-.7,0-1.05,0-.52,0-1,0-1.55s0-1.08,0-1.61,0-1.35,0-2,0-1.64-.07-2.47c0-.67,0-1.34-.08-2s0-1.44-.08-2.15c0-.43-.06-.86,0-1.29,0-.8.09-1.6.11-2.39,0-.41,0-.82-.08-1.23a.27.27,0,0,0-.13-.15,7.67,7.67,0,0,0-1.06-.22c-.51-.06-1-.07-1.55-.08-.33,0-.66,0-1,0s-.65,0-1-.06l-1.34,0c-.26,0-.52,0-.78,0l-1.05.11c-.38,0-.77,0-1.15.09s-.69.12-1,.18c-.65.09-1.31.16-2,.28s-1.3.28-2,.46c-.88.23-1.77.48-2.64.75a12.87,12.87,0,0,0-1.22.48c-.26.12-.5.28-.77.39s-.79.29-1.18.46-1,.47-1.46.72-1,.55-1.53.8c-.33.16-.68.26-1,.42s-.51.31-.79.44S40,8,40,8.12c0,.29,0,.58,0,.87,0,.63,0,1.26,0,1.89,0,.45,0,.91,0,1.36,0,.17,0,.33,0,.5,0,.48.06,1,.07,1.45,0,.79-.07,1.58,0,2.36a25.1,25.1,0,0,1,.09,2.6c0,.58-.09,1.16-.1,1.74s0,1.24,0,1.86S40,24,40,24.56s.06,1.14.07,1.71c0,.3,0,.6,0,.9,0,.59,0,1.19,0,1.78,0,.21,0,.42,0,.62s-.06.67-.1,1a1.88,1.88,0,0,0-.06.31c0,.35.06.71.07,1.06,0,.55,0,1.1,0,1.65s.07.91.11,1.36.08,1,.11,1.54c.08,1.16.15,2.31.23,3.46,0,.2,0,.39,0,.58s0,.43,0,.64.08.52.13.8a.45.45,0,0,0,.17,0c.23-.13.44-.29.67-.41.46-.25.92-.5,1.39-.73.26-.12.53-.2.79-.33s.46-.29.71-.4a8,8,0,0,1,1-.45c.68-.24,1.37-.47,2.06-.69.5-.16,1-.3,1.52-.43s1.26-.29,1.9-.42l1.3-.28c.43-.1.85-.22,1.29-.3.62-.12,1.25-.22,1.88-.31S56.51,37,57.1,37l1.07-.14c.25,0,.49-.09.74-.11s.58,0,.87,0a7.59,7.59,0,0,1,1.78.08,9.17,9.17,0,0,0,1.1.14c-.2-.39-.37-.75-.56-1.09-.48-.83-1-1.66-1.45-2.48-.27-.45-.6-.86-.87-1.31s-.55-1-.82-1.55a3.69,3.69,0,0,1-.29-.64c-.14-.47-.29-.94-.39-1.42a2.42,2.42,0,0,1,0-.71,2.42,2.42,0,0,1,.13-.66,1.09,1.09,0,0,1,.42-.48c.37-.19.7-.54,1.2-.42.28.08.6,0,.87.1A4.51,4.51,0,0,1,62.6,27.4c.35.34.61.76.93,1.14.19.22.41.43.6.65s.62.72,1,1.06a10.19,10.19,0,0,0,.81.8,1.28,1.28,0,0,0,.51.28c.31.09.57-.07.79-.4a2.32,2.32,0,0,0,.33-1.9,1,1,0,0,0-.13-.36,6.75,6.75,0,0,1-.51-.8,4.71,4.71,0,0,0-1.56-1.81c-.19-.15-.38-.44-.33-.62a.93.93,0,0,1,.62.33c.12.15.29.25.42.39a12.34,12.34,0,0,1,1,1.08c.2.26.31.6.49.87a3.87,3.87,0,0,1,.54,1.5.45.45,0,0,1,0,.2c-.12.42-.24.85-.38,1.26a1,1,0,0,1-.67.65,1.34,1.34,0,0,1-1.37-.37c-.24-.25-.52-.47-.76-.72s-.47-.52-.71-.77-.42-.44-.62-.67-.57-.69-.85-1a2.66,2.66,0,0,0-.35-.46c-.3-.23-.64-.4-.94-.64a2.53,2.53,0,0,0-.9-.41,1.71,1.71,0,0,0-1.56.42.64.64,0,0,0-.22.4c0,.39,0,.79,0,1.18a.44.44,0,0,0,.06.16Zm-40.4,8.74c.18-.38.34-.8.56-1.19s.45-.66.67-1,.44-.72.69-1,.74-.92,1.12-1.37a6.85,6.85,0,0,1,.77-.84,3.07,3.07,0,0,1,2.11-.77.9.9,0,0,1,.83.38,2.82,2.82,0,0,1,.25.81,1.44,1.44,0,0,1,0,.62c-.18.51-.38,1-.6,1.51s-.59,1.27-.88,1.91a7.15,7.15,0,0,0-.61,2c-.08.56-.17,1.12-.23,1.68s-.1.88-.14,1.33,0,.61-.07.93A8.32,8.32,0,0,0,23.89,42a3.31,3.31,0,0,1,1.16-.42,15.13,15.13,0,0,1,1.5-.25c.53-.08,1.05-.17,1.58-.23s1-.09,1.52-.13h.12l1.12,0c.34,0,.69,0,1,0s.78.12,1.17.16c.55.06,1.1.1,1.65.17s1.09.18,1.64.26l1.73.2a5.12,5.12,0,0,1,.56.15c.38.11.76.23,1.14.32a.79.79,0,0,0,.43,0A.23.23,0,0,0,40.4,42c-.07-.24-.11-.48-.17-.72a4.29,4.29,0,0,1-.14-.62c0-.35,0-.7,0-1,0-.84-.11-1.67-.16-2.5-.05-.67-.1-1.33-.16-2,0-.42-.1-.82-.12-1.24s0-.82,0-1.23c0-.77,0-1.54,0-2.3,0-.31,0-.61.06-.92s0-.85,0-1.27a2.18,2.18,0,0,1,0-.25c0-.33,0-.66,0-1s0-.71,0-1.06c0-.55,0-1.1,0-1.65,0-.39,0-.77,0-1.15,0-.67,0-1.33,0-2,0-.94.07-1.87.08-2.81,0-.64-.06-1.29-.08-1.93,0-.44,0-.88,0-1.31s0-.69,0-1V12.8c0-.37,0-.75,0-1.12s-.06-1-.06-1.48,0-1.1.06-1.65a.83.83,0,0,1,0-.15c.1-.34,0-.5-.29-.64l-.78-.35-.65-.23a5.43,5.43,0,0,0-.75-.24c-.37-.08-.75-.13-1.12-.18s-.74-.1-1.11-.13-.64,0-1,0-.79-.14-1.18-.16-.78,0-1.17,0-.83-.1-1.24-.13-.8,0-1.21-.06l-1.29-.08c-.26,0-.52,0-.78,0h-.77c-.72,0-1.43,0-2.14.06s-1.32.21-2,.3l-1.71.21a2.84,2.84,0,0,0-.49.1l-.92.29a7.41,7.41,0,0,0-1.55.43c-.27.14-.59.17-.8.41s-.35.33-.51.5-.25.24-.27.37a11.28,11.28,0,0,0,.13,2.39c0,.43.09.85.14,1.28s.14,1.16.19,1.74.07,1.32.12,2,.12,1.39.19,2.08c0,.41.1.83.15,1.24a1.68,1.68,0,0,0,0,.46,5,5,0,0,1,.26,1.26c.07.41.07.84.12,1.25s.12.87.16,1.3.06,1.09.09,1.64c0,.27.06.54.06.82,0,.6,0,1.2.05,1.8,0,.23.07.45.08.68s0,.29,0,.44c0,.4.07.81.12,1.22S18,31.5,18,32s.05.85.06,1.28c0,.26,0,.52,0,.78s0,.64.06,1c0,.48.09,1,.14,1.45s.06.72.09,1ZM8.63,48.6c.17.22.33.42.5.62l1,1.19c.19.24.34.49.53.72.43.51.87,1,1.29,1.5s.8,1.11,1.27,1.59.67.63,1,1c.06.09.16.13.24,0a.61.61,0,0,1,.22-.2l.93-.47c.14-.07.28-.16.44-.26a1.36,1.36,0,0,1-.3-.24c-.48-.62-1-1.25-1.43-1.88-.16-.21-.3-.42-.46-.62l-.64-.84c-.15-.2-.29-.42-.45-.62s-.62-.67-.92-1l-1-1.14-.64-.72L8.63,48.6ZM17.46,31l-.74,1s0,.08,0,.12c0,.66,0,1.31,0,2s-.05,1.12,0,1.68a7.43,7.43,0,0,0,.4,2.38c.12.33.43.52.69.29l.36-.31c-.07-.12-.18-.21-.2-.32s0-.45,0-.67a7.53,7.53,0,0,0-.09-1.35c-.11-.42,0-.84-.11-1.27a5.75,5.75,0,0,1-.05-1.32c0-.57-.1-1.15-.14-1.73a3,3,0,0,1,0-.45Zm6.17,1.3.07.11-.23.12a4.11,4.11,0,0,0-.51.27,3,3,0,0,0-.78,1.08c-.06.11,0,.18.1.24.41.16.8.36,1.21.51.06,0,.22,0,.26-.13.25-.5.49-1,.73-1.53a.49.49,0,0,0-.36-.67,4,4,0,0,0-.49,0Zm0-.48v.09c.59,0,1.21-.05,1.25.83a.54.54,0,0,0,.07-.3,1.72,1.72,0,0,0-.19-.49c-.05-.09-.18-.14-.28-.2-.13.19-.29,0-.43,0l-.42,0Z" transform="translate(-3.93 -1.82)"/><path d="M24,44.78c.29-.07.59-.14.88-.19s.44-.05.66-.07l2.57-.27,2.13-.19c.74-.07,1.48-.15,2.22-.19s1.54,0,2.3,0c.6,0,1.2,0,1.79.1a12.48,12.48,0,0,1,1.51.22,1.69,1.69,0,0,1,.62.33,1.45,1.45,0,0,0,1.35.32,3.35,3.35,0,0,1,.71,0c.24,0,.47,0,.7,0a.83.83,0,0,0,.32-.14c.19-.13.38-.28.56-.42s.46-.41.7-.58a7.85,7.85,0,0,1,1.75-1c.4-.15.77-.39,1.17-.56a6.29,6.29,0,0,1,.93-.3,16.61,16.61,0,0,1,2.52-.44c.72-.07,1.44-.23,2.16-.35l2.09-.36,1.3-.22c.52-.08,1-.17,1.55-.23.31,0,.63,0,.95,0s.6-.09.9-.12c.53-.07,1-.14,1.57-.17a11.19,11.19,0,0,1,1.42,0c.53,0,1.06.12,1.59.17.13,0,.28,0,.39,0a.35.35,0,0,1,.16.29.29.29,0,0,1-.34.18c-.22,0-.44,0-.66-.1a12.42,12.42,0,0,0-1.72-.11,15.69,15.69,0,0,0-2.38.14c-.63,0-1.24.12-1.86.2l-2,.28-2.76.44-1.61.26-1.63.26a4.56,4.56,0,0,0-.91.16,11,11,0,0,0-2.09.65c-.39.24-.82.44-1.23.66a6.8,6.8,0,0,0-.83.47c-.27.19-.49.46-.76.64a6,6,0,0,0-.87.71.35.35,0,0,1-.18.05l-.93,0c-.23,0-.46,0-.7,0s-.56.08-.84.09c-.08,0-.17-.13-.26-.19a3,3,0,0,0-1.62-.65c-.49,0-1-.17-1.47-.18a7,7,0,0,0-1.45,0,9.19,9.19,0,0,1-1.39,0c-.37,0-.74,0-1.1,0l-2.07.18c-.48.05-1,.13-1.46.17s-1.19.07-1.78.12c-.26,0-.51.12-.77.16l-1.9.22c-.29,0-.59.13-.88.2a1.16,1.16,0,0,1-.36,0c-.08,0-.16-.11-.19-.19s.08-.16.14-.18L24,44.74v0Z" transform="translate(-3.93 -1.82)"/><path d="M62.2,37.7c0,.15-.06.26-.1.4-.39,0-.77,0-1.16,0a6.7,6.7,0,0,0-1.54.15,11.36,11.36,0,0,1-1.19.18l-.69.14c-.32,0-.64.06-1,.11s-.53.13-.81.16c-.47.06-1,.08-1.42.14-.25,0-.51.09-.76.14l-.29,0-1.12.21-.49.1c-.44.1-.89.16-1.33.28s-.93.32-1.4.46-.8.22-1.21.33c-.08,0-.15.09-.24.11-.39.13-.78.24-1.17.36l-1.46.43a2.77,2.77,0,0,0-.46.22c-.44.23-.89.45-1.32.71-.14.08-.23.24-.36.36s-.23.22-.35.08-.06-.27.09-.39a5.4,5.4,0,0,1,1.36-.91c.33-.15.67-.28,1-.41s.9-.34,1.36-.49.64-.16,1-.26l1.47-.49c.61-.2,1.23-.43,1.86-.57a19.37,19.37,0,0,1,2-.42l1.43-.18c.5-.08,1-.2,1.49-.27s.78-.06,1.17-.12c.6-.08,1.2-.2,1.8-.3l.86-.13.93-.17a.64.64,0,0,1,.2,0l1.56,0a1.66,1.66,0,0,1,.28.05Z" transform="translate(-3.93 -1.82)"/><path d="M42,43.49c.19-.13.35-.24.51-.37a6.74,6.74,0,0,1,1.82-1c.27-.11.51-.31.79-.42s.85-.3,1.27-.46c.22-.08.43-.19.64-.27a5.64,5.64,0,0,1,.93-.31c1-.16,1.91-.28,2.87-.42L52.49,40c.8-.12,1.61-.21,2.41-.38a9.19,9.19,0,0,1,1.73-.15c.55,0,1.11-.12,1.67-.17.2,0,.41,0,.61,0,.58-.05,1.16-.13,1.74-.19a1.2,1.2,0,0,1,.33,0,.62.62,0,0,1,.19.14c-.08.09,0,.3-.18.3s-.53,0-.79,0-.81.09-1.22.13l-.8,0a5,5,0,0,0-1,.06c-.53.13-1.08.06-1.62.16-.38.07-.77.07-1.14.13-.59.08-1.16.19-1.74.28l-1.43.22-1.69.23c-.19,0-.37.09-.55.13-.51.11-1,.19-1.52.34s-.87.36-1.32.52c-.3.11-.63.15-.92.28s-.65.37-1,.55-.48.22-.71.36-.72.45-1.08.67a.43.43,0,0,1-.3.08c-.06,0-.09-.17-.12-.25Z" transform="translate(-3.93 -1.82)"/><path d="M39.41,44.05c-.47-.16-.93-.32-1.41-.45a4.49,4.49,0,0,0-.83-.11l-1.29-.06-2.06-.16c-.51,0-1-.09-1.51-.1s-.72,0-1.08.07c-.16,0-.33,0-.49,0l-.87.05c-.71,0-1.41.08-2.11.14-.45,0-.89.08-1.34.14l-2.08.25-1.15.2c-.13,0-.24,0-.21-.15a.34.34,0,0,1,.19-.22,3.59,3.59,0,0,1,.57-.11c.82-.11,1.63-.2,2.44-.34.42-.07.84,0,1.26-.09s.86,0,1.29-.08c.66-.06,1.31-.16,2-.2.48,0,1,0,1.44,0s.79,0,1.18,0c.58,0,1.16.11,1.74.14s1.19,0,1.79.06a7,7,0,0,1,.8.1,9,9,0,0,1,.9.21,4,4,0,0,1,.83.33c.08,0,.08.22.11.34l-.08,0Z" transform="translate(-3.93 -1.82)"/><path d="M58.79,28.8a3.39,3.39,0,0,1,0-.45,3,3,0,0,1,.17-.9.66.66,0,0,1,.56-.37,3.72,3.72,0,0,0,.62-.15,1,1,0,0,1,1,.29,5.34,5.34,0,0,1,.64.77.57.57,0,0,1-.16.82l-1.27.94c-.2.15-.39.32-.61.5-.34-.52-.63-1-.93-1.46Zm.63-1.41s-.1,0-.12.09a1.87,1.87,0,0,0-.13,1.14,2.16,2.16,0,0,0,.62,1,.25.25,0,0,0,.19,0l1.26-1a.54.54,0,0,0,.09-.64,1.31,1.31,0,0,0-.54-.53.76.76,0,0,0-.39-.17,9,9,0,0,0-1,.08Z" transform="translate(-3.93 -1.82)"/></g></g></svg>