<svg xmlns="http://www.w3.org/2000/svg" viewBox="0 0 42.1 66.26"><g data-name="レイヤー 2"><g data-name="レイヤー 1"><path d="M.24 9.97h.23a1.07 1.07 0 000-.35c-.17-.56.34-.77.58-1.09a4.57 4.57 0 011.55-1 5.07 5.07 0 011.53-.54c.61-.07 1.18-.29 1.75-.43.35-.08.71-.13 1.06-.22s.94-.27 1.34-.42c.28-.08.58-.12.87-.19s.61-.19.92-.25c.6-.12 1.21-.22 1.81-.33s1.17-.21 1.76-.3l.86-.13c.5-.09 1-.2 1.51-.28s1.13-.16 1.7-.25.84-.19 1.27-.28a1.94 1.94 0 01.24 0c.55-.11 1.11-.23 1.66-.32.32-.06.65-.08 1-.13l1.25-.23 1-.14 1-.17c.41-.06.83-.13 1.24-.21l.7-.14c.4-.08.81-.14 1.21-.23s.77-.23 1.16-.34l1.55-.4 1-.27 1.89-.47.5-.16c.61-.17 1.26-.33 1.9-.51.21-.05.41-.12.61-.18a.36.36 0 01.41.26c.09.37.19.75.29 1.12 0 .21.07.41-.28.46-.09-.43-.18-.88-.26-1.31l-1.17.15h-.08c-.23.26-.57.21-.86.3s-.62.15-.93.23-.71.2-1.06.31l-.23.06-1.84.47c-.21.06-.4.23-.64.12a4.45 4.45 0 01-1.42.41c-.67.16-1.35.25-2 .38-.88.18-1.76.37-2.64.53-.72.13-1.46.21-2.18.33s-1.28.25-1.92.37l-.77.11-3 .48c-.53.09-1 .22-1.57.31s-1.21.17-1.81.28c-.44.07-.88.19-1.32.28l-.51.09c-.65.12-1.3.23-1.94.38-.82.19-1.63.43-2.45.63s-1.43.31-2.14.5a9.53 9.53 0 00-1.35.5 7 7 0 00-1.34.62A2.25 2.25 0 00.75 9.83a5.19 5.19 0 00.13 1.35 10 10 0 00.26 1.21 2.34 2.34 0 00.32.78 1 1 0 00.51.33 1.84 1.84 0 00.62.11c.59 0 1.17 0 1.76-.06s1.3-.16 1.95-.21a17 17 0 002.32-.42c.26-.05.51-.15.76-.21s.45-.07.67-.1l1.14-.16 1.86-.34 1.44-.26 1.24-.26 1.83-.32 2.25-.44 1.33-.27c.34-.08.69-.18 1-.25s.47-.07.7-.11c.61-.12 1.21-.26 1.82-.37s1.31-.2 1.95-.33c.45-.09.89-.25 1.34-.37l.93-.21 1.13-.22 2.65-.57c.35-.07.71-.11 1.06-.18s.49-.1.74-.16l2.24-.53 1.9-.43a7 7 0 00.74-.23c.16-.06.22-.13.1-.33a10 10 0 01-.56-1.13 7.29 7.29 0 01-.46-.93c-.21-.6-.62-1.09-.82-1.7l-.31.09c-.21.07-.2.06-.07.22a.35.35 0 010 .28c-.17.24-.42.23-.69.21l.21.18a1 1 0 01-.73.36 5 5 0 00-.8.21c-.83.13-1.61.48-2.44.64-.51.09-1 .29-1.5.43s-.87.21-1.31.3c-.87.18-1.75.35-2.62.54-.28.06-.55.16-.82.23s-.44.08-.65.14l-1.12.34h-.05c-.78.1-1.48.51-2.27.61s-1.41.23-2.12.36c-.46.08-.93.19-1.4.27s-.77.09-1.15.15-.89.14-1.34.24-1.07.27-1.61.4l-1 .23c-.59.15-1.17.31-1.76.45-.4.09-.82.14-1.22.23s-.85.24-1.27.35-.62.13-.93.2l-1.4.35-.74.15v.12l.59-.1 1-.15c.45-.08.9-.16 1.34-.27.62-.16 1.22-.36 1.84-.52.24-.06.51 0 .76-.09s.44-.09.67-.13.68-.14 1-.18.75 0 1.12-.06.74-.13 1.11-.2l.55-.09 1.61-.3c.67-.13 1.34-.25 2-.41.49-.11 1-.28 1.44-.42l.36-.05c.37-.1.74-.21 1.12-.29.6-.12 1.21-.2 1.81-.32.41-.09.8-.21 1.21-.31l1.68-.38c.35-.08.68-.19 1-.28l1.38-.32 1.8-.51h.27c.39-.08.79-.16 1.18-.26l1.5-.41c.39-.1.79-.17 1.18-.26s1-.26 1.52-.39a.61.61 0 01.3 0 1 1 0 01.25.2c-.09.07-.16.18-.26.21-.4.12-.81.21-1.21.31l-.91.2-1.89.39c-.52.11-1 .2-1.56.33s-.88.28-1.32.39-1.1.22-1.64.35-.78.26-1.18.38c-.23.07-.46.07-.66.07s-.51.18-.77.24c-.44.1-.9.18-1.35.27-1 .2-2 .39-3 .61-.47.11-.92.31-1.39.39a7.63 7.63 0 01-1.26.27 6.59 6.59 0 00-1.08.32c-.35.09-.72.11-1.08.17s-.53.13-.8.18c-.49.08-1 .15-1.48.21l-1 .09-1.25.25-1.34.2c-.32.06-.64.15-1 .22a.85.85 0 01-.22 0 2.52 2.52 0 00-1 .3 2.7 2.7 0 01-.64.14c-.24.05-.48.13-.72.17s-.6.11-.9.14-.66.05-1 .09-.89.11-1.33.19-.94.22-1.41.33c-.17 0-.35.13-.42-.14 0-.05-.19-.09-.28-.08s-.33.07-.5.09a.3.3 0 01-.23 0 .46.46 0 01-.12-.25s.12-.14.19-.16l.6-.1.89-.21.57-.12c.41-.09.82-.2 1.24-.28s1.08-.16 1.62-.26.83-.19 1.24-.29l1.59-.39c.26-.06.51-.16.77-.21.44-.09.89-.13 1.32-.23.75-.17 1.48-.37 2.23-.55a5 5 0 00.87-.2 9.05 9.05 0 011.61-.4c.55-.12 1.12-.18 1.69-.28l1-.17 1.7-.25c.41-.07.81-.16 1.21-.26s.81-.18 1.2-.31c.66-.2 1.31-.43 2-.64a2.09 2.09 0 01.32-.09l1.14-.25v-.11c-.19 0-.38.09-.57.12l-1 .12a3.84 3.84 0 00-1.16.22c-.1.05-.23 0-.34 0l-1.67.3c-.73.13-1.46.24-2.19.38-.3.06-.58.18-.87.25s-.74.13-1.11.2-.46.12-.69.16-.64.11-1 .18l-.9.2-.31.07-.86.22c-.4.1-.8.22-1.21.3s-.69.12-1 .17h-.26l-1.31.32c-.22.05-.45.08-.67.14l-1 .29c-.52.15-1 .28-1.56.44-.12.12-.32.28-.46.28a1.93 1.93 0 01-.43.1l-2.28.39a2.81 2.81 0 00-.59.12c-.29.11-.31-.08-.36-.32L4.27 10c.23 0 .47-.06.7-.11.47-.08 1-.16 1.42-.27.22-.06.42-.19.64-.26s.28 0 .41-.07c.57-.18 1.14-.4 1.72-.56s.87-.18 1.31-.28.63-.19.95-.26.85-.17 1.27-.27l2.19-.49c.19 0 .38-.07.57-.11v-.09l-.79.13c-.38.06-.76.1-1.14.18-.55.1-1.09.24-1.63.35s-1.33.22-2 .35c-.19 0-.38.14-.57.19s-.49.1-.73.15c-.59.12-1.19.23-1.78.38s-1.06.34-1.6.5c-.31.09-.63.16-.94.24-.07 0-.13.08-.2.1-.25.09-.51.16-.77.24s-.65.22-1 .31a3.1 3.1 0 01-.61.09c-.14 0-.16.06-.13.2a6.59 6.59 0 00.5 1.85 4.8 4.8 0 01.21.48 2.26 2.26 0 00-.19.23 8.38 8.38 0 01-.44-.91c-.12-.35-.18-.72-.28-1.08a3.88 3.88 0 00-.14-.45.54.54 0 00-.1-.16l-.24-.23c.13-.1.24-.25.38-.29.42-.12.87-.17 1.3-.27s.87-.23 1.3-.36.66-.25 1-.36c.51-.17 1-.35 1.53-.48s.97-.18 1.49-.28.77-.21 1.16-.31.52-.1.84-.17l1.31-.28 1.22-.2 1.56-.29c.43-.08.87-.15 1.31-.25.18 0 .35-.17.53 0 .2-.23.49-.1.72-.2a14.7 14.7 0 011.74-.42c.54-.13 1.09-.29 1.64-.42s.81-.16 1.22-.25c.22 0 .43-.13.65-.19l.91-.2c.45-.09.9-.16 1.35-.23l2.11-.37 1.58-.28c.71-.13 1.43-.26 2.15-.41.53-.1 1.05-.22 1.58-.33h.53c.54-.1 1.09-.2 1.63-.33s.85-.28 1.28-.4 1-.21 1.43-.34.76-.23 1.14-.36a2.22 2.22 0 00.28-.18.27.27 0 01.19.38c-.08.31.2.48.3.72.23.56.5 1.1.75 1.65.11.24.24.46.36.69a10.38 10.38 0 01.48.94c.07.17.14.13.28.1.37-.09.74-.17 1.11-.23.22 0 .32.11.3.33 0 .5-.1 1-.11 1.49s0 1.18 0 1.77c0 .4.06.8.07 1.2s0 1 0 1.47-.09 1.08-.1 1.62v2.66c0 .61 0 1.22.05 1.82s.12 1.46.16 2.19c0 .94.07 1.89.11 2.83 0 .66.1 1.33.12 2a8.46 8.46 0 000 1 13.21 13.21 0 01.1 1.66c0 .4.09.77.11 1.15a4.43 4.43 0 01-.06.51c0 .08.07.17.07.26v1.27c0 .43 0 .92.06 1.38V45.63c0 .8 0 1.6-.05 2.39 0 .48-.08 1-.1 1.45s0 1.27 0 1.9c-.06 1 0 2.09 0 3.13 0 .51-.08 1-.09 1.53 0 .22.08.44.09.67s-.06.4 0 .59a5.36 5.36 0 00.15.78c.06.22-.12.36-.19.53-.14.36-.48.42-.81.48s-.53.14-.8.2-.76.16-1.13.26-.76.24-1.15.36-.85.2-1.26.33-.84.29-1.25.43l-.45.12-1.93.56c-.18 0-.38 0-.56.07s-.21.11-.33.14c-.6.14-1.2.3-1.81.39a7.61 7.61 0 00-1.7.45 5.12 5.12 0 01-.54.1c-.8.2-1.59.44-2.4.62-.49.11-1 .14-1.49.23s-1.15.24-1.73.38c-.31.07-.61.21-.93.26s-.57 0-.85.06c-.53.08-1.05.2-1.58.3l-2.3.39c-.59.1-1.19.2-1.78.28-.39.06-.78.08-1.16.13-1 .12-2 .25-3 .39-.49.07-1 .19-1.46.25-.67.09-1.34.15-2 .23-.2 0-.38.13-.58.17a3.33 3.33 0 01-.77.11 2.41 2.41 0 01-1-.14 3.17 3.17 0 01-.77-.65 7.37 7.37 0 01-.78-.8c-.23-.29-.39-.62-.59-.93a4.87 4.87 0 01-.76-1.53 6.64 6.64 0 01-.09-1c0-.66-.09-1.33-.1-2 0-1.65 0-3.29-.06-4.93 0-.69 0-1.38-.06-2.06s-.15-1.56-.23-2.33c-.1-1-.22-2-.33-3-.05-.37-.11-.75-.14-1.13s0-.68 0-1c0-.6-.08-1.21-.1-1.81s0-.95 0-1.43-.08-1.13-.1-1.69 0-.84 0-1.26-.08-.91-.1-1.37 0-.76 0-1.13-.09-1-.13-1.47v-.13c0-1.07-.06-2.14-.12-3.21 0-.69-.14-1.38-.19-2.06a4.82 4.82 0 010-.76v-1.78c0-.6-.07-1.16-.1-1.74s0-.9 0-1.35-.15-1.15-.19-1.68c0-.28-.05-.56-.06-.83v-1.37-1.43c0-.48.05-1 0-1.52s-.07-1-.09-1.5-.07-1.06 0-1.59.11-1.31.17-2l.09-1.29v-.4zm1.79 3.95c0 .29.08.5.09.72 0 .72.08 1.44.11 2.16v.77c.06.6.16 1.2.22 1.8.08.94.13 1.87.19 2.81v.39c0 .42.12.84.12 1.27a6.81 6.81 0 00.06 1.08c.16.89.06 1.78.14 2.66a16.07 16.07 0 010 1.7 9.23 9.23 0 00.15 1.66c.12.76.17 1.54.22 2.32s.07 1.44.12 2.16.11 1.33.15 2 0 1.21.06 1.82 0 1 0 1.46.13 1.22.22 1.74 0 1.1.08 1.64.14 1.16.18 1.75 0 1.17.06 1.76.08 1.29.1 1.93v1.14c0 .75.1 1.5.16 2.25 0 .35 0 .69.07 1s.08.83.11 1.24 0 .82.08 1.22.08.64.11 1 0 .54.08.81l.24 2.2c0 .44.08.89.1 1.34 0 .8.08 1.6.11 2.4v.69c0 .23.17.59 0 .89.36.23.72.08 1.07.08a9.09 9.09 0 001-.18c.56-.07 1.12-.11 1.67-.17l1.08-.16.92-.13 1.4-.22h.49a19.78 19.78 0 012-.27c.41 0 .82-.12 1.24-.17.71-.09 1.42-.27 2.13-.41.36-.08.72-.16 1.08-.22s.74-.1 1.1-.17c.64-.11 1.27-.25 1.91-.37a6.06 6.06 0 001.1-.2 7.25 7.25 0 011.14-.26l1.38-.29a9.07 9.07 0 001.06-.24c.73-.24 1.49-.38 2.22-.59s1.56-.34 2.33-.5a24.54 24.54 0 002.42-.63c.54-.18 1.1-.33 1.64-.5l1.22-.36c.44-.14.87-.27 1.31-.39l2-.53a8 8 0 001-.3.34.34 0 00.22-.26v-2-2.54l.06-3c0-.7 0-1.41.06-2.12 0-.43.06-.85.07-1.28s0-1.07 0-1.61v-2.79-1.56-1.38-1.26-1-1.94-1.55-1.85l-.06-1.54v-2.27c0-.49 0-1-.07-1.47s-.11-1.12-.14-1.69 0-.89 0-1.33c0-.87-.05-1.73-.09-2.59 0-.33-.06-.65-.09-1 0-.6-.09-1.19-.12-1.78s0-1.05-.06-1.57c0-.7-.09-1.4-.09-2.1s.06-1.68.09-2.52v-.21c0-.48.07-1 .06-1.45s-.07-.88-.09-1.32 0-1 0-1.45c0-.32.08-.64.09-1a4.66 4.66 0 000-.64c-.3.11-.55.21-.8.28l-1.63.41c-.14 0-.28.09-.42.12l-1.51.31-1.21.35-1.08.22c-.23 0-.45.11-.68.16l-1.25.25-1.19.28-3 .64c-.42.09-.83.23-1.26.32-.62.14-1.25.26-1.87.37l-1.47.24-.44.06-1 .24-1.16.22c-.16 0-.31.11-.46.14l-.93.16-1.36.25-1.51.31-2 .36c-.41.08-.81.2-1.22.28s-.9.18-1.36.26a14.44 14.44 0 01-1.6.27 10.09 10.09 0 00-1.82.35c-.41.11-.82.17-1.24.24l-1.09.16c-.44.07-.87.18-1.31.22-.61.05-1.22.05-1.83.09a2.48 2.48 0 00-.66.05c-.17 0-.4-.08-.65-.14zm2.85 51.53h.07v-.44c0-.15-.07-.52-.07-.77v-1.78c0-.59-.11-1.48-.17-2.22s-.17-1.72-.24-2.59c0-.53-.06-1.06-.11-1.58-.07-.68-.17-1.36-.23-2-.08-.86-.14-1.72-.19-2.58-.06-.57-.06-1.07-.06-1.57a18.17 18.17 0 00-.1-2.33 7.91 7.91 0 01-.07-1.29c0-.66-.06-1.33-.11-2-.06-.94-.15-1.89-.21-2.83 0-.63 0-1.27-.06-1.9s0-1 0-1.47c-.05-.72-.11-1.44-.16-2.16s-.07-1.7-.11-2.54c0-.34-.07-.68-.1-1s-.07-.81-.11-1.22c-.07-.64-.18-1.28-.2-1.93v-2.79c0-.69-.09-1.39-.14-2.08l-.12-1.88c0-.36-.08-.73-.1-1.1v-.63c0-.75-.1-1.49-.16-2.23 0-.33 0-.66-.06-1s-.19-.88-.26-1.32-.05-1.1-.09-1.65a2.09 2.09 0 00-.08-.65c-.05-.16-.22-.27-.32-.41a3.1 3.1 0 01-.44-.59 6.77 6.77 0 01-.23-1 1.14 1.14 0 00-.1-.19H.48v.49c-.05.68-.15 1.36-.15 2s.09 1.27.14 1.91v.72c0 .49-.05 1-.06 1.47a3.92 3.92 0 010 .76 10.38 10.38 0 00.09 2.3c0 .63.11 1.26.13 1.88s0 1.47 0 2.2.05 1.24.07 1.86c0 .94 0 1.88.08 2.82 0 .48.07 1 .09 1.44s0 1.16.08 1.74.14 1.11.13 1.67a8.92 8.92 0 01.08 1.16 7.71 7.71 0 000 1.36c0 .19.07.39.08.59v1.76c0 .59.08 1.18.1 1.77s0 .91 0 1.36c0 .74.07 1.47.12 2.2s.11 1.2.18 1.8c.05.43.12.87.18 1.3s.1.77.13 1.16c0 .62.09 1.25.13 1.87V52.91c0 .16.05.2.05.3V57.15c0 .56.09 1.12.12 1.68 0 .24-.07.49-.06.73 0 .63.1 1.26.13 1.88a3.07 3.07 0 00.55 1.58c.23.36.4.76.66 1.1s.76.85 1.14 1.27zM17.36 6.81v.1l.65-.15c.35-.09.71-.17 1.06-.24l1.15-.22c.18 0 .37 0 .55-.08a4.19 4.19 0 01.82-.23 6.84 6.84 0 001.42-.2c.4-.1.81-.15 1.22-.23.25 0 .51-.11.76-.14s.56 0 .83-.06c.52-.09 1-.22 1.54-.34.69-.16 1.39-.34 2.09-.48s1.21-.18 1.81-.33a12.36 12.36 0 001.35-.29 7.11 7.11 0 011-.22c.46-.11.9-.25 1.35-.38l.92-.27v-.13a4.62 4.62 0 01-.47.19l-1.24.32c-.51.13-1 .27-1.54.37-.82.14-1.64.24-2.45.38-.58.1-1.16.25-1.73.37l-1.13.21-1.61.25-1.68.29c-.49.08-1 .16-1.46.26a8.76 8.76 0 00-1.56.36 1.53 1.53 0 01-.42.11l-1 .18c-.26 0-.52.14-.78.2s-.66.14-1 .21l-.48.15zm13.17-1.89v-.13l-2.89.65v.07c1-.14 1.94-.37 2.9-.59zm6.35-2.12v-.1l-.71.15v.09l.71-.14z"/><path d="M35.12 7.24a.56.56 0 01-.21.11l-1.23.27c-.38.09-.75.22-1.13.31s-.63.08-.93.14a2.64 2.64 0 00-.62.2 5.59 5.59 0 01-1.39.31c-.36.05-.71.12-1.07.19l-1.86.35-1.57.3c-.44.09-.89.16-1.33.26l-1.66.38c-.28.06-.56.07-.83.13s-.64.2-1 .29c-.16 0-.33.08-.49.12l-1.68.39c-.32.07-.65.1-1 .15s-.47.09-.71.12-.38 0-.58 0l-1 .12-.95.19-.45.06c-.57.09-1.15.18-1.72.29-.16 0-.31.14-.47.18-.39.08-.78.13-1.16.22s-.57.19-.87.25-.71.08-1.07.15-.65.2-.96.2h-.21c-.41 0-.82.08-1.23.14s-.78.15-1.17.2a7.39 7.39 0 01-1.15.06c-.09 0-.17-.13-.26-.21a.68.68 0 01.22-.12 2.61 2.61 0 01.93-.07 2.94 2.94 0 001-.15l.8-.14c.78-.12 1.55-.26 2.33-.35a9 9 0 001.66-.36 10.52 10.52 0 011.12-.21c.34-.07.68-.18 1-.24s.82-.12 1.22-.19 1-.17 1.45-.24c.28 0 .56 0 .84-.06s.82-.09 1.22-.15.76-.13 1.13-.21c.55-.12 1.09-.26 1.64-.4l1.68-.4 1.8-.39 1.23-.3c.5-.1 1-.18 1.51-.26l2.2-.38 1.21-.26c.43-.09.87-.17 1.3-.27s.72-.23 1.08-.31.91-.17 1.35-.28c.77-.19 1.53-.42 2.29-.62.58-.16 1.16-.31 1.74-.44a.35.35 0 01.3.12.27.27 0 01-.21.37l-1.85.44zM2.52 12.27a.62.62 0 01.19-.14 2.88 2.88 0 01.51-.1l.9-.13h.54c.56-.1 1.11-.22 1.67-.31s.88-.12 1.32-.2.59-.14.89-.19l1.61-.28c.33 0 .66-.11 1-.17l2.13-.42 1.1-.24h.07A5.76 5.76 0 0016 9.85c.68-.12 1.37-.27 2.05-.4.4-.07.81-.13 1.21-.21s.93-.21 1.4-.29 1-.12 1.46-.2c.27 0 .54-.12.81-.16.83-.15 1.66-.27 2.48-.43.57-.1 1.14-.23 1.7-.38s1.09-.35 1.64-.5.85-.17 1.27-.27c.63-.16 1.25-.35 1.88-.51s1.09-.24 1.63-.39 1.16-.34 1.73-.52a7.63 7.63 0 00.85-.26c.14-.07.19 0 .21.08s0 .25-.06.28a5.72 5.72 0 01-.59.17l-1.89.53-1.25.33c-.38.1-.75.25-1.13.34s-.94.18-1.4.3-.81.23-1.22.35l-.66.21-1.24.29c-.38.09-.76.19-1.15.26s-.74.07-1.11.14-.71.17-1.06.24-.59.06-.88.11l-1.8.31-1.32.22c-.42.08-.82.19-1.24.27l-1 .16c-.25 0-.49.11-.74.16l-1.29.27c-.66.12-1.33.23-2 .37s-1.27.29-1.91.4-1.05.12-1.58.19-1 .14-1.43.22c-.69.12-1.39.23-2.08.36-.39.08-.77.21-1.15.29a4.75 4.75 0 01-.54 0c-.47.07-.93.17-1.41.22a3.34 3.34 0 01-.62-.06v-.1zM21.32 39.29c.22-.23.48-.52.76-.77a9 9 0 01.83-.67c.31-.21.62-.41.94-.59.63-.34 1.25-.68 1.89-1a6.47 6.47 0 01.91-.3l.66-.21c.43-.13.86-.27 1.3-.37.62-.13 1.24-.24 1.86-.35a2.24 2.24 0 01.87-.11c.32.1.6-.1.92 0a2.48 2.48 0 00.72 0c.19 0 .34 0 .28.32a4.6 4.6 0 00-.11 1.17c0 .54.11 1.08.16 1.62v.53c0 .54.07 1.08.11 1.63l.15 2.13a16.31 16.31 0 01.09 1.84 9 9 0 00.22 1.67c0 .09-.1.19-.16.3a.63.63 0 01.24.16.69.69 0 01.12.33s-.12.11-.17.1a2.36 2.36 0 01-.52-.21 3.83 3.83 0 00-1.33-.33 9.82 9.82 0 00-1.72.11 3.28 3.28 0 00-1.17.31 4.57 4.57 0 00-1.51.72 7.14 7.14 0 01-.81.47c-.45.3-.89.61-1.33.92s-.59.43-.87.67a2 2 0 00-.25.37c-.18.25-.39.47-.55.73a7 7 0 00-.37.78 1.11 1.11 0 01-.14.26c-.13 0-.35-.1-.36-.19-.09-.46-.5-.67-.73-1a2.93 2.93 0 00-1.19-.82 3.67 3.67 0 00-1.18-.3c-.41 0-.83 0-1.24-.06s-1-.14-1.43-.15a8.35 8.35 0 00-1.31.1 7 7 0 00-1.52.29 10.13 10.13 0 00-1.53.8c-.22.13-.37.08-.4-.17-.08-.7-.16-1.4-.25-2.1-.07-.54-.15-1.08-.23-1.62s-.16-1.19-.26-1.79c-.06-.41-.14-.82-.2-1.24 0-.24 0-.48-.06-.72 0-.42 0-.85-.07-1.27 0-.23-.09-.46-.11-.7 0-.52-.06-1-.09-1.58v-.17c0-.06 0-.16.05-.18a5.28 5.28 0 01.53-.27h.07c.07-.38.44-.36.68-.48a9.5 9.5 0 001.09-.43 2.82 2.82 0 011-.3c.35-.06.72-.07 1.08-.11s.66-.09 1-.1a4.07 4.07 0 01.67.11 1.8 1.8 0 01.71.12c.25.15.55.1.79.32a4.48 4.48 0 001 .51 1.77 1.77 0 01.43.28c.26.25.67.31.83.69a1.21 1.21 0 00.25.32zm0 .15a.66.66 0 01-.29-.08 4.53 4.53 0 00-.59-.57c-.49-.31-1-.57-1.52-.86a4.58 4.58 0 00-1.84-.52 9.25 9.25 0 00-1.74.07 10.7 10.7 0 00-1.37.27 6.31 6.31 0 00-1.61.62 1 1 0 00-.67 1.13c.06.58.07 1.15.12 1.73s.09.93.15 1.39c0 .15.06.29.08.43a8 8 0 01.1.84c0 .22.08.43.07.67a6.27 6.27 0 00.22 1.18c.14.89.26 1.78.39 2.67 0 .26.07.53.1.8s.14.32.26.26a11.26 11.26 0 011-.51 4.91 4.91 0 01.86-.21 8.15 8.15 0 011.09-.24h2.09c.36 0 .59.07.89.1s.39 0 .58 0c.41.08.82.18 1.23.29a3.07 3.07 0 011.31.66c.35.31.66.65 1 1 .11-.16.21-.32.32-.46a8.57 8.57 0 01.64-.82c.36-.36.73-.7 1.12-1a12.73 12.73 0 011.28-.94c.39-.25.84-.42 1.24-.66a6.91 6.91 0 012.2-.76 5.6 5.6 0 012-.17l1.25.19a.15.15 0 000-.07v-.88c-.05-.51-.12-1-.15-1.52-.06-.82-.09-1.63-.13-2.44 0-.66-.08-1.32-.09-2 0-.44-.13-.86-.16-1.3s0-1 0-1.51v-.78a2.26 2.26 0 00-.39-.08 9.12 9.12 0 00-1.48.09c-.35.06-.7.08-1.05.11s-.42 0-.61 0c-.36.08-.7.21-1.05.3a7.19 7.19 0 00-.94.24c-.26.12-.52.19-.78.33-.56.31-1.18.54-1.77.81a5.38 5.38 0 00-.83.42 9.93 9.93 0 00-1.11.82c-.42.35-.81.74-1.25 1.14l-.22-.23zM10.02 24.37a2.24 2.24 0 01-.36 1.16.53.53 0 000 .18.65.65 0 00.2 0 2.55 2.55 0 011.72.09 2.28 2.28 0 01.9.64 4.26 4.26 0 01.51.91 1.66 1.66 0 01.14.66 2.8 2.8 0 01-.12.63c0 .14-.08.27-.12.4a2.66 2.66 0 01-.25.65 7 7 0 01-1 1.17 7 7 0 01-1.17.65h-.06c-.14.28-.47.14-.67.31s-.52-.28-.58-.43a4.78 4.78 0 00-.28-.59 20.42 20.42 0 01-1.06-2.15c-.19-.42-.36-.84-.55-1.25s-.39-.78-.62-1.19c-.27-.6-.52-1.22-.78-1.82a5.54 5.54 0 00-.3-.53.5.5 0 01.06-.63 3.29 3.29 0 011.34-.78 3.8 3.8 0 011.8-.07 1.25 1.25 0 01.55.38 2.13 2.13 0 01.7 1.61zm.79 1.67a2.67 2.67 0 00-1.62.53c-.43.3-.7.8-1.21 1a.3.3 0 00-.08.27c.27.61.56 1.2.86 1.8s.49.89.72 1.35.37.43.72.22.49-.33.74-.48a3.1 3.1 0 001.42-1.69 3.51 3.51 0 00.21-1.24 1.8 1.8 0 00-.69-1.28 1.72 1.72 0 00-1.1-.48zm-3.18 1.2a.86.86 0 00.3-.16 4 4 0 001.21-1.55c.07-.2.24-.37.3-.58s.28-.61.08-1a2.06 2.06 0 01-.25-.57 1.16 1.16 0 00-.85-.7 3.69 3.69 0 00-2.22.58c-.29.18-.3.27-.14.57s.39.81.58 1.22.33.76.5 1.13l.49 1zM17.79 27.77a2.73 2.73 0 01-1.64-.65 3.65 3.65 0 01-1-1.91 4 4 0 010-1.82 2.68 2.68 0 01.63-1.55 5.06 5.06 0 011.36-1.12 3.76 3.76 0 01.74-.24.78.78 0 01.36.06c.28.08.48.3.79.36s.36.3.51.49a3.53 3.53 0 01.62.83 2.3 2.3 0 01.23 1 5.53 5.53 0 01-.1 1.22c-.06.36-.17.72-.26 1.08a2 2 0 01-.06.35c-.16.29-.33.57-.51.85a2.42 2.42 0 00-.27.36 1.1 1.1 0 01-.76.51c-.24.07-.47.16-.61.21zm0-.43a3 3 0 00.64-.28 2.23 2.23 0 00.91-1.14c.13-.4.29-.8.41-1.2a5.77 5.77 0 00.1-.71 3.09 3.09 0 000-1.25 3 3 0 00-.61-1.11 2.66 2.66 0 00-.81-.58 1.08 1.08 0 00-.55-.15 3 3 0 00-1.71 1.1 3.63 3.63 0 00-.66 2 3 3 0 00.16 1.32 3.28 3.28 0 00.9 1.57 2 2 0 001.25.46zM24.64 19.92a1.9 1.9 0 01.08-.34h.14a2.37 2.37 0 011.79.56 3 3 0 011.08 1.07 2.89 2.89 0 01.46 1.46 4.56 4.56 0 01-.3 2 2.17 2.17 0 01-.72 1c-.23.15-.41.4-.65.5a2.09 2.09 0 01-.95.15 2.84 2.84 0 01-1.15-.4 2.09 2.09 0 01-.7-.8 9.62 9.62 0 01-.59-1.49 2.27 2.27 0 010-.64 9.2 9.2 0 010-1.05 3.07 3.07 0 01.2-.82 3.56 3.56 0 01.38-.69 1.22 1.22 0 01.81-.46.36.36 0 00.13-.05zm.45.06c0 .29 0 .29-.26.32a1.19 1.19 0 00-1.05.89c-.08.33-.1.67-.16 1a4.07 4.07 0 00.26 2.19 2.33 2.33 0 00.68 1.05 2 2 0 001.33.43 1.56 1.56 0 00.93-.52 2 2 0 00.55-.67 6.47 6.47 0 00.33-1.24 2.59 2.59 0 00-.36-2.06 2.31 2.31 0 00-.36-.54 8.78 8.78 0 00-.93-.61 1.52 1.52 0 00-.95-.26zM31.45 22.37c.16-.12.29-.2.41-.3l1.36-1c.38-.29.75-.58 1.14-.85s.87-.58 1.31-.87h.08c.07-.29.29-.22.5-.22a.45.45 0 01-.23.58c-.62.39-1.21.82-1.81 1.24-.42.3-.82.62-1.24.92-.24.17-.5.32-.73.51a5.53 5.53 0 00-.89.78c-.13.15-.11.44-.13.67-.07.54-.12 1.09-.17 1.63 0 .3 0 .6-.05.9 0 .15 0 .34-.21.34a.33.33 0 01-.31-.38c0-.23.07-.47.1-.7.06-.44.11-.88.16-1.32s.09-.75.14-1.13.13-.78.18-1.17c.09-.85.16-1.7.27-2.55a9.21 9.21 0 01.23-1.14.39.39 0 01.26-.24c.14 0 .21.05.19.2a2.74 2.74 0 01-.05.28 9.1 9.1 0 00-.32 2.08l-.21 1.58a1.27 1.27 0 000 .23z"/><path d="M33.1 21.82c.42 0 .4 0 .47.4.1.65.24 1.29.35 1.93.07.39.11.79.18 1.18s.2 1 .29 1.47c0 .15 0 .3.06.45s.13.55.17.83a.23.23 0 01-.11.19h-.19a.66.66 0 01-.24-.4 13.21 13.21 0 01-.35-2.24c0-.24-.12-.47-.16-.71s-.06-.5-.1-.76c-.1-.62-.21-1.23-.31-1.85l-.06-.46zM21.2 36c-.46-.17-.33-.57-.37-.86-.13-.79-.19-1.58-.29-2.37a3.2 3.2 0 00-.08-.54c0-.15 0-.25.13-.24s.24.11.25.19c.06.4.08.81.13 1.21.07.55.16 1.1.25 1.64 0 .22.1.43.11.65s-.09.22-.13.32zM25.74 34.32l.68-1.12.5-.79c.14-.22.26-.45.41-.66a1.07 1.07 0 01.26-.26c.21-.13.35-.07.43.1-.25.35-.47.68-.71 1l-1.16 1.59s-.05.12-.1.14a1.51 1.51 0 01-.3.1v-.1zM16.19 33.37c.38-.05.52.22.7.38.47.42.92.86 1.37 1.31.23.22.42.47.63.71v.07h-.2a5.69 5.69 0 01-.72-.55c-.44-.42-.85-.85-1.27-1.28l-.37-.37a1.53 1.53 0 01-.11-.25z"/></g></g></svg>