<svg xmlns="http://www.w3.org/2000/svg" viewBox="0 0 55.72 24.85"><title>アセット 5512px</title><g id="レイヤー_2" data-name="レイヤー 2"><g id="レイヤー_1-2" data-name="レイヤー 1"><path d="M28.15,13.29c-.19.49-.38,1-.56,1.43s-.35,1-.57,1.49a21.76,21.76,0,0,1-1.12,2.14,5.39,5.39,0,0,1-1,.92,5.5,5.5,0,0,1-.47.49,7.24,7.24,0,0,1-.87.57,5.5,5.5,0,0,1-1.39.45,3.26,3.26,0,0,1-.7.06l-1.23.07c-.53,0-1.07.08-1.61.1s-1.14,0-1.72,0-.87-.1-1.31-.14l-1.37-.14c-.16,0-.31-.06-.47-.09-.61-.11-1.23-.21-1.84-.34-.31-.06-.61-.2-.93-.29a3.26,3.26,0,0,0-.33-.05c-.46-.09-.93-.15-1.38-.26a7.54,7.54,0,0,1-.9-.34l-1.14-.46a.32.32,0,0,0-.23,0c-.24.16-.47.34-.7.52s-.48.39-.73.57-.73.54-1.1.79c-.19.13-.41.23-.61.35-.5.28-1,.54-1.5.84a1.82,1.82,0,0,1-1.62.11c-.13,0-.22-.17-.32-.27s-.08-.16-.14-.22a.37.37,0,0,1-.11-.44c.11-.35.19-.71.31-1.06a4.52,4.52,0,0,1,1-1.59c.27-.28.56-.54.85-.8s.78-.72,1.18-1.06S4,16.2,4.32,16s.28,0,.37.09,0,.22-.1.27c-.24.2-.51.35-.76.54a6.28,6.28,0,0,0-.54.49c-.38.39-.75.8-1.13,1.2a4,4,0,0,0-.67.69,14.77,14.77,0,0,0-.63,1.47c0,.11-.06.22-.09.33a.5.5,0,0,0,.37.64,1.36,1.36,0,0,0,1-.16c.74-.4,1.46-.84,2.18-1.28l1.37-.85,0,0c.13-.39.54-.49.8-.73-.35-.28-.72-.53-1-.83a2.84,2.84,0,0,1-.6-1.73c-.12-.73-.23-1.46-.31-2.19-.06-.52-.07-1.05-.11-1.58s-.12-.85-.14-1.28c0-.25,0-.49,0-.74a2.86,2.86,0,0,0-.24-1.39.65.65,0,0,0-.37-.28.9.9,0,0,1-.66-.91c0-.62.08-1.25.18-1.87a9.38,9.38,0,0,1,.37-1.28A1.19,1.19,0,0,1,4.05,4a1.64,1.64,0,0,1,.79-.23c.4-.11.48-.15.52-.56a2,2,0,0,1,1-1.54c.23-.13.41-.33.62-.46a.69.69,0,0,1,.35-.07H8.43l.5,0,2.7,0,.93,0a12.23,12.23,0,0,1,1.59.25c.38.05.76.06,1.14.1.74.08,1.47.17,2.21.24l3.16.28,3.16.28c.42,0,.85.14,1.27.2s.6.08.9.09a4.28,4.28,0,0,1,1.94.63,2.34,2.34,0,0,1,.58.73c.14.23.22.5.35.74a.63.63,0,0,0,.26.22,4.51,4.51,0,0,0,1.05.44A5.62,5.62,0,0,0,32,5.44a1.55,1.55,0,0,0,.88-.55c.32-.33.6-.71.91-1a.8.8,0,0,1,.4-.2,11.31,11.31,0,0,1,2.53-.18c.39,0,.8,0,1.2.06.21,0,.41,0,.62,0,.41,0,.82,0,1.22,0,1,.09,2,.22,3,.31s2.22.15,3.33.24c.6.05,1.2.14,1.8.21s1,.08,1.52.14,1,.17,1.44.26a16,16,0,0,1,1.85.41A1.63,1.63,0,0,1,54,6.4a6.46,6.46,0,0,0,.34,1.29.6.6,0,0,0,.51.39,4.68,4.68,0,0,1,.67.12.4.4,0,0,1,.24.22,1.08,1.08,0,0,1,.12.5c0,.56,0,1.11-.09,1.67a1.32,1.32,0,0,1-.08.3c-.42,0-.42,0-.38-.44s0-1.07.06-1.61c0-.19-.12-.25-.29-.28a3,3,0,0,1-.59-.13,1,1,0,0,1-.68-.86,6.56,6.56,0,0,0-.43-1.47,1.08,1.08,0,0,0-.58-.49,7,7,0,0,0-2-.43c-.61,0-1.22-.18-1.83-.25s-1.22-.12-1.84-.18c-.07,0-.14,0-.22-.06a7.94,7.94,0,0,0-1-.18c-.31,0-.62,0-.93,0s-.88-.06-1.31-.1A6.26,6.26,0,0,1,42.7,4.3a9.42,9.42,0,0,0-1.06,0c-.67-.09-1.35-.17-2-.23A10.44,10.44,0,0,0,37.69,4c-.67.08-1.32,0-2,0-.44,0-.88.09-1.32.15s-.33.34-.51.51c-.39.35-.75.74-1.14,1.09a1.15,1.15,0,0,1-.86.21,4.3,4.3,0,0,1-.95-.06,9.56,9.56,0,0,1-1.06-.24,4.5,4.5,0,0,1-1.05-.47,2.11,2.11,0,0,1-.53-.68,3.24,3.24,0,0,0-.79-1.06,2.21,2.21,0,0,0-1-.37c-.67-.1-1.34-.21-2-.3-.43,0-.87-.06-1.3-.1l-2.05-.25c-.22,0-.44,0-.66,0l-1.65-.14L16.41,2A2.07,2.07,0,0,1,15.79,2a12.11,12.11,0,0,0-1.9-.29,6.5,6.5,0,0,0-1.25-.18c-.47,0-1,0-1.42,0h-.48l-1.66,0c-.26,0-.53-.05-.79-.05s-.52,0-.77.05a2,2,0,0,0-1.2.71A1.73,1.73,0,0,0,5.91,3c-.08.21-.08.47-.15.69a.48.48,0,0,1-.2.29,7.36,7.36,0,0,1-.92.25c-.19,0-.36.12-.42.31A9.41,9.41,0,0,0,4,5.42c-.11.52-.21,1-.3,1.58,0,.27,0,.55-.07.83,0,0,0,.13.06.15.2.12.41.21.59.34a.88.88,0,0,1,.37.37,3.6,3.6,0,0,1,.26,1.72,6.81,6.81,0,0,0,0,1.1c0,.71.05,1.43.11,2.14a4.45,4.45,0,0,0,.21,1.2c.24.62.11,1.28.29,1.91a1.72,1.72,0,0,0,1,1.25c.29.11.53.34.82.47a5.62,5.62,0,0,0,1.4.53,11,11,0,0,1,1.11.35c.33.1.66.16,1,.25.51.13,1,.28,1.52.39s.85.11,1.27.18l1,.18.24,0,1.57.17a5.82,5.82,0,0,0,.59,0c.63,0,1.27,0,1.91,0s1-.1,1.49-.12.73,0,1.1,0a4.56,4.56,0,0,0,2.3-.73c.37-.26.68-.61,1-.91a4.88,4.88,0,0,0,.89-1.13,6.22,6.22,0,0,0,.32-.56c.25-.55.5-1.09.73-1.64.37-.87.74-1.74,1.07-2.63.26-.72.47-1.46.7-2.19.14-.46.23-.93.4-1.37a3.55,3.55,0,0,1,.53-.71,1.34,1.34,0,0,1,.21-.2A1.85,1.85,0,0,1,31,8a1.78,1.78,0,0,1,1,.35.52.52,0,0,1,.18.3,6.83,6.83,0,0,1,.08,1.5,25,25,0,0,0-.09,2.6c0,.75,0,1.51.06,2.26s.06,1.37.08,2.05a4.78,4.78,0,0,0,.43,2.21,2.6,2.6,0,0,0,1.08,1.17c.3.15.56.37.86.52a6.94,6.94,0,0,0,1.09.45,11.68,11.68,0,0,0,2.28.38c.73.08,1.45.27,2.17.39.27,0,.54,0,.81,0s.73.07,1.09.08l2,.06c.34,0,.68,0,1,0s.93,0,1.39-.1A2,2,0,0,0,47.2,22c.41-.23.81-.48,1.21-.74a6.28,6.28,0,0,0,1.92-1.92,7.69,7.69,0,0,0,.76-1.55,17.82,17.82,0,0,0,.61-2.25c.16-.73.28-1.47.47-2.19.11-.43.31-.83.46-1.25a2.34,2.34,0,0,1,.44-.74.76.76,0,0,1,.69-.26c.27,0,.56,0,.83,0s.56-.12.81.09c.05,0,.12.17.1.19s-.16.19-.25.19a5.3,5.3,0,0,1-1.26,0c-.37-.08-.51.09-.71.31a2.88,2.88,0,0,0-.47,1c-.08.22-.15.43-.22.64s-.11.42-.15.64c-.19.88-.36,1.77-.57,2.65-.06.27-.21.53-.3.8s-.14.55-.26.81a10.56,10.56,0,0,1-.56,1q-.26.41-.54.78a3.75,3.75,0,0,1-.44.45l-.86.71c-.23.19-.46.39-.71.57a3.34,3.34,0,0,1-.62.33,5.37,5.37,0,0,1-1.08.39,11.61,11.61,0,0,1-1.67.07c-.62,0-1.23,0-1.85-.05l-1.81-.05A17.54,17.54,0,0,1,39,22.39c-.42-.06-.84-.13-1.26-.22s-.63,0-.95-.12-.58-.09-.86-.17a8,8,0,0,1-1.3-.47,6.86,6.86,0,0,1-1.28-.76A3.36,3.36,0,0,1,32,18.57a15.61,15.61,0,0,1-.23-2.72c0-.51,0-1,0-1.52,0-.16,0-.3-.29-.25s-.46-.14-.69-.13a4.15,4.15,0,0,1-1.32-.35,10.86,10.86,0,0,1-1.28-.31Zm3.48-1.14c.06-.77.15-1.55.19-2.34A4.76,4.76,0,0,0,31.74,9a.52.52,0,0,0-.46-.49,1.87,1.87,0,0,0-1.06.12,1.74,1.74,0,0,0-.78.81,3.63,3.63,0,0,0-.21.66c0,.1-.1.2-.13.3-.12.46-.23.91-.35,1.36-.08.3,0,.38.3.33a4,4,0,0,1,.6,0c.36,0,.72,0,1.08.05l.9.07Zm.13,1.7c0-.13,0-.21,0-.29,0-.32-.05-.64-.05-1s0-.24-.25-.18a1.49,1.49,0,0,1-1,.08h-.09a4.5,4.5,0,0,1-.63.07l-.87-.06-.34,0-.07.18c0,.09,0,.18-.05.25a22.79,22.79,0,0,1,3.4,1Z" transform="translate(-0.17 -1.03)"/><path d="M6,11.06c0-.12,0-.23,0-.35A23.48,23.48,0,0,1,6.13,6.6c0-.32,0-.64,0-1s.13-.52.16-.78a2.05,2.05,0,0,1,.6-1.11,3.09,3.09,0,0,1,.87-.5c.36.21.73,0,1.09,0A11.27,11.27,0,0,0,10,3.1a1.86,1.86,0,0,1,.33,0c.48,0,1,.06,1.44.06s1,0,1.45,0c.27,0,.54.07.81.09s.63,0,1,0c.71,0,1.42.07,2.13.13s1.42.15,2.12.25,1.3.23,2,.32,1.49.15,2.23.26a13.7,13.7,0,0,1,1.54.35A5.66,5.66,0,0,1,26.29,5a1.27,1.27,0,0,1,.75.77,1.69,1.69,0,0,0,.17.36,2.48,2.48,0,0,1,.14,1.52c-.09.53-.23,1.06-.35,1.59s-.27,1.09-.42,1.64a4.39,4.39,0,0,1-.21.44c-.21.43-.43.87-.64,1.31-.1.24-.18.48-.29.72-.2.47-.43.93-.63,1.4s-.35,1-.58,1.42a15.51,15.51,0,0,1-.85,1.41,3.56,3.56,0,0,1-.65.84c-.51.41-.89,1-1.66,1l-.1,0c-.55,0-1.11.06-1.67.06-.3,0-.6-.09-.9-.12-.49-.05-1-.08-1.49-.14s-.93-.13-1.4-.16a20,20,0,0,1-2.76-.41c-.44-.09-.88-.13-1.32-.23a3.69,3.69,0,0,1-1.28-.45,2.26,2.26,0,0,0-.52-.17,5.49,5.49,0,0,1-2.22-1.52A5.89,5.89,0,0,1,6.54,15a5.31,5.31,0,0,1-.37-1.86c-.08-.6-.12-1.21-.17-1.81a1.48,1.48,0,0,1,0-.21Zm3.37,6.2a1.42,1.42,0,0,0,.23.14c.25.09.51.14.74.25a5.12,5.12,0,0,0,1.67.5c.41.07.83.11,1.25.17.83.12,1.65.26,2.48.37.47.06,1,.08,1.43.13s.66.1,1,.16a3.85,3.85,0,0,0,.49.07c.59,0,1.18,0,1.77,0a2.36,2.36,0,0,0,1-.19,1.4,1.4,0,0,0,.32-.28c.1-.1.19-.23.29-.34.25-.26.52-.5.75-.78a4.49,4.49,0,0,0,.53-.76,14,14,0,0,0,.73-1.38c.26-.59.45-1.22.71-1.82s.6-1.28.9-1.92a4.22,4.22,0,0,0,.33-.72c.18-.56.33-1.14.49-1.7a7.87,7.87,0,0,0,.37-1.86,1.71,1.71,0,0,0-1.27-2c-.32-.1-.62-.26-.93-.39a.58.58,0,0,0-.23,0,.54.54,0,0,1-.18,0,3.78,3.78,0,0,0-.56-.13c-.66,0-1.3-.27-2-.26a7.75,7.75,0,0,1-1.27-.17c-.88-.13-1.75-.29-2.63-.41s-1.51-.18-2.27-.21a11.29,11.29,0,0,0-1.84-.08,9.22,9.22,0,0,1-1.57-.07H10.9q-.78,0-1.56.09c-.42,0-.84.1-1.26.14-.14,0-.3-.06-.43,0a.81.81,0,0,0-.37.27,2.26,2.26,0,0,0-.5.67,3.85,3.85,0,0,0-.15,1c0,.33,0,.66,0,1,0,.72-.12,1.45-.18,2.17,0,.14,0,.19.19.2A13.22,13.22,0,0,1,8,9.24c.68.13,1.36.29,2,.43.24.05.48.13.72.16s.65.18.94-.05a9.94,9.94,0,0,1,1.9-1c.19-.1.45,0,.65-.14.49-.21,1,0,1.46,0,.24,0,.49,0,.73,0,.46,0,.92,0,1.38-.07.3,0,.59,0,.89-.06s.7-.11,1.05-.16c.15,0,.31,0,.51-.06a1,1,0,0,0-.11-.11l-1.1-.26c-.2,0-.39-.15-.59-.18-.59-.1-1.2-.14-1.79-.25-.92-.16-1.84-.35-2.76-.54-.62-.12-1.24-.26-1.85-.4-.2,0-.38-.11-.57-.14s-.46,0-.68-.08a4.37,4.37,0,0,0-1.4-.23A1.79,1.79,0,0,1,8.92,6L8,5.79a8.48,8.48,0,0,0-.83-.22A.21.21,0,0,1,7,5.29a.36.36,0,0,1,.24-.21c.1,0,.22,0,.33.06a17.38,17.38,0,0,0,1.87.42c.65.1,1.28.24,1.92.37l1.47.29,1.71.32c.59.11,1.17.25,1.77.36l1,.15c.28,0,.55.12.82.17a5.75,5.75,0,0,1,1.43.28c.12.06.26.06.39.11.31.11.62.25.93.37a1.73,1.73,0,0,0,.52.16,11.13,11.13,0,0,0,1.15-.09c.59-.05,1.17-.13,1.76-.18s1.12,0,1.68-.06.56,0,.73.27a.48.48,0,0,1-.16.08,7.76,7.76,0,0,1-2.45.23,10.29,10.29,0,0,0-1.23.14c-.44,0-.88.08-1.33.1-.24,0-.49,0-.73,0-.43,0-.86.15-1.29.19-.7.08-1.4.12-2.1.17l-.6,0c-.5,0-1,0-1.49,0a3,3,0,0,0-1.77.24,13,13,0,0,1-1.19.57c-.14.07-.3.15-.28.36a.14.14,0,0,1-.09.09,1.12,1.12,0,0,0-.63.27,11.07,11.07,0,0,0-1,.76c-.47.42-.9.9-1.36,1.34s-1,.9-1.45,1.35a2.5,2.5,0,0,1-.33.32.5.5,0,0,0-.11.82c0,.06.14.11.14.17a.86.86,0,0,0,.33.54c.43.44.9.83,1.32,1.2l.84-.69A2.25,2.25,0,0,0,10.2,16a5,5,0,0,1,1-.9c.25-.2.54-.35.8-.54s.67-.56,1-.81.94-.67,1.42-1a2.07,2.07,0,0,1,.65-.32c.54-.12,1.1-.2,1.65-.29S17.6,12,18,12s.92-.06,1.37-.11c.82-.09,1.64-.22,2.46-.3.64-.06,1.29-.07,1.93-.11.26,0,.52-.08.77-.07s.46-.09.55.23l-.26.09a2.67,2.67,0,0,1-1.18.19l-.05,0a7.42,7.42,0,0,1-1.56.14,4.1,4.1,0,0,0-.5,0v.09c.3.06.61.14.92.18s.61.05.92.1.7.16,1,.25c.06,0,.13.08.13.13s0,.15-.1.15a2.68,2.68,0,0,1-.63,0c-.41,0-.82-.11-1.23-.18a12.35,12.35,0,0,1-1.37-.3c-.1,0-.48,0-.32-.38-.4,0-.78.07-1.15.12s-1,.12-1.45.18l-1.26.14-1.26.19a1.07,1.07,0,0,0-.4.1c-.32.16-.62.34-.93.53a11.94,11.94,0,0,0-1.67,1.17,2.67,2.67,0,0,1-.57.43,10.07,10.07,0,0,0-1.63,1.2c-.29.22-.53.5-.8.75-.1.09-.23.17-.38.28ZM6.81,14c.54-.49,1-1,1.57-1.42a13.89,13.89,0,0,0,1.5-1.47,1.37,1.37,0,0,1,.29-.25l.77-.54L8.86,10l-.64-.15-.65-.17-1-.22c-.13,0-.23,0-.22.12,0,.44,0,.88.08,1.33s.07,1,.1,1.44,0,.76.07,1.14a3,3,0,0,0,.16.54Z" transform="translate(-0.17 -1.03)"/><path d="M52.1,9.84c-.14.5-.31,1.06-.46,1.63-.1.36-.19.71-.29,1.06s-.25.8-.36,1.2c-.17.58-.32,1.16-.49,1.73-.08.31-.19.62-.29.92s-.27.88-.46,1.29-.56,1-.83,1.52a3.79,3.79,0,0,0-.33.67A2,2,0,0,1,47.44,21a2.73,2.73,0,0,1-.85.22c-.63.08-1.27.13-1.91.19a4.51,4.51,0,0,1-.52,0,5.64,5.64,0,0,1-1.48,0c-.18-.05-.4.07-.6.06-.42,0-.85-.08-1.27-.11-.21,0-.42,0-.63-.05-.38-.06-.76-.14-1.14-.21s-.58-.06-.86-.13-.76-.21-1.13-.33l-.84-.31a1.4,1.4,0,0,1-.3-.15c-.43-.28-.95-.44-1.23-.91a4.78,4.78,0,0,1-.38-.79c-.12-.31-.19-.64-.3-.95a8.53,8.53,0,0,1-.42-3.75,6,6,0,0,0,0-.85c0-.39,0-.78,0-1.17s0-1.06,0-1.59.12-1,.19-1.55a4.06,4.06,0,0,1,.13-.85,2.76,2.76,0,0,1,.85-1.51c.16-.56.65-.35,1-.41a11,11,0,0,1,1.41-.1c.19,0,.38,0,.58,0l2,0c.32,0,.64,0,1,0a5.3,5.3,0,0,1,.69,0q1,0,2,.12c.7,0,1.39.11,2.08.18.47.06.94.15,1.41.22.66.1,1.33.17,2,.3a10.72,10.72,0,0,1,2.39.67,1.38,1.38,0,0,1,.49.55,4.29,4.29,0,0,1,.35,2ZM34,12.72a3.87,3.87,0,0,1,0,.47c0,.41-.06.83,0,1.24a10.44,10.44,0,0,0,.38,2.72c.18.49.37,1,.53,1.47a1.62,1.62,0,0,0,.64.83,5.08,5.08,0,0,0,1,.47,7,7,0,0,0,1.51.47c.54.08,1.07.27,1.61.33.92.12,1.84.19,2.76.24.48,0,1-.05,1.44,0a4.14,4.14,0,0,0,.6-.09c.61-.06,1.21-.11,1.82-.15A3,3,0,0,0,48,20a1,1,0,0,0,.23-.3c.33-.67.64-1.33,1-2a.3.3,0,0,0,0-.21,5.45,5.45,0,0,1-1-1.55s-.06,0-.08-.07a5.86,5.86,0,0,1-.42-.44,5.74,5.74,0,0,0-.65-.74,6.72,6.72,0,0,0-1.92-.89l-1.22-.4-1-.34L42,12.8a5.51,5.51,0,0,0-1.12-.26,10.79,10.79,0,0,0-1.39.07c-.24,0-.48,0-.71,0-.42,0-.83.13-1.25.17s-1,0-1.49,0c-.29,0-.57,0-.85,0A1.88,1.88,0,0,1,34,12.72ZM34,12.41h.48c.21,0,.43-.05.65-.05.42,0,.84,0,1.26,0s.91,0,1.36-.06l1.2-.12c.39,0,.78-.12,1.18-.15C40.73,12,41.36,12,42,12c.43,0,.86,0,1.29,0,.6,0,1.21,0,1.81,0s1.33-.05,2-.06h1.55l.95,0H51c.09-.33.18-.6.24-.87a11,11,0,0,0,.29-1.23,2.68,2.68,0,0,0-.2-1.67.83.83,0,0,0-.53-.47c-.06,0-.12-.05-.19-.07-.35-.11-.7-.23-1.06-.32s-.46-.07-.68-.12a10.83,10.83,0,0,0-1.09-.27c-.56-.08-1.13-.1-1.69-.17s-1-.15-1.54-.23a5,5,0,0,0-.66-.11c-.61,0-1.23,0-1.84-.06l-1.41-.06h-.18L39,6.25c-.46,0-.91,0-1.37,0a1.94,1.94,0,0,0-.54,0,3.35,3.35,0,0,1-.71,0,2.57,2.57,0,0,0-.62,0,2.36,2.36,0,0,0-.77.4,2,2,0,0,0-.68,1.42,5.29,5.29,0,0,0-.05.56,3.43,3.43,0,0,1,.5-.08c.3,0,.6,0,.9,0l2.75,0h1.75c.5,0,1,0,1.48,0s1.15-.1,1.73-.11c.77,0,1.55,0,2.32,0,.2,0,.4.05.6.05.42,0,.83,0,1.25,0s.69,0,1,0c.7,0,1.4.06,2.1.12.1,0,.2.17.26.28s-.09.2-.14.2a3.76,3.76,0,0,1-.67,0c-.24,0-.46-.1-.69-.12s-.64,0-1,0a2.79,2.79,0,0,1-.91,0,1.71,1.71,0,0,0-.6,0l-.9,0-.85,0H43.81a5.63,5.63,0,0,0-.71,0c-.49.06-1,.18-1.46.21-.71,0-1.42,0-2.13,0l-.78,0c-.49,0-1,0-1.47,0-.12,0-.23-.06-.35-.06s-.44,0-.65,0a10.14,10.14,0,0,0-1.35,0c-.23,0-.53.12-.75-.23a20.15,20.15,0,0,0-.18,3.6Zm15.36,4.53A22.38,22.38,0,0,0,50.8,12.4l-8,0a1,1,0,0,0,.36.16c.41.14.81.31,1.22.44s.82.22,1.22.36A12.5,12.5,0,0,1,47,14a5,5,0,0,1,1.4,1.38,16,16,0,0,1,1,1.53Z" transform="translate(-0.17 -1.03)"/><path d="M51.21,18.91a1.42,1.42,0,0,1,.69.5,4.91,4.91,0,0,0,.7.66c.24.23.46.48.69.73a6.88,6.88,0,0,1,.64.69A3.87,3.87,0,0,1,54.5,23c.1.47.25.93.33,1.4a1.07,1.07,0,0,1-.08.61c-.12.24-.11.57-.4.72a1.18,1.18,0,0,1-.36.17,2.55,2.55,0,0,1-1.81-.47,7.87,7.87,0,0,1-1.11-1c-.33-.35-.74-.62-1-1s-.71-.65-.83-1.14c0-.1-.09-.22,0-.25a.41.41,0,0,1,.34.08c.28.31.53.66.8,1s.47.52.72.76c.41.38.82.77,1.26,1.11a1.8,1.8,0,0,0,1.55.37c.18,0,.22-.16.28-.33a1.55,1.55,0,0,0,0-1.16,3,3,0,0,1-.17-.84,2.88,2.88,0,0,0-.67-1.47c-.29-.35-.62-.67-.94-1l-1-1a.15.15,0,0,0,0-.06c-.34-.1-.28-.33-.21-.59Z" transform="translate(-0.17 -1.03)"/><path d="M40.88,15.77a12.57,12.57,0,0,0-1.28-.4c-.62-.13-1.25-.19-1.87-.29l-2-.32a3.38,3.38,0,0,0-.45,0,5.73,5.73,0,0,1-.7-.13s-.09-.14-.08-.21.08-.11.15-.13a2.24,2.24,0,0,1,1.06,0c.34,0,.67.12,1,.16.63.08,1.28.11,1.91.23s1.29.34,1.94.51c.35.08.7.13,1,.23a8.45,8.45,0,0,1,1.32.42c.54.25,1.06.56,1.59.85.05,0,.08.11.12.16.29.26.58.52.85.79s.56.64.84.95c.11.12.24.22.34.34s.3.44.46.65.18.13.21.21,0,.21,0,.32-.3,0-.38-.07a6.48,6.48,0,0,1-.6-.68l-.8-1c-.18-.21-.38-.4-.57-.59a4.24,4.24,0,0,0-1.33-1.05c-.28-.13-.54-.31-.83-.42s-.71-.21-1.06-.33-.56-.2-.84-.31l0,.06Z" transform="translate(-0.17 -1.03)"/></g></g></svg>