<svg xmlns="http://www.w3.org/2000/svg" viewBox="0 0 71.66 57.12"><title>アセット 7512px</title><g id="レイヤー_2" data-name="レイヤー 2"><g id="レイヤー_1-2" data-name="レイヤー 1"><path d="M11.58.14c.35,0,.72.17,1,.06A7.79,7.79,0,0,1,14.08.06a10,10,0,0,1,1.45,0l2.64.06c.62,0,1.24,0,1.85,0,.35,0,.69.08,1,.09s.6,0,.9,0,.75.07,1.13.11l.39,0L25,.49l.77.06c.31,0,.63.07.94.12s.48.08.72.13a6,6,0,0,0,1.07.26c.7.05,1.37.26,2,.37l.39.06,2.29.4a3.05,3.05,0,0,1,.51.17,8.36,8.36,0,0,0,.83.32c.35.11.72.17,1.08.25l.52.14c.41.12.82.26,1.23.37s.69.15,1,.24.79.23,1.17.37A2.18,2.18,0,0,1,40,4a4.91,4.91,0,0,0,.59.33c.08,0,.2,0,.3,0l.22,0h.38c.23,0,.46,0,.69,0s.5,0,.74,0a5.17,5.17,0,0,1,.68,0c.33,0,.67.07,1,0a4.84,4.84,0,0,1,.94.12c.45,0,.89.1,1.34.14s1,.08,1.47.12a.94.94,0,0,1,.28.06c.44.15.93.11,1.37.23a14.21,14.21,0,0,0,1.46.19c.65.11,1.32.18,2,.26l1.47.16.91.11A8.46,8.46,0,0,1,57.22,6a14.41,14.41,0,0,0,1.69.26c.51.11,1,.3,1.51.44s.79.18,1.17.3.82.3,1.23.45l.63.21,1.17.43,2,.71c.32.12.65.22,1,.33l1.63.59c.21.07.43.13.63.22a.68.68,0,0,1,.26.22s-.1.13-.11.2,0,.23.06.24.13.14.08.26-.15.49-.22.74a9,9,0,0,0-.24.93c-.11.52-.19,1-.3,1.57s-.18.93-.28,1.39-.2.88-.3,1.32-.22,1-.32,1.47c-.15.67-.27,1.35-.44,2s-.31,1.15-.48,1.73-.36,1.28-.55,1.92l-.45,1.66c-.18.62-.35,1.23-.52,1.84l-.36,1.24c-.06.2,0,.23.19.2a1,1,0,0,1,.49.06,10.21,10.21,0,0,0,1.55.25c.34.08.68.17,1,.23s.67.08,1,.15a1.68,1.68,0,0,1,1.23.67c.14.24.34.45.47.69a1.62,1.62,0,0,1,.16.57,6.57,6.57,0,0,1,0,1.17,2.81,2.81,0,0,1-.29.7,2,2,0,0,1-.78.88,1.6,1.6,0,0,1-1.1.26l-.68,0a3.94,3.94,0,0,1-.69,0c-.53-.08-1.06-.17-1.59-.28-.36-.08-.71-.21-1.07-.3a4.72,4.72,0,0,0-.64-.1c-.19,0-.37-.29-.28-.46s.15-.08.23-.07c.82.17,1.64.41,2.48.53s1.75.14,2.62.23a.75.75,0,0,0,.63-.29,2.19,2.19,0,0,0,.65-2.36,3.94,3.94,0,0,0-.61-.93.78.78,0,0,0-.42-.22c-.28-.08-.58-.11-.86-.18-.49-.11-1-.24-1.47-.34s-.78-.12-1.17-.19l-1.28-.22c-.06.25-.12.54-.2.82l-.58,2c-.19.65-.38,1.3-.56,2-.09.34-.13.68-.21,1l-.36,1.52c-.19.8-.36,1.6-.56,2.4-.13.51-.32,1-.47,1.53-.1.34-.18.69-.27,1s-.22.78-.31,1.18c-.14.65-.26,1.31-.39,2,0,.23-.12.46-.18.69-.15.63-.31,1.25-.46,1.88l-.3,1.3c-.13.51-.27,1-.39,1.53a12.49,12.49,0,0,1-.37,1.52,14.74,14.74,0,0,0-.39,1.59c-.13.59-.34,1.17-.5,1.76-.05.2,0,.42-.08.62-.1.41-.21.82-.33,1.22,0,0-.08.05-.12.07s-.16,0-.18.1c-.09.29-.27.19-.45.11a1.7,1.7,0,0,0-.31-.06l-1.38-.25-.7-.12-2-.38a6,6,0,0,1-1-.17c-.57-.19-1.16-.22-1.72-.45a3.68,3.68,0,0,0-.89-.13c-.17,0-.34-.06-.51-.09L46.83,55l-1.23-.21-1.84-.38c-.39-.09-.77-.21-1.17-.29-.56-.1-1.13-.15-1.68-.27s-1.25-.33-1.88-.47c-.29-.06-.55-.18-.82-.25s-.72-.1-1.07-.16-.4-.09-.59-.13c0,0-.07,0-.11,0a.33.33,0,0,1-.19,0,1,1,0,0,0-.81,0c-.41.14-.82.27-1.22.42-.12,0-.21.16-.33.2l-1.15.43a5.88,5.88,0,0,1-.71.23,10.62,10.62,0,0,1-1.36.2c-.37,0-.73-.1-1.1-.09a1.64,1.64,0,0,1-1-.44,4.23,4.23,0,0,1-1.07-1.12c-.28-.42-.61-.83-.93-1.22a.49.49,0,0,0-.33-.11c-.47,0-.95-.08-1.43-.12h-.16c-.11,0-.25.05-.34,0-.32-.16-.63,0-.94,0s-.72-.07-1.07-.11c-.15,0-.31,0-.46,0C21.23,51,20.63,51,20,50.92l-1.17-.14-1.11-.07c-.2,0-.39-.08-.59-.11s-.62-.05-.93-.11-.66-.17-1-.24L13.87,50c-.4-.09-.8-.21-1.2-.31-.14,0-.28,0-.42-.06-.69-.13-1.38-.24-2.08-.38-.43-.09-.85-.22-1.28-.31s-.83-.14-1.24-.22c-.21,0-.41-.1-.61-.13l-.68-.12-1.52-.27c-.51-.1-1-.2-1.54-.28-.24,0-.49,0-.74-.05a1.92,1.92,0,0,1-.31-.11,6.46,6.46,0,0,0-.76-.18,3.71,3.71,0,0,0-.47,0H.48a.27.27,0,0,1-.31-.33c0-.43.12-.85.19-1.27a2.19,2.19,0,0,1,0-.36c.08-.48.16-1,.26-1.45s.24-.77.33-1.16.12-.78.2-1.16.22-.93.31-1.39.14-.86.22-1.29c.12-.68.24-1.37.38-2.06.08-.38.21-.74.3-1.12,0-.21,0-.44.09-.65s.16-.55.22-.82c.13-.57.25-1.15.38-1.72.17-.77.36-1.55.54-2.32a21.73,21.73,0,0,1,.52-2.15c.13-.37.14-.74.24-1.1.19-.65.4-1.3.56-2,.2-.83.37-1.67.56-2.51.15-.65.31-1.3.5-1.93.09-.31.28-.59.38-.9s.1-.63.19-.93a15.12,15.12,0,0,1,.49-1.62,5.5,5.5,0,0,0,.24-1c.11-.45.23-.91.34-1.36A12.25,12.25,0,0,1,8,13.57c.16-.49.18-1,.3-1.48s.21-.79.3-1.19a1.76,1.76,0,0,0,.07-.45,2.21,2.21,0,0,1,.23-.94,6.85,6.85,0,0,0,.16-1,2.14,2.14,0,0,1,.29-1c0-.06,0-.17,0-.26.09-.37.19-.74.29-1.11a2.82,2.82,0,0,0,.07-.31c.06-.28.1-.56.18-.84s.19-.34.25-.53c.19-.58.36-1.16.55-1.74.08-.24.22-.47.3-.72s.13-.58.22-.86.25-.63.37-.95Zm.21.4a6.6,6.6,0,0,0-.26.63c-.17.47-.32.94-.47,1.41-.07.23-.14.46-.22.69-.13.41-.28.81-.41,1.22s-.21.61-.3.91-.14.48-.2.73-.27.52-.07.81c0,0,0,.11,0,.16L9.5,8.37c0,.1,0,.22,0,.32-.14.66-.29,1.31-.43,2s-.27,1.48-.44,2.22S8.24,14.3,8.07,15c-.11.41-.18.83-.29,1.25-.07.26-.19.51-.26.78-.13.49-.24,1-.36,1.5l-.39,1.54-.06.17c-.18.52-.37,1-.52,1.54s-.19.9-.29,1.35-.28,1.09-.41,1.64-.17.83-.28,1.24c-.16.58-.36,1.16-.52,1.74s-.25,1-.38,1.55c0,.15-.1.29-.13.44-.09.5-.16,1-.26,1.52s-.27,1.2-.41,1.81c0,.18-.09.37-.14.55-.11.41-.24.83-.33,1.25-.14.6-.24,1.2-.37,1.81s-.29,1.06-.37,1.6a19.22,19.22,0,0,1-.38,2.12c-.17.66-.22,1.35-.34,2-.07.42-.16.84-.26,1.26,0,.12-.13.22-.15.33-.07.41-.1.83-.17,1.25S.79,46.39.68,47l1,.16L3,47.39c.24,0,.48,0,.72.1s.71.17,1.06.24.5,0,.75.08l2.13.45c.65.14,1.29.25,1.94.38L11.3,49l1.13.22c.49.09,1,.17,1.46.27.15,0,.3.1.45.13s.51.07.77.11l1.17.23c.29.06.59.06.88.14a12,12,0,0,0,1.47.16c.17,0,.32,0,.48,0,.33,0,.65.11,1,.15s.88.07,1.31.11c.61.07,1.22.16,1.83.21s1,0,1.47,0c.22,0,.45,0,.67.07l1.22.12h0c.21-.13.28,0,.35.18a2.4,2.4,0,0,0,.17.4,14.74,14.74,0,0,0,1.05,1.41,2.1,2.1,0,0,0,1.24.83,2.54,2.54,0,0,0,.47.07c.47,0,.95,0,1.42,0a1,1,0,0,0,.38-.06c.41-.14.8-.3,1.2-.46l1.68-.69a2.08,2.08,0,0,1,1-.28s.09,0,.13,0a.71.71,0,0,1,.16,0l1.51.27c.24,0,.48.08.72.14s.51.17.77.23l1.33.29,1.51.35.89.15c.2,0,.4.11.6.14s.61,0,.9.11.83.2,1.24.29.84.18,1.26.26c.65.13,1.3.27,2,.39.38.06.76.1,1.14.17l1.56.31c.44.08.87.15,1.3.24s.78.21,1.18.29c.85.16,1.71.29,2.56.47a10.59,10.59,0,0,0,1.68.22,1,1,0,0,1,.18,0c.07-.31.15-.62.22-.93.2-.88.38-1.76.6-2.64.16-.68.37-1.35.55-2,.08-.32.11-.65.2-1,.16-.59.36-1.17.52-1.76s.25-1.06.37-1.59c.18-.75.37-1.48.54-2.23.12-.56.21-1.13.33-1.69s.29-1.43.49-2.14c.1-.36.29-.69.37-1.07.13-.62.31-1.22.46-1.83.08-.32.13-.64.21-1s.26-.91.37-1.37.24-1.1.37-1.65c.06-.23.16-.44.22-.67.18-.65.34-1.31.51-2s.28-1,.42-1.5.24-1,.38-1.44c.24-.79.5-1.57.75-2.36.12-.4.2-.82.33-1.22.17-.58.39-1.14.54-1.72s.26-1.2.41-1.8c.11-.44.25-.86.37-1.3S68,19,68,18.62a7.58,7.58,0,0,0,.19-1.16c0-.56.34-1.05.4-1.61a2.5,2.5,0,0,1,.16-.51c.11-.34,0-.71.18-1.07s.08-.71.24-1.06,0-.94.33-1.33v0a2.11,2.11,0,0,1,.22-.86c.17-.35.09-.57-.26-.71s-1-.4-1.45-.6l-.13,0a2.88,2.88,0,0,1-1-.32l-1-.38-1.22-.42a2.26,2.26,0,0,0-.22-.11c-.33-.1-.66-.18-1-.3s-.77-.33-1.16-.47c-.8-.27-1.6-.53-2.4-.77a12.11,12.11,0,0,0-1.45-.32c-.63-.11-1.26-.17-1.9-.26-.36-.05-.71-.13-1.07-.17C54.87,6.07,54.25,6,53.64,6c-.14,0-.27,0-.41,0-.48,0-1-.13-1.44-.19s-.68,0-1-.08c-.5-.06-1-.16-1.5-.24l-.77-.12c-.59-.09-1.18-.18-1.77-.25-.4,0-.8-.08-1.21-.12-.15,0-.3,0-.45-.06l-.94,0-1.49-.05c-.26,0-.53,0-.79.05s-.79,0-1.18,0a.8.8,0,0,1-.39-.14c-.12-.06-.21-.16-.33-.21a2.8,2.8,0,0,1-.61-.26,2.65,2.65,0,0,0-1.2-.44c-.55-.17-1.1-.31-1.65-.47S35.63,3.06,35.2,3s-.66-.1-1-.19-.77-.27-1.16-.39-.72-.2-1.08-.28l-1.91-.36-1.61-.29-1.15-.21-.93-.18L25.53.92c-.4-.05-.79-.13-1.19-.14A13.35,13.35,0,0,0,22.67.69a9.21,9.21,0,0,1-1.05,0H21c-.61,0-1.22-.08-1.82-.1s-1,0-1.54,0L17,.52c-.53,0-1.06-.08-1.58-.08s-1.32.08-2,.1-1.11,0-1.65,0Z" transform="translate(-0.17 -0.03)"/><path d="M31.62,41c-.19.07-.37.08-.46.18s-.51.25-.55.6c0,.2-.54.37-.82.31a.74.74,0,0,1-.39-.61.8.8,0,0,1,.33-.61.72.72,0,0,1,.48,0,.79.79,0,0,1,.26.18l1.28-.73c.28-1.19.57-2.48.87-3.79l-1,.12a1.16,1.16,0,0,0,0,.22c0,.12.09.26.05.34a1.16,1.16,0,0,1-.36.37c-.2.12-.58,0-.78-.24s-.17-.6-.22-.89c0-.12.22-.32.37-.44s.24,0,.29.14a.25.25,0,0,0,.38.15c.31-.17.66-.13,1-.27a.2.2,0,0,1,.13,0c.08,0,.21.09.23.06a.74.74,0,0,0,.16-.32c.15-.69.29-1.38.43-2.07s.27-1.11.39-1.67a.91.91,0,0,0,0-.23l-.24,0-.44.07-1,.18a1.8,1.8,0,0,1-.37,0l.18-.33-.32-.09c0-.14,0-.25,0-.37s.36-.38.55-.28a.74.74,0,0,1,.29.29c.09.14.15.23.36.18s.73-.1,1.15-.15c.13-.57.28-1.19.42-1.8l.3-1.33c.12-.52.25-1,.34-1.56,0-.25-.1-.34-.35-.29a3.84,3.84,0,0,0-.46.11.86.86,0,0,0-.33.2.71.71,0,0,1-.79,0,.75.75,0,0,1,0-.86.56.56,0,0,1,.7,0,.42.42,0,0,0,.44.12c.28,0,.55-.06.83-.11a.24.24,0,0,0,.17-.17c.1-.43.18-.87.27-1.31s.18-.77.27-1.15a1.1,1.1,0,0,0,0-.16l-.85.28a.73.73,0,0,1-.19.8.66.66,0,0,1-.4.2.5.5,0,0,1-.44-.38.9.9,0,0,1,0-.77c.08-.15.17-.18.35-.2a3.5,3.5,0,0,0,.74-.23l.89-.27.83-3.22c-.45-.15-.8.1-1.17.23,0,0-.06.13-.07.2,0,.29-.28.51-.49.44a.36.36,0,0,1-.14-.1,2.67,2.67,0,0,1-.22-.41c0-.13-.13-.34-.07-.42a.45.45,0,0,1,.42-.16c.32.11.53-.08.78-.16a3.24,3.24,0,0,1,.66-.18c.43,0,.44,0,.55-.42s.2-.75.29-1.12.23-1,.35-1.5c-.28-.07-.45.16-.66.26a.61.61,0,0,0-.38.58c0,.28-.22.47-.59.43s-.62-.3-.58-.57c0-.11.18-.22.3-.27a2.27,2.27,0,0,0,.87-.42,1.62,1.62,0,0,1,.94-.54c.27-.05.29-.17.34-.4.14-.64.34-1.26.51-1.89a2.25,2.25,0,0,0,0-.37,5.12,5.12,0,0,0-.81.1.42.42,0,0,0-.24.32.37.37,0,0,1-.32.38.71.71,0,0,1-.48-.25,1,1,0,0,1-.15-.49c0-.23.29-.53.51-.44.4.16.78,0,1.16,0,.14,0,.28,0,.47-.05l.08-.34c.09-.36.18-.72.26-1.08a2.47,2.47,0,0,0,.11-.43.51.51,0,0,0-.13-.32c-.36-.31-.75-.57-1.09-.9a6.17,6.17,0,0,0-1.24-.87c-.57-.34-1.15-.66-1.73-1a4.43,4.43,0,0,0-.84-.36c-.65-.21-1.3-.4-2-.59L30.3,5.72c-.32-.1-.63-.21-.95-.3s-.36,0-.53-.06a15.25,15.25,0,0,0-2-.44c-.34,0-.68-.1-1-.12s-.43-.07-.64-.1l-1-.1c-.63-.07-1.27-.15-1.9-.2-.15,0-.3,0-.45,0-.7-.05-1.4-.12-2.11-.16-.51,0-1-.07-1.55,0s-1.21.1-1.81.15l-1.21.11c-.21,0-.39.07-.44.33,0,.06-.14.12-.23.14a1.13,1.13,0,0,1-.32,0,.59.59,0,0,0-.63.38,9.59,9.59,0,0,0-.68,2c-.09.5-.24,1-.35,1.47A10.66,10.66,0,0,1,12.2,10a13.63,13.63,0,0,0-.31,1.67c-.12.65-.24,1.3-.37,2,0,.24-.15.46-.19.7s-.07.64-.13.95c-.18.83-.38,1.67-.56,2.51-.12.52-.23,1.05-.35,1.57s-.3,1.17-.42,1.75-.12.89-.2,1.33-.22,1-.34,1.58-.21.79-.29,1.19-.08.64-.14,1-.11.43-.15.65c-.08.41-.14.82-.23,1.23s-.21,1-.32,1.45-.26,1-.36,1.53-.25,1.27-.38,1.91c-.1.45-.22.89-.32,1.34-.15.63-.27,1.28-.43,1.9-.12.46-.31.9-.45,1.36,0,.2,0,.41-.09.62-.12.52-.27,1-.38,1.55-.15.69-.27,1.39-.41,2.09a3.1,3.1,0,0,1-.11.32,1.91,1.91,0,0,0,.33.06c.58,0,1.16,0,1.74,0s1,.07,1.44.1,1,.05,1.51.11,1,.17,1.52.24,1,.12,1.54.18l.5.06,1.76.27c.62.1,1.23.24,1.85.35s1.3.2,1.94.33,1.33.26,2,.45a14.46,14.46,0,0,1,1.67.6c.85.36,1.69.74,2.53,1.13.5.24,1,.48,1.48.76s1.12.71,1.68,1.08l.38.25c.17.1.32.18.13.41s-.33,0-.45-.06c-.32-.19-.61-.42-.92-.63s-.54-.4-.83-.57A12.22,12.22,0,0,0,26,46.66c-.44-.22-.88-.42-1.33-.62L23,45.29A2,2,0,0,0,22.2,45c-.42,0-.72-.24-1.09-.29a12.4,12.4,0,0,1-1.33-.35c-.48-.13-1-.27-1.44-.35s-1.16-.1-1.74-.19-1-.19-1.51-.29l-.82-.13c-.58-.09-1.15-.19-1.73-.26s-1.11-.06-1.66-.12-.92-.18-1.38-.25c-.24,0-.5,0-.75,0l-1.2,0c-.44,0-.87,0-1.31,0-.17,0-.31.31-.24.53s.15.16.31.14a4.36,4.36,0,0,1,1.65,0,10.22,10.22,0,0,0,1.24.13c.51.06,1,.09,1.54.17,1,.16,2,.34,2.94.54.47.09.92.25,1.38.36a3.15,3.15,0,0,0,.43,0c.67.12,1.34.23,2,.38.89.21,1.78.45,2.66.69.44.12.86.27,1.29.39.09,0,.2,0,.29,0,.62.14,1.23.28,1.84.44a13.83,13.83,0,0,1,1.68.44c.62.22,1.19.55,1.8.8a9.14,9.14,0,0,1,1.58.91,1.39,1.39,0,0,0,.58.16c.16,0,.16.15.13.25s-.07.26-.26.17a5.69,5.69,0,0,1-1.3-.66,5.87,5.87,0,0,0-1.37-.69c-.48-.22-1-.44-1.47-.63A9.8,9.8,0,0,0,24,47l-.83-.19L22,46.6c-.42-.09-.82-.2-1.23-.3l-.91-.23c-.21-.06-.4-.16-.61-.21a11.47,11.47,0,0,1-1.48-.4,5.94,5.94,0,0,0-1.08-.18c-.44-.12-.9-.18-1.35-.28l-1.86-.42c-.51-.12-1-.24-1.53-.34-.25-.05-.51-.06-.77-.09L9.73,44c-.27,0-.54-.12-.81-.15s-.54-.05-.82-.07-.79-.07-1.18-.08a7.47,7.47,0,0,0-.94.09c-.28,0-.45-.15-.38-.44s.08-.39.11-.59c0,0,0-.14,0-.14l-.72,0a1,1,0,0,1-.11-.64c.14-.5.17-1,.29-1.54s.31-1.09.46-1.64c.08-.31.14-.64.21-1s.17-.66.25-1,.19-.92.31-1.37.23-.78.35-1.17c0,0,0,0,0,0a7.78,7.78,0,0,1,.34-1.52c.09-.5.15-1,.26-1.5.14-.65.35-1.28.49-1.92.11-.49.16-1,.25-1.47s.19-.74.27-1.12c.11-.55.2-1.12.32-1.68.06-.25.18-.48.25-.73s.08-.5.12-.75c.07-.42.14-.85.22-1.27s.21-.93.31-1.39c.13-.62.25-1.23.38-1.84s.27-1.15.4-1.72.34-1.36.48-2.05.29-1.63.44-2.45c.12-.58.26-1.17.38-1.75s.24-1.19.37-1.77.25-1.09.39-1.63.28-.92.41-1.38c0-.17,0-.36.11-.53a7.77,7.77,0,0,1,.4-.82,1.33,1.33,0,0,1,.29-.29c.22,0,.48,0,.69-.22.08-.1.28-.13.44-.18a4,4,0,0,0,.59-.17,2.53,2.53,0,0,1,1.05-.15l.56,0,1,0c.49,0,1,0,1.48,0s.88.09,1.32.12c.24,0,.47,0,.7,0l.88.06.68.06.37,0,.71.09,1,.11.65,0,1.39.2c.24,0,.49,0,.73.1s.57.15.85.22l.75.17,1.74.48,1.1.29.45.13c.31.09.63.15.94.25s.55.23.82.35l.62.29.46.25L37,8a5.7,5.7,0,0,1,.61.39c.24.18.47.39.7.59l.49.4a2.61,2.61,0,0,0,.31.27.57.57,0,0,0,.35.1c.21,0,.42-.14.63-.2A12.64,12.64,0,0,1,42,9.14a6.32,6.32,0,0,1,1.74-.06c.22,0,.46-.07.69-.05a2.26,2.26,0,0,0,.72,0c.28-.06.52.06.78,0a15.3,15.3,0,0,1,2,.06c.39,0,.78.08,1.18.1s.87,0,1.3.06a4.89,4.89,0,0,1,.55,0l1.71.24a3.61,3.61,0,0,1,.64.19h.06l1.31.25c.42.08.84.14,1.25.23s.88.19,1.31.31,1,.27,1.55.44,1,.35,1.49.51c.34.11.7.18,1,.29s.5.2.76.3a2.78,2.78,0,0,0,.4.16c.53.19,1.06.37,1.59.58.23.09.42.27.64.38a2.3,2.3,0,0,0,.45.12.18.18,0,0,1,.1.09,1.27,1.27,0,0,1,.21.81c-.05.34-.07.68-.11,1,0,.18-.1.35-.13.53-.11.51-.18,1-.3,1.53-.18.71-.38,1.41-.57,2.12,0,.17-.06.34-.1.51-.13.61-.26,1.22-.4,1.83s-.24,1-.37,1.48c-.2.78-.41,1.55-.63,2.33-.16.56-.33,1.11-.49,1.67S62.13,28.5,62,29.1s-.37,1.2-.55,1.81c-.08.27-.12.56-.2.83s-.22.66-.3,1-.18.87-.27,1.3a10,10,0,0,1-.34,1.46,20.28,20.28,0,0,0-.52,2.28c-.11.43-.25.85-.36,1.28s-.2,1-.34,1.46-.34.93-.49,1.4-.22.82-.3,1.23A8.47,8.47,0,0,1,58,44.49a13,13,0,0,0-.35,1.33c-.08.3-.22.58-.3.87-.17.58-.29,1.18-.5,1.73a10.33,10.33,0,0,1-.43,1.51,3.18,3.18,0,0,0-.25.94c-.09.39-.16.78-.24,1.17-.12.59-.24,1.19-.35,1.78a.44.44,0,0,1-.53.33l-.5-.14v1c-.41-.18-.74-.33-1.07-.46,0,0-.12,0-.17,0L52,54.11l-.83-.29-1-.35c-.34-.1-.7-.18-1-.29s-.51-.2-.76-.29l-.55-.17c-.14,0-.28-.13-.43-.18l-1.23-.43a5.9,5.9,0,0,0-.6-.17l-2-.48-.37-.11-1.07-.22c-.18,0-.34-.11-.52-.15l-1.22-.28c-.58-.13-1.17-.24-1.75-.36s-1-.24-1.53-.34c-.15,0-.31,0-.47,0a11.37,11.37,0,0,0-2.18-.16c-.58,0-1.15.08-1.73.11a3.12,3.12,0,0,1-.75,0c-.18,0-.33-.18-.24-.39.43,0,.85-.08,1.28-.09.26,0,.53,0,.79,0s.65-.05,1,0c.69,0,1.38.09,2.07.18.54.07,1.08.18,1.62.29.33.07.65.19,1,.26.55.1,1.1.17,1.65.28s1.17.29,1.76.43c.25.06.52.07.76.15a11.76,11.76,0,0,1,1.4.41,7.44,7.44,0,0,0,1.08.29c.24.07.47.17.7.25.46.16.91.33,1.37.48a3.27,3.27,0,0,0,.89.18c-.1-.06-.19-.13-.29-.18s-.44-.21-.67-.29-.65-.24-1-.36c-.49-.17-1-.35-1.45-.51a8.05,8.05,0,0,1-1.21-.36,12.15,12.15,0,0,0-1.57-.55c-.35-.12-.75-.13-1.11-.23s-.92-.31-1.38-.45a3.11,3.11,0,0,0-.44-.08c-.37-.05-.75-.1-1.12-.17s-1-.22-1.48-.3-.75,0-1.12-.08c-.2,0-.4-.07-.6-.08l-1.44,0-.41.08-1.49.17-.42.07a.3.3,0,0,1-.33-.26c0-.15.11-.22.28-.24s.5-.1.75-.13.67,0,1-.08c.14,0,.27-.05.4-.05.8,0,1.61,0,2.41.11.63,0,1.25.19,1.87.28.43.07.87.12,1.29.2s.79.19,1.19.29l.88.24c.27.08.52.2.79.26s.66.09,1,.17.59.2.88.3l1.31.45,1.61.56c.39.14.78.25,1.16.4s.5.26.76.37c.43.19.85.36,1.28.53l1.66.64,1.75.65c.13,0,.26.12.41.19,0-.2.07-.3-.15-.38-.68-.24-1.34-.52-2-.78a10,10,0,0,1-1.41-.66,12.26,12.26,0,0,0-1.53-.63l-1.31-.53c-.43-.19-.86-.39-1.3-.57s-.63-.25-1-.36-.71-.26-1.07-.35c-.68-.18-1.37-.32-2-.48s-1.21-.32-1.81-.46a10.8,10.8,0,0,0-1.56-.32c-.73-.08-1.46-.08-2.19-.13-.49,0-1-.13-1.47-.15s-1,0-1.58,0H33.4a3.13,3.13,0,0,0-1.65.29,4.29,4.29,0,0,1-.5.19c-.19,0-.33-.14-.29-.36L31.29,47c.09-.39.16-.78.26-1.17a3.46,3.46,0,0,1,.17-.43l-.67-.21a.89.89,0,0,0-.09.16,11,11,0,0,1-.7,2c-.09.34-.17.68-.28,1a.37.37,0,0,1-.22.22.22.22,0,0,1-.24-.27,9.6,9.6,0,0,1,.29-1.05c.21-.6.44-1.19.67-1.79,0-.1.06-.21.11-.37a2.61,2.61,0,0,0-1.24.45.71.71,0,0,1-1,0,.51.51,0,0,1,.1-.76c.33-.23.38-.21.68.1a.28.28,0,0,0,.22.07,3.18,3.18,0,0,1,1.18-.23c.08,0,.2-.19.23-.32.2-.77.38-1.56.57-2.34.08-.33.16-.65.26-1ZM55.07,53.67a3.7,3.7,0,0,0,.17-.5c.19-.81.34-1.62.54-2.42s.45-1.68.68-2.51l.6-2.16c.16-.56.31-1.13.47-1.69.09-.32.2-.63.27-1s.16-1,.28-1.42.34-1.06.5-1.59c.1-.34.16-.69.25-1,.15-.62.32-1.24.47-1.86.1-.4.17-.81.27-1.21s.24-.82.34-1.23.13-.76.22-1.14c.21-.78.45-1.56.66-2.35.16-.6.28-1.2.44-1.8s.29-.89.41-1.34.21-.9.34-1.35.37-1.16.55-1.74.35-1.14.49-1.72.24-1.1.36-1.65.26-1.1.41-1.65.31-1.19.48-1.78a7.08,7.08,0,0,0,.25-.78c.11-.63.19-1.26.28-1.88.06-.35.13-.69.2-1a3.64,3.64,0,0,0,.13-.72.5.5,0,0,0-.23-.39,14.07,14.07,0,0,0-1.52-.72c-.75-.31-1.51-.59-2.27-.87-.44-.16-.89-.29-1.34-.43-.24-.07-.49-.11-.73-.19s-.75-.28-1.13-.39-.84-.17-1.26-.27L55,10.51c-.13,0-.25-.08-.39-.1s-.43,0-.65-.08-.63-.17-.95-.23-.47,0-.7-.07c-.44-.06-.88-.11-1.31-.21a7.84,7.84,0,0,1-1.45-.24.09.09,0,0,0-.07,0l-.43,0c-.12,0-.24,0-.36,0s-.21,0-.31,0c-.52,0-1-.11-1.55-.14s-1.16,0-1.74-.05H43.93c-.51,0-1,0-1.54.07s-.73.09-1.09.15l-.94.19a2.23,2.23,0,0,0-.64.16c-.06,0,0,.27,0,.42v0c-.15.67-.29,1.34-.42,1.93l.87,1,.5-.13c.07.3.25.5.09.81s-.42.25-.62.37c0,0-.18-.13-.18-.14.12-.19-.09-.29-.12-.43a2.17,2.17,0,0,0-.67-.91,4.43,4.43,0,0,0-.14.44c-.1.53-.15,1.07-.29,1.59-.07.28,0,.38.24.49a1.8,1.8,0,0,1,.95,1,2.71,2.71,0,0,1,.21.58.51.51,0,0,1-.44.57.37.37,0,0,1-.42-.24c-.07-.21-.21-.45,0-.66s.18-.33,0-.51-.3-.41-.59-.43c0,0,0,0-.11-.14a10.09,10.09,0,0,1-.1,1.06c-.1.56-.24,1.1-.35,1.66,0,.21-.13.49,0,.64a3.39,3.39,0,0,0,.76.8,1,1,0,0,1,.44.84.66.66,0,0,1-.56.44c-.11,0-.26-.08-.41-.14.19-.22.18-.21.06-.4a.6.6,0,0,1-.12-.3.52.52,0,0,0-.34-.65L37.57,21l-.36,1.61a.38.38,0,0,0,.17.47,2,2,0,0,1,.36.35,2.73,2.73,0,0,0,.46.6c.38.3.5.22.27.75a2,2,0,0,1-.28.39c-.08-.05-.15-.08-.2-.12-.23-.22-.48-.43-.41-.81a.68.68,0,0,0-.52-.73c-.1.4-.2.79-.29,1.18s-.12.52-.18.78-.07.34-.09.52-.06.32,0,.41.26.36.53.29a.72.72,0,0,1,.63.28c.07.23-.2.76-.45.77s-.34-.21-.49-.35-.07-.2-.13-.28a1,1,0,0,0-.18-.18c-.12.44-.25.85-.34,1.26-.14.65-.26,1.31-.38,2l-.09.46c-.07.35-.16.69-.23,1a.43.43,0,0,0,.08.29c.18.17.39.31.6.48.09-.24.14-.55.5-.46a.36.36,0,0,1,.25.49c-.1.31-.33.23-.55.18a.34.34,0,0,1,0,.08,2.33,2.33,0,0,1,0,.28.89.89,0,0,1-.33-.08c-.19-.14-.36-.32-.56-.5-.12.51-.25,1-.33,1.46-.12.69-.19,1.39-.29,2.08,0,.17-.11.33-.13.5a.4.4,0,0,0,.07.28,2.07,2.07,0,0,0,.39.33,1.36,1.36,0,0,0,.21.1,1.6,1.6,0,0,1,.38.23c.28.28.06.63-.31.76s-.31,0-.37-.19-.11-.63-.44-.75c-.27,1.16-.55,2.31-.81,3.39.27.28.51.52.72.78s.61.62.41,1.13c-.06.15-.49.53-.63.46a2.46,2.46,0,0,1-.55-.41.2.2,0,0,1,0-.17,2,2,0,0,1,.15-.37c0-.08.15-.14.18-.22s.07-.26,0-.32-.22-.36-.48-.28c0,0-.05.09-.06.14a2.66,2.66,0,0,1-.07.39c-.16.51-.35,1-.51,1.52s-.34,1-.47,1.54a.39.39,0,0,0,.23.52,2.14,2.14,0,0,0,1,.35c.07,0,.15,0,.23.05l0-.08-.37-.18v-.3a.73.73,0,0,1,.68.33.83.83,0,0,1-.12.79c-.16.17-.3.19-.46,0l-.07,0a3.17,3.17,0,0,1-.17.27,3.29,3.29,0,0,0-.31-.39,5,5,0,0,0-.52-.42c-.11-.07-.28-.13-.35.05a9,9,0,0,0-.3,1c-.09.36-.15.73-.22,1.09,0,.1,0,.19-.06.34.16,0,.28,0,.39-.09A1.61,1.61,0,0,1,33,47.93a1.2,1.2,0,0,0,.38,0c.39,0,.78,0,1.18,0,.85,0,1.71,0,2.56.06a3.57,3.57,0,0,1,.56.07l.6.08c.31,0,.63,0,.93.08.59.1,1.17.23,1.76.34l.45.09c.25.07.49.17.74.23s.76.16,1.14.26l1.19.32a10.94,10.94,0,0,1,1.69.5c.63.3,1.3.51,1.93.83s1.61.66,2.42,1c.25.1.49.24.74.35s.73.33,1.1.48.56.17.84.27.37.13.55.21l1.31.6ZM32.23,40.4l.5.06c.43.06.43.06.53-.37a.88.88,0,0,1,.05-.15c.09-.28.19-.55.26-.84.13-.57.24-1.14.37-1.7s.06-.59-.25-.66-.39-.05-.61-.08c-.29,1.26-.56,2.49-.85,3.74Zm1.87-4c.24-1.46.47-2.89.72-4.38l-.62-.18c-.26,1.5-.8,2.87-1,4.37l.86.19ZM31.84,45c.13-.48.27-1,.4-1.42.09-.31.17-.63.27-.94.16-.51.32-1,.49-1.51.06-.16,0-.19-.14-.2s-.41,0-.61,0-.16.06-.17.12c-.13.44-.25.89-.37,1.34,0,.08,0,.18,0,.26-.18.71-.36,1.42-.55,2.14l.7.2Zm3.55-18.54c-.36,1.66-.72,3.3-1.07,4.9l.62.19c.1-.52.2-1.06.31-1.6.19-.95.38-1.91.58-2.86.1-.44.1-.44-.44-.63Zm1.32-3.67c.13-.57.26-1.12.39-1.67s.24-1.06.37-1.58c0-.18-.11-.21-.22-.24s-.18,0-.19,0a5.83,5.83,0,0,0-.22.71c-.2.77-.39,1.54-.58,2.31a.41.41,0,0,0,.08.31,1,1,0,0,0,.37.12ZM36,26.11c.2-1,.4-1.94.61-2.93l-.52-.08-.49,2.42c-.1.46-.11.46.35.59Zm2-10.56c-.27,1.06-.53,2.12-.79,3.19l.35.08c.06-.32.12-.61.17-.9s.12-.54.17-.82a11.19,11.19,0,0,0,.18-1.16c0-.11.22-.33-.08-.39Zm-4,27,.11.06a1.18,1.18,0,0,0,.28-.2.2.2,0,0,0,0-.2s-.16-.05-.18,0-.15.25-.22.37ZM38.46,14l-.1,0-.24,1.14.08,0L38.46,14ZM49.52,52.73l0,.09.9.34,0-.1-.91-.33Zm-15-29.11-.43,0,.1.27.33-.25Z" transform="translate(-0.17 -0.03)"/><path d="M33.5,12.89a1.88,1.88,0,0,1-.35-.1c-.32-.19-.62-.42-.95-.6a4,4,0,0,0-.69-.23c-.48-.14-1-.3-1.45-.42s-1.24-.27-1.86-.4l-1.86-.36c-.42-.08-.84-.19-1.26-.28l-.57-.09-1.32-.2c-.41-.06-.81-.1-1.21-.17s-.65-.15-1-.2c-.7-.12-1.41-.23-2.12-.33-.47-.07-.95-.12-1.43-.16-.23,0-.48,0-.71,0-.4,0-.79,0-1.18,0-.08,0-.2-.15-.21-.23s.12-.18.26-.19.5-.09.75-.1.65,0,1,.06l1.1.1c.46.05.94.06,1.4.13.64.1,1.27.25,1.9.36,1,.18,2,.35,2.95.51.66.11,1.32.18,2,.29.4.07.79.17,1.18.26s.91.17,1.36.27.72.14,1.08.23a8,8,0,0,1,1.18.36c.6.26,1.18.57,1.75.87a.52.52,0,0,1,.29.58Z" transform="translate(-0.17 -0.03)"/><path d="M11.65,30l.41-.08a2.94,2.94,0,0,1,.51-.05l2,.05.65.05,1.57.16c.73.08,1.45.17,2.18.27.39.06.78.15,1.18.23L22,31c.35.07.7.17,1.06.24s.7.12,1.05.21c.76.21,1.51.44,2.27.66.46.13.93.24,1.4.38s1.05.34,1.57.52a1,1,0,0,1,.23.12,1.53,1.53,0,0,1,.18.18c-.09,0-.18.08-.26.07a5.28,5.28,0,0,1-.81-.16c-.45-.13-.89-.27-1.33-.42-.27-.09-.52-.21-.79-.28s-.51-.09-.75-.15-.67-.22-1-.31c-.85-.2-1.7-.41-2.55-.59-.69-.14-1.38-.25-2.07-.38a7.53,7.53,0,0,1-1.05-.22A5.22,5.22,0,0,0,18,30.74c-.46,0-.91-.1-1.37-.15s-1.14-.13-1.72-.16a11.42,11.42,0,0,0-2.92,0c-.31.07-.46-.1-.38-.43Z" transform="translate(-0.17 -0.03)"/><path d="M16,17.15c.29,0,.79,0,1.29,0s.85.1,1.27.13,1,0,1.46.08.78.1,1.17.16,1.05.13,1.57.21l1.12.2,1.34.28c.39.09.77.2,1.15.3.13,0,.27.05.4.1l2,.71c.57.21,1.14.41,1.7.65.38.17.75.38,1.12.58.11.06.27.17.14.31s-.22.08-.37,0a4,4,0,0,0-.69-.33c-.37-.18-.73-.37-1.1-.52a7.92,7.92,0,0,0-.79-.24c-.66-.22-1.31-.46-2-.66s-1.18-.36-1.78-.49-1.45-.27-2.17-.39c-.42-.07-.85-.11-1.27-.17l-1.81-.23L18,17.65c-.35,0-.71-.07-1.06-.07s-.72.05-1.09.08-.6,0-.9.07-.57.1-.85.13a.56.56,0,0,1-.33-.1.25.25,0,0,1,0-.23.71.71,0,0,1,.34-.16c.54-.08,1.08-.13,1.84-.22Z" transform="translate(-0.17 -0.03)"/><path d="M15,13.56c.6,0,1.19-.1,1.78-.11a19.52,19.52,0,0,1,2.86.17l2.65.38c.38.05.76.09,1.13.15s.77.15,1.15.23l1.5.32h0A4.26,4.26,0,0,0,27,15c.33.11.68.13,1,.23s.93.32,1.4.47.95.27,1.41.43a11,11,0,0,1,1.22.53c.11.05.17.19.25.29l-.08.11c-.25-.06-.5-.11-.75-.19-.74-.26-1.47-.55-2.22-.78s-1.72-.5-2.59-.74c-.43-.11-.87-.18-1.3-.28-.71-.15-1.41-.33-2.12-.46-.46-.1-.93-.14-1.4-.2L20,14.09c-.26,0-.51-.08-.76-.1-.45,0-.9-.08-1.35-.09a10.77,10.77,0,0,1-1.27,0c-.44-.05-.86.08-1.29.07S15,14,15,13.56Z" transform="translate(-0.17 -0.03)"/><path d="M12.4,25.56c.44,0,.85,0,1.27,0,.19,0,.39,0,.57,0,.59,0,1.18.12,1.77.19s1.1.11,1.64.18,1.13.18,1.69.28l1.75.3,1.75.32c.27.05.54.07.81.12.48.08,1,.17,1.45.28.73.16,1.45.35,2.17.52l2.1.48a1.7,1.7,0,0,1,.49.18c.08.06.12.2.18.31-.11,0-.22.1-.31.07-.49-.11-1-.25-1.47-.37-1.1-.27-2.19-.54-3.29-.78-.93-.21-1.86-.41-2.8-.58-.57-.1-1.15-.14-1.72-.24s-1.09-.25-1.64-.34c-.36-.07-.74-.09-1.11-.13l-1.5-.2-1-.07L14.51,26H13.19a4.14,4.14,0,0,1-.61,0c-.25,0-.21-.24-.18-.43Z" transform="translate(-0.17 -0.03)"/><path d="M13.32,21.67l.15-.3c.28,0,.51.08.74.1l2.78.28c.22,0,.44.08.66.13H18c.32.05.64.13,1,.17s.81.07,1.21.12,1,.17,1.47.26,1.15.21,1.72.34,1.41.34,2.12.53c.26.07.52.19.78.28.48.16,1,.29,1.44.46s.9.35,1.35.52l1.05.43c.17.08.31.19.26.4a.19.19,0,0,1-.16.11,3,3,0,0,1-.38-.15c-.42-.19-.83-.41-1.27-.57q-1-.37-2-.69a8.56,8.56,0,0,1-1.25-.36,14,14,0,0,0-1.65-.47,14.07,14.07,0,0,0-1.85-.36l-.87-.16-1.49-.21-1.08-.16c-.69-.09-1.38-.19-2.07-.26s-1.38-.11-2.07-.2a8.32,8.32,0,0,1-.88-.24Z" transform="translate(-0.17 -0.03)"/><path d="M28.56,37.17a3.29,3.29,0,0,1-.43-.09c-.55-.21-1.09-.43-1.64-.63-.18-.07-.39-.05-.56-.13a20.35,20.35,0,0,0-2.18-.67,6.63,6.63,0,0,0-1.26-.31c-.43-.08-.87-.1-1.3-.17s-.58-.17-.87-.23a3.72,3.72,0,0,0-.57-.08l-1.6-.16-1-.08c-.73,0-1.47-.1-2.21-.13s-1.45-.06-2.17-.05c-.49,0-1,.11-1.47.16-.1,0-.27,0-.31-.09s0-.3.18-.33c.32-.06.63-.09,1-.13A7.4,7.4,0,0,1,13,34c.37,0,.74,0,1.11,0l1,.06c.7,0,1.39,0,2.08.11s1.38.18,2.08.26c.39,0,.79.05,1.18.11s.88.17,1.32.27c.69.16,1.38.3,2.06.48.49.13,1,.32,1.46.47.34.1.68.17,1,.27s.9.33,1.36.48a1.83,1.83,0,0,1,.82.39.67.67,0,0,1,.12.2l-.06.06Z" transform="translate(-0.17 -0.03)"/><path d="M27.32,42.06a3.19,3.19,0,0,1-.54-.05c-.5-.17-1-.36-1.48-.54l-.89-.31c-.23-.09-.44-.22-.67-.3a4.11,4.11,0,0,0-1.11-.42c-.27,0-.52-.23-.79-.31-.69-.21-1.38-.41-2.07-.58s-1.15-.22-1.72-.31c-.82-.13-1.64-.25-2.47-.35-.55-.07-1.12-.06-1.66-.17s-1.2-.06-1.8-.14a12.1,12.1,0,0,0-1.9.05.65.65,0,0,1-.32-.11s0-.1,0-.15a.13.13,0,0,1,.11-.08c.44,0,.88-.08,1.33-.08.64,0,1.28,0,1.92,0,.32,0,.63,0,.94.09l1.72.22,1.19.19.52.08c.53.07,1.06.1,1.58.22.85.21,1.69.46,2.53.71.55.17,1.1.36,1.64.56.27.1.52.23.78.34s.58.24.88.36a13.46,13.46,0,0,0,2.14.81c.07,0,.12.1.18.16v.08Z" transform="translate(-0.17 -0.03)"/><path d="M57.26,35.28l-.15.18c-.22-.06-.44-.1-.65-.18s-.7-.3-1.05-.44l-1.51-.56-.29-.11-.7-.21-1.45-.4c-.51-.16-1-.35-1.53-.5s-.73-.15-1.09-.23-.61-.18-.92-.24c-.72-.16-1.45-.31-2.17-.45L44,31.81l-.86-.15-1.93-.31a4,4,0,0,0-1.06-.14,3.86,3.86,0,0,1-1,0c-.06,0-.17-.15-.16-.2s.13-.2.2-.2c.5,0,1,.08,1.51.13l1.15.13c.4,0,.8.09,1.2.16a4.75,4.75,0,0,0,.81.19,16.7,16.7,0,0,1,2,.35c.41.06.8.22,1.2.3s1.06.16,1.57.28,1,.28,1.47.42l1.18.33.44.14c.73.2,1.47.38,2.19.61.53.17,1,.41,1.54.62s.91.35,1.36.55a2.45,2.45,0,0,1,.44.3Z" transform="translate(-0.17 -0.03)"/><path d="M37.58,39.37A2.08,2.08,0,0,1,39,39.5c.15.08.37,0,.56,0l1.8.39,1,.21,1.61.38,1.44.35,2.8.77,1.54.47c.59.19,1.17.41,1.76.58.76.22,1.53.41,2.3.6.26.07.53.09.78.17a.39.39,0,0,1,.23.24c0,.09-.11.21-.2.26s-.17,0-.26,0-.14-.1-.22-.12c-.47-.13-1-.24-1.43-.38-.74-.21-1.48-.44-2.21-.67a13.51,13.51,0,0,0-1.7-.56,11.77,11.77,0,0,0-1.68-.41,4,4,0,0,1-1.1-.26,13.43,13.43,0,0,0-1.88-.42c-.4-.07-.79-.22-1.18-.32-.11,0-.23,0-.34-.05l-1.66-.39-2.09-.47-1-.15c-.22,0-.23-.07-.27-.35Z" transform="translate(-0.17 -0.03)"/><path d="M43.42,14.31c.67,0,1.26,0,1.85,0s1.38.11,2.06.18l1.48.19,1.4.16c.52.07,1,.11,1.55.19s.79.19,1.19.27.8.13,1.19.23c.57.14,1.13.31,1.69.47l2,.55,1.93.56a.92.92,0,0,1,.28.14.21.21,0,0,1,0,.32c-.1.13-.16.08-.28,0a7.58,7.58,0,0,0-.81-.25c-.63-.2-1.25-.4-1.89-.58s-1-.25-1.48-.39-.85-.28-1.28-.4-.88-.2-1.32-.29c-.76-.15-1.53-.3-2.29-.42-.4-.07-.8-.07-1.19-.12-.65-.07-1.29-.16-1.93-.24-.14,0-.29,0-.42,0a5.58,5.58,0,0,0-1.22-.15c-.6,0-1.21,0-1.81,0a4.56,4.56,0,0,1-.64,0c-.1,0-.18-.18-.27-.27l.24-.2Z" transform="translate(-0.17 -0.03)"/><path d="M56.78,31.6a2.84,2.84,0,0,1-.47-.16c-.46-.22-.92-.45-1.37-.69a14.52,14.52,0,0,0-2.64-.93c-.47-.15-1-.23-1.43-.36s-.89-.29-1.34-.41-1.1-.26-1.65-.38l-.77-.17-.77-.15c-.36-.07-.73-.12-1.1-.2-.52-.12-1-.28-1.55-.39s-.85-.14-1.28-.21-.88-.19-1.33-.23a5.26,5.26,0,0,0-1.12.06.22.22,0,0,1-.27-.17.31.31,0,0,1,.12-.27.9.9,0,0,1,.37-.05l.1,0,1.48.12a5.05,5.05,0,0,1,.68.07.77.77,0,0,1,.21.14.93.93,0,0,1,.32,0c.51.11,1,.25,1.52.37l1.77.38,1.91.41c.62.13,1.24.26,1.84.42s1.49.44,2.23.65c.37.1.76.12,1.11.24.59.21,1.16.45,1.73.7s1,.53,1.49.76c.21.09.21.23.21.48Z" transform="translate(-0.17 -0.03)"/><path d="M54.51,39c0,.23-.17.34-.32.29-.38-.15-.76-.27-1.13-.42-.14-.06-.35,0-.4-.23,0,0-.08,0-.12,0l-1.16-.38-.72-.21c-.65-.17-1.3-.36-2-.52-.36-.08-.73-.1-1.09-.17l-2.13-.43c-.62-.13-1.24-.28-1.87-.39s-1.25-.16-1.87-.25c-.46-.07-.92-.19-1.39-.25-.31,0-.63,0-.94-.07s-.46,0-.69-.06a.56.56,0,0,1-.21-.09,2,2,0,0,1-.18-.23c.11-.06.24-.18.35-.17.65.06,1.3.15,2,.24s1.09.2,1.63.29l.94.13c.46.06.92.13,1.37.21s.72.15,1.08.23l.94.21,2.12.42c.52.11,1,.19,1.55.34s1.22.4,1.83.6l1.7.56.6.22c.06,0,.09.13.12.16Z" transform="translate(-0.17 -0.03)"/><path d="M58.92,22.36l-1-.44-.69-.25-.8-.27c-.44-.14-.87-.29-1.31-.41s-.85-.16-1.26-.27-.77-.27-1.16-.38-.89-.16-1.33-.27c-.67-.16-1.33-.37-2-.52s-1.29-.26-1.94-.38-1-.23-1.55-.31-.92-.13-1.37-.17-1,0-1.46-.06c-.06,0-.11-.08-.17-.12l-.2-.15a.76.76,0,0,1,.71-.16.59.59,0,0,0,.13,0c.45,0,.9.05,1.34.11,1,.16,2.09.34,3.13.54.61.11,1.2.31,1.8.45.38.09.77.14,1.15.23l1.63.41c.55.14,1.1.25,1.64.39.92.25,1.84.49,2.75.77.6.19,1.17.45,1.75.68.27.11.33.28.19.56Z" transform="translate(-0.17 -0.03)"/><path d="M57.67,26a2.26,2.26,0,0,1-.5-.18,10.6,10.6,0,0,0-1.45-.56,13.25,13.25,0,0,0-1.58-.51c-.64-.21-1.26-.46-1.91-.65-.81-.24-1.64-.41-2.46-.63-.27-.06-.52-.18-.79-.24s-.59-.07-.88-.13c-.69-.13-1.38-.3-2.07-.41-.48-.07-1-.09-1.45-.12-.76-.05-1.51,0-2.27,0a1.3,1.3,0,0,0-.34,0c-.21.07-.19-.12-.22-.2s.11-.16.18-.18a8.5,8.5,0,0,1,2.71,0,6.47,6.47,0,0,1,2,.26,2,2,0,0,0,.43,0l1.91.38c.52.11,1,.24,1.56.37.31.08.61.19.92.27s.61.13.9.22.59.25.89.35.65.18,1,.28c.54.18,1.09.34,1.62.55s1,.37,1.5.52.37.12.33.59Z" transform="translate(-0.17 -0.03)"/><path d="M40,45.72l-1.44-.33a1.93,1.93,0,0,0-.24,0l-1.2-.21a1.93,1.93,0,0,1-.49-.07c-.11-.05-.26-.2-.25-.27s.19-.15.35-.12c.61.12,1.23.21,1.85.32s1.33.19,2,.37a13.82,13.82,0,0,0,1.91.31c.52.08,1,.18,1.54.27s1,.16,1.43.26.9.24,1.35.35c.26.07.53.11.79.18l2.1.57c.43.11.87.17,1.29.29s.79.28,1.18.42.55.2.83.27.15.21.12.31a.26.26,0,0,1-.25.12,11.11,11.11,0,0,0-2.45-.85c-.54-.12-1.05-.35-1.59-.48-.8-.21-1.62-.37-2.42-.55-.65-.15-1.3-.31-1.95-.44a6.92,6.92,0,0,1-1-.17c-.5-.18-1-.09-1.53-.25a8.83,8.83,0,0,0-1-.16c-.25,0-.49-.11-.73-.17l-.1,0v.08Z" transform="translate(-0.17 -0.03)"/></g></g></svg>