<svg xmlns="http://www.w3.org/2000/svg" viewBox="0 0 61.86 65.77"><title>アセット 6512px</title><g id="レイヤー_2" data-name="レイヤー 2"><g id="レイヤー_1-2" data-name="レイヤー 1"><path d="M45.29,34.14a1.49,1.49,0,0,1,.31.16l.94.88c.1.09.23.15.34.24l1.34,1.18,1.69,1.48c.5.44,1,.89,1.49,1.32s1.07.9,1.6,1.37.91.87,1.38,1.3c.09.09.23.14.33.23l1.56,1.23c.52.42,1,.84,1.53,1.27.27.24.5.5.75.75s.78.72,1.14,1.1.4.51.61.75a7.58,7.58,0,0,1,1.42,2.4,1.49,1.49,0,0,1,0,1.24.53.53,0,0,0,0,.35,7.91,7.91,0,0,1,0,2.38,4.6,4.6,0,0,1-.14.74c0,.07-.13.12-.18.19a2.42,2.42,0,0,1-1,.67c-.31.16-.63.3-.95.44a11.94,11.94,0,0,1-2.8.92,4,4,0,0,0-.95.28,3.78,3.78,0,0,1-.85.13c-.17,0-.34.1-.52.16l-1.87.58c-.51.16-1,.33-1.52.48l-1.66.49c-.33.11-.65.27-1,.37s-.89.21-1.33.32c-.21.06-.41.15-.61.22-.55.16-1.1.31-1.64.48l-1,.31-.85.29c-.17.06-.34.14-.51.19l-1.21.38c-.36.13-.7.29-1,.42l-2,.7-.39.17-1.21.37c-.43.12-.85.24-1.28.34s-.85.15-1.27.25-1.06.28-1.6.42c-.22.06-.46.08-.67.16a14.76,14.76,0,0,0-1.46.35,2.88,2.88,0,0,1-.54.1L28.6,65l-.31.09a11.06,11.06,0,0,0-1.45.42,8.46,8.46,0,0,1-1.38.35c-.29.07-.61.24-.9,0l-.18-.17c-.17.22-.34.06-.49,0-.53-.34-1.06-.67-1.56-1.06s-.75-.69-1.13-1c0,0,0,0,0,0-.46-.14-.68-.58-1-.86s-.68-.69-1-1-.71-.53-1.05-.81-.46-.44-.71-.65c-.51-.43-1-.84-1.56-1.26l-.69-.56c-.52-.43-1-.86-1.56-1.31a15.17,15.17,0,0,1-1.49-1.51c-.45-.51-1-1-1.42-1.47-.29-.31-.57-.63-.85-.94s-.3-.34-.46-.5L7.85,51.2c-.5-.5-1-1-1.5-1.51-.27-.26-.57-.51-.85-.77-.54-.52-1.08-1-1.61-1.56s-.78-.87-1.17-1.3a6.2,6.2,0,0,1-.53-.62,4.67,4.67,0,0,1-.63-1.1,2.84,2.84,0,0,1-.17-1.45,4.42,4.42,0,0,0,0-.73c0-.24.07-.49.06-.73a1.42,1.42,0,0,0-.18-.86,1.15,1.15,0,0,1-.27-.9,3,3,0,0,0,0-.79c0-.43-.11-.86-.15-1.28s-.08-1-.1-1.46c0-.21,0-.42,0-.63,0-.89,0-1.79-.08-2.69,0-.74-.09-1.49-.14-2.23,0-.43,0-.86,0-1.29s0-.85-.06-1.27a20.64,20.64,0,0,1-.1-2.94c0-.62,0-1.23,0-1.84S.23,22,.21,21.4.14,19.93.13,19.19s0-1.53,0-2.3v-2c0-.91,0-1.81,0-2.71,0-.61-.07-1.23,0-1.83A5.48,5.48,0,0,1,1,7.2a2.33,2.33,0,0,1,.55-.43.19.19,0,0,1,.17.05.23.23,0,0,0,.34,0,4.22,4.22,0,0,1,1.35-.36A5.52,5.52,0,0,1,4,6.35l1.29-.24c.29-.07.56-.21.86-.28s.65-.12,1-.18.9-.16,1.35-.22c.61-.08,1.23-.14,1.84-.21.31,0,.62-.1.93-.17.7-.13,1.39-.29,2.08-.42s1.27-.2,1.9-.32c.42-.08.83-.2,1.25-.29a5.69,5.69,0,0,1,.72-.12,8.27,8.27,0,0,0,1.23-.14c.52-.15,1.05-.15,1.57-.27.32-.07.65-.08,1-.14s.47-.13.7-.17.47,0,.69-.05S22.58,3,22.7,3c.44-.07.87-.11,1.3-.17s1.07-.2,1.6-.28,1.09-.12,1.64-.2c.24,0,.48-.11.73-.15s.39,0,.58-.07c.66-.11,1.31-.25,2-.35.47-.07.95-.07,1.43-.13s.75-.15,1.13-.22.74-.12,1.11-.2.48-.14.73-.18S35.64,1,36,.9s.44-.11.66-.16c.68-.16,1.35-.36,2-.46a9.61,9.61,0,0,1,1.61,0,4.26,4.26,0,0,1,1.13.13A2.73,2.73,0,0,1,42.87,1c.07.08.07.26.15.29a2.47,2.47,0,0,1,1.06,1.56c.11.29.13.62.22.91a10.29,10.29,0,0,1,.2,2.28c.09,1.07.14,2.14.16,3.22a8.84,8.84,0,0,0,.1,1.45v0a6.67,6.67,0,0,0,0,1.67c0,1,.06,1.93.11,2.89A8,8,0,0,1,45,16.6c-.06.55.07,1.09.06,1.63a9.29,9.29,0,0,0,.12,1.06c.08,1,.15,1.95.21,2.92,0,.53,0,1.07.07,1.6a5.2,5.2,0,0,0,.09,1,3.46,3.46,0,0,1,0,.72c0,.21,0,.42,0,.63,0,.67,0,1.33.05,2,0,.52,0,1,0,1.55s0,1.19,0,1.79c0,.16-.06.31-.06.47s0,.61,0,.9c-.06.46,0,1-.33,1.31ZM3.74,42c.17.24.35.51.54.76s.27.34.42.5.39.42.58.63.5.6.77.87.54.46.8.71.5.53.75.79.66.65,1,1,.41.56.64.82.71.76,1.06,1.14.67.73,1,1.1.71.84,1.08,1.25l1.4,1.5.48.49c.21.22.4.46.63.68s.55.48.84.72l1.2,1c.34.27.71.51,1,.79s.54.48.8.71c.43.38.87.75,1.29,1.14s.66.68,1,1,.7.59,1.05.89a1.07,1.07,0,0,1,.14.16,5.71,5.71,0,0,0,.39.47c.23.24.5.45.73.69a6.4,6.4,0,0,0,1.06,1c.06,0,.1.14.15.14a6.81,6.81,0,0,0,.78-.05l1.81-.21a8.61,8.61,0,0,0,1-.12c.74-.17,1.47-.37,2.2-.58s1.32-.41,2-.61l1.37-.4a3.88,3.88,0,0,1,.36-.15c.34-.09.68-.14,1-.24.5-.16,1-.35,1.48-.52s.87-.24,1.29-.39,1.07-.42,1.6-.62,1-.4,1.54-.58c.31-.11.64-.18,1-.28a3.2,3.2,0,0,0,.95-.3,5.83,5.83,0,0,1,1.1-.46c.45-.2,1-.24,1.41-.44a11.81,11.81,0,0,1,1.2-.34q.9-.25,1.8-.54c.48-.14,1-.27,1.44-.44.7-.26,1.39-.57,2.1-.84s1.43-.52,2.14-.8l2.34-.93c.48-.19,1-.41,1.43-.61a10.18,10.18,0,0,0,1-.36c.61-.32,1.19-.68,1.79-1,.2-.11.37-.3.64-.25,0,0,.08-.1.09-.15a2.91,2.91,0,0,0-.48-1.74c-.14-.27-.35-.52-.51-.79a3.78,3.78,0,0,0-.17-.35c-.18-.22-.37-.43-.56-.64s-.62-.7-1-1c-.55-.53-1.11-1-1.67-1.54-.34-.3-.69-.6-1-.88-.54-.44-1.1-.85-1.65-1.29-.31-.25-.6-.53-.9-.8l-1.26-1.11c-.46-.41-.91-.84-1.38-1.24s-1-.83-1.44-1.24-.71-.6-1-.91S47.42,36.41,47,36c-.2-.18-.43-.32-.62-.49-.38-.35-.74-.71-1.11-1.06a.2.2,0,0,0-.16-.05l-.91.34c-.16.06-.3.14-.45.19-.36.1-.73.17-1.09.28s-.6.26-.9.36-.9.25-1.34.39-.7.27-1.06.39c-.1,0-.23,0-.34,0s-.49.21-.75.29c-.5.14-1,.27-1.52.38s-.81.12-1.21.2l-1.8.38c-.38.08-.76.15-1.14.25l-1.31.35a2,2,0,0,1-.73.09c-.25,0-.5.17-.75.22-.51.09-1,.14-1.53.21l-.29,0c-.82.16-1.64.34-2.46.49-.37.07-.76.08-1.13.14s-.77.18-1.15.24c-.55.07-1.09.11-1.64.16a15.78,15.78,0,0,1-2.38.28,9.44,9.44,0,0,0-1.19.15l-1.89.16-1.52.2-1.25.2L12.26,41a6.69,6.69,0,0,1-1.19.17,4.34,4.34,0,0,0-1.17.16,9.92,9.92,0,0,1-1.18.25c-.47,0-.94.13-1.4.21-.63.11-1.27.13-1.9.18L3.74,42ZM2.26,8a5.06,5.06,0,0,0-.33.66c-.09.28-.1.58-.18.86a7.16,7.16,0,0,0,0,1.85A14.55,14.55,0,0,0,1.87,13c0,.13,0,.27,0,.4.06.51.16,1,.19,1.53,0,.74,0,1.49,0,2.23,0,.54.06,1.08.1,1.62,0,.22.05.45,0,.67s-.09.47-.08.7c0,.46.07.91.09,1.37,0,.16-.07.33-.07.5,0,.37,0,.73,0,1.09,0,.68,0,1.36.06,2,0,.45.16.89.19,1.34s0,1.08.05,1.62,0,.81,0,1.22.06.66.07,1,0,.86,0,1.29c0,.14.05.27,0,.41a4.25,4.25,0,0,0,0,1.12c.11.51,0,1,0,1.51,0,0,0,.08-.05.13a.83.83,0,0,0,0,.22c0,.28,0,.56,0,.85,0,.12,0,.24,0,.36,0,.54.07,1.09.09,1.64s0,1.2.06,1.81a.34.34,0,0,0,0,.1c.07.3.13.59.2.88,0,.1,0,.26.08.27.29.06.27.34.41.51a.34.34,0,0,0,.12.09,3,3,0,0,0,1.54,0c.36,0,.72-.11,1.08-.14s.88,0,1.3-.09c.67-.1,1.34-.25,2-.35s1.19-.14,1.79-.22l2.35-.34,1.76-.25c.68-.1,1.36-.23,2.05-.31s1.27-.07,1.91-.11c.48,0,1-.1,1.44-.16l1.22-.16c.34,0,.69-.06,1-.11s.89-.14,1.34-.21.7-.07,1-.14.46-.15.69-.2.7-.09,1-.15.77-.18,1.16-.25l1.58-.27c.54-.1,1.09-.21,1.63-.33s.91-.17,1.36-.28,1.12-.29,1.68-.41,1.41-.24,2.11-.38c.45-.09.89-.2,1.33-.33.66-.19,1.31-.41,2-.62l2.76-.91c.66-.21,1.32-.42,2-.65a.7.7,0,0,0,.54-.61c0-.55.07-1.11.08-1.66,0-1.3,0-2.6,0-3.9,0-.31,0-.63,0-.93,0-.87-.1-1.73-.15-2.59,0-.29,0-.59,0-.88,0-.45-.11-.89-.15-1.34-.06-.86-.1-1.72-.16-2.58s-.16-1.78-.21-2.67-.08-2-.11-3c0-.44,0-.87,0-1.31,0-.82-.1-1.65-.09-2.47S44.23,8.76,44.25,8c0-.48-.07-1-.1-1.45,0-.68,0-1.36-.11-2a5.83,5.83,0,0,0-.53-2.21c-.16-.29-.31-.61-.69-.68-.06,0-.11-.1-.17-.13s-.19-.15-.29-.15a10.84,10.84,0,0,0-1.14,0c-.22,0-.44.07-.67.1-.57.09-1.14.16-1.71.26s-.92.19-1.39.28c-.2,0-.41.06-.62.11-.49.1-1,.22-1.46.31l-2,.31-1.16.17-1.62.21c-.45.06-.9.09-1.35.15l-1.18.2-1.33.23c-.38.06-.76.1-1.14.18a4.69,4.69,0,0,0-1,.2,5.15,5.15,0,0,1-1,.18l-1.13.2-1.41.2c-.36,0-.71.14-1.07.17a3.82,3.82,0,0,0-1.2.2,4.61,4.61,0,0,1-1.06.18l-1.47.21-1,.11-.9.12-.55.07h-.15L12.61,6l-.92.16-1.59.32-1.43.28c-.54.12-1.07.26-1.61.37-.32.07-.63.07-.94.17-.66.23-1.34.39-2,.56-.46.12-.93.2-1.39.34-.19.06-.3,0-.46-.19Zm59.1,43.49a4.27,4.27,0,0,0-.66.23c-.41.24-.8.53-1.22.75s-.72.28-1.07.44-.49.25-.74.36L55.81,54l-2.09.83c-.24.09-.48.15-.72.23l-1.31.46c-.18.06-.38.11-.56.19-.4.18-.8.38-1.21.54-.22.09-.47.12-.7.2-.48.16-1,.35-1.45.5s-1,.24-1.43.38-.69.24-1,.35-.49.13-.73.21l-1.11.35L43,58.4,41.34,59c-.14,0-.29.06-.42.11-.36.13-.71.29-1.07.42L38.44,60l-1.57.56-.69.22-1,.32a1.84,1.84,0,0,0-.25.09l-1.08.38L32.14,62c-.28.08-.56.2-.84.28l-1.65.43a9,9,0,0,0-1.19.3c-.39.17-.8,0-1.19.17-.17.09-.42,0-.64,0l-2.08.16s0,0,0,0a5.63,5.63,0,0,0,.14,1.92c0,.14.07.18.22.16s.54,0,.8-.1c.59-.16,1.18-.34,1.76-.51s1.14-.3,1.7-.5c.24-.09.49-.09.74-.18a11.76,11.76,0,0,1,1.58-.39l1.76-.41,1.54-.34c.57-.13,1.14-.23,1.69-.4s.91-.34,1.36-.5.71-.23,1.06-.35.77-.31,1.16-.46c.22-.08.46-.13.68-.21s.56-.23.84-.33a11.06,11.06,0,0,0,1.34-.44,14.3,14.3,0,0,1,2-.62c.34-.11.69-.18,1-.3s.91-.34,1.38-.49.73-.19,1.08-.3c1-.29,1.94-.6,2.91-.9l2.17-.66c.32-.1.63-.24.95-.33.58-.16,1.17-.29,1.76-.43s1-.24,1.43-.38c.32-.09.62-.2.93-.32s.43-.17.64-.27a6.92,6.92,0,0,0,1.83-1,.89.89,0,0,0,.28-.47,7.76,7.76,0,0,0,.09-2.51ZM23.71,63.76a1.46,1.46,0,0,1,.16-.17c.25-.27.25-.27,0-.53s-.74-.77-1.11-1.16l-.89-.9c-.17-.16-.36-.3-.53-.47s-.54-.55-.82-.81l-2.17-2c-.24-.21-.48-.41-.74-.61-.41-.31-.84-.59-1.24-.92s-1-.91-1.57-1.37a7.43,7.43,0,0,1-.59-.53c-.27-.27-.49-.58-.76-.86s-.72-.68-1.06-1c-.49-.54-.94-1.12-1.42-1.67s-1-1-1.43-1.58S8.63,48,8.16,47.5s-.94-1-1.41-1.52a2.73,2.73,0,0,0-.23-.25c-.3-.27-.62-.5-.9-.79s-.8-.88-1.22-1.3a7.82,7.82,0,0,1-.92-1.37,3.46,3.46,0,0,0-.34-.44c-.21-.25-.44-.48-.65-.7-.19,0-.32.37-.57.1l0,.05c-.17.22,0,.46-.06.68a5.39,5.39,0,0,0,.09,2,.93.93,0,0,0,.07.33c.26.43.52.88.82,1.29a8.12,8.12,0,0,0,.82.94c.38.39.78.77,1.17,1.14s.6.53.88.82.7.74,1.06,1.1c.13.12.3.2.43.33.31.31.6.63.9.94s.36.38.55.56l.57.54c.24.25.47.51.7.76s.36.34.53.52l.71.73.82.83s0,0,0,.07c.27.32.53.64.82,1s.54.51.82.75l.92.8.69.62c.26.23.5.48.77.69.47.37.95.71,1.43,1.06s.72.71,1.15,1A18.9,18.9,0,0,1,20.09,62c.33.3.63.63.95.94.12.11.3.15.41.27a6.37,6.37,0,0,0,1.35,1.19l1.15.77.19.13c0-.33,0-.6-.06-.87s.1-.61-.37-.68ZM1.43,7.35a1.31,1.31,0,0,0-.2.23,5.49,5.49,0,0,0-.71,2c-.07.82-.06,1.65-.08,2.48,0,.19.08.37.08.56a2.58,2.58,0,0,0,.06,1.17s0,.1,0,.15c0,.43,0,.85,0,1.28,0,.22,0,.44,0,.66s-.08.59-.07.88c0,.58.12,1.16.14,1.74,0,.76,0,1.52,0,2.28,0,.35,0,.7,0,1.05s0,.77,0,1.15c0,.08,0,.17,0,.25,0,.33.09.65.09,1S.71,25,.71,25.36s0,.63,0,.94,0,.79,0,1.19.08.88.1,1.32,0,.75,0,1.13c.06.8.16,1.61.19,2.42,0,.49.05,1,.07,1.48,0,.83,0,1.67.06,2.5,0,.57.12,1.13.15,1.69a7.61,7.61,0,0,0,.16,1.78c.06.22,0,.48.23.64s.25.21.38.3a1.92,1.92,0,0,0,.35.16.55.55,0,0,0,0-.17c-.07-.52-.16-1-.2-1.56,0-.34,0-.68,0-1s-.09-.85-.09-1.27c0-1,0-2.07.05-3.11,0-.58,0-1.17,0-1.75s-.07-1.15-.09-1.73c0-.34,0-.67,0-1s0-.76-.06-1.14S2,27.53,2,27.23c0-.65,0-1.29-.08-1.93s-.13-1.08-.15-1.61,0-1.05.05-1.57c0-.25.06-.5.05-.75s-.08-.72-.1-1.09c0-.88-.08-1.77-.11-2.65,0-.56,0-1.11,0-1.67s0-1.17-.07-1.76c0-.42-.08-.84-.11-1.27s0-.6-.05-.91c0-.65-.14-1.31-.12-2a7.71,7.71,0,0,1,.25-1.5,1.26,1.26,0,0,1,.89-1c.08,0,.24,0,.26,0,.12.24.33.13.46.09.53-.15,1-.34,1.57-.5s.94-.26,1.41-.38a4.31,4.31,0,0,1,.59-.16c.52-.09,1-.13,1.55-.23s1-.29,1.59-.41,1.15-.22,1.73-.32,1-.12,1.45-.25a5.91,5.91,0,0,1,1.25-.19,5.41,5.41,0,0,0,.58-.07c.5-.08,1-.17,1.5-.24s1.1-.11,1.64-.2,1.27-.23,1.9-.33c.24,0,.49,0,.73-.09.65-.11,1.3-.24,1.95-.34s1-.1,1.5-.19c.75-.14,1.49-.32,2.24-.46.42-.08.85-.1,1.28-.17S28.5,3,29,2.87s1.16-.17,1.74-.24l1.69-.19c.18,0,.36,0,.55-.08l1.31-.24c.27,0,.55-.05.82-.1.77-.16,1.54-.33,2.32-.48s1.46-.25,2.18-.38L41,.92a.4.4,0,0,0-.23-.14l-.6-.07a3.09,3.09,0,0,0-.53,0c-.48.05-1,.12-1.44.2-.24,0-.48.08-.72.13l-1.28.29-.79.18s-.06,0-.09,0a5,5,0,0,0-1.59.23,5.4,5.4,0,0,0-.58.11H33l-1.39.25-1.19.19c-.13,0-.26.1-.39.12a10.26,10.26,0,0,0-1.37.17c-.31.09-.64.06-.94.16a1.06,1.06,0,0,1-.48.1A5.5,5.5,0,0,0,25.67,3c-.32,0-.63.16-.94.22s-.64.07-1,.11c-.57.07-1.15.13-1.71.22-.27,0-.52.13-.78.19a4.54,4.54,0,0,1-.53.12L19.63,4c-.34.06-.67.16-1,.22s-.81.09-1.22.14l-.66.07c-.21,0-.42,0-.63.07a9.31,9.31,0,0,1-1.25.27,6.48,6.48,0,0,1-1.1.18,3.3,3.3,0,0,0-1,.2c-.32.07-.63.15-1,.21A2.83,2.83,0,0,0,11,5.5a4.34,4.34,0,0,1-1.71.25,4.21,4.21,0,0,0-.71.12l-1,.22-.82.13q-.69.12-1.38.27c-.47.11-.94.25-1.41.36a4.37,4.37,0,0,1-1,.21,2.65,2.65,0,0,0-1.09.36c-.18.09-.29.13-.41-.07Z" transform="translate(-0.02 -0.24)"/><path d="M22.75,58.2l-.31-.05a.27.27,0,0,1-.12-.06c-.55-.53-1.11-1.05-1.65-1.59-.34-.33-.65-.7-1-1s-.69-.68-1-1-.66-.71-1-1-.43-.39-.64-.59c-.42-.4-.85-.78-1.24-1.2s-.7-.92-1.06-1.36-.64-.71-1-1.08-.45-.58-.66-.87a.32.32,0,0,1,.16-.47c.38-.1.75-.2,1.12-.33.66-.25,1.32-.55,2-.78s1.06-.3,1.58-.46c.28-.08.55-.2.82-.29l.88-.27L21,45.27c.38-.12.76-.24,1.15-.34l1.56-.38A10,10,0,0,0,25,44.22c.29-.11.6-.2.9-.3.5-.16,1-.3,1.5-.43s1.07-.24,1.6-.38.77-.24,1.15-.34c.15,0,.32,0,.47-.05s.54-.21.82-.29.6-.1.9-.16a7.5,7.5,0,0,0,1.73-.46,5.35,5.35,0,0,1,1.31-.39,7.14,7.14,0,0,0,1-.33c.34-.12.69-.17,1-.27.56-.16,1.11-.35,1.67-.5s1.09-.27,1.63-.41l1.6-.41c.2,0,.42,0,.62-.1s.58-.24.88-.32.82-.22,1.23-.31.58-.11.87-.16a2.52,2.52,0,0,0,.46-.1,1.33,1.33,0,0,1,.28,0,.47.47,0,0,1,.25.1l1,1.21c.06.07.14.13.2.19.32.3.66.59.95.92s.51.68.78,1c.5.61,1,1.21,1.5,1.82.36.44.69.9,1.07,1.32s.72.66,1.06,1,.34.45.54.65,0,.21,0,.31a2.25,2.25,0,0,1-.08.24l.08.08L52.7,48c-.32.15-.64.3-1,.43s-.52.2-.79.3l-1.8.68c-.29.1-.59.16-.87.25l-1.72.53L43.94,51c-.45.14-.89.34-1.34.49s-.87.26-1.3.42-.9.35-1.34.52-.7.25-1,.39a2.85,2.85,0,0,0-.3.16c-.4.19-.8.38-1.2.55s-.71.27-1.07.39l-.89.29-.89.32-1.33.45-1.1.34c-.48.16-.95.34-1.43.49-.28.08-.58.08-.86.16s-.6.19-.91.28-.79.19-1.18.3a2.26,2.26,0,0,0-.37.11,5.92,5.92,0,0,1-1.27.33,3.59,3.59,0,0,0-.74.25l-.92.32c-.17.06-.34.15-.51.21s-.56.15-.83.24a2.6,2.6,0,0,0-.37.23ZM15,49.78c0-.2,0-.42.18-.55a3,3,0,0,0,1.3-.39c-.3-.4-.6-.8-.91-1.18-.06-.07-.2-.15-.26-.12-.52.22-1,.47-1.6.74,0,0,.06.12.11.2.24.29.47.59.72.87a4.79,4.79,0,0,0,.47.43A.65.65,0,0,0,15,50c.52.62,1,1.24,1.55,1.84a4.71,4.71,0,0,0,.42.36c.15.15.29.31.45.45s.28.24.42.36.26.29.4.42c.38.37.78.73,1.15,1.11s.54.58.82.86.46.48.69.71a3.45,3.45,0,0,0,.54.54,5,5,0,0,1,1,.94.27.27,0,0,0,.19.06l1.07-.32.38-.11c-.31-.34-.61-.65-.92-1a.29.29,0,0,0-.24,0c-.16,0-.31.13-.48.19a2.38,2.38,0,0,1-.52.15.41.41,0,0,1-.25-.17s0-.16,0-.18l.7-.22a3.2,3.2,0,0,0,.38-.14c-.39-.43-.73-.8-1.09-1.17,0,0-.16,0-.23,0-.25.09-.49.2-.73.3a.18.18,0,0,1-.13,0c-.06-.05-.15-.16-.13-.19a.68.68,0,0,1,.26-.27,3,3,0,0,1,.6-.18,1.86,1.86,0,0,0-.18-.24c-.24-.28-.5-.54-.74-.82a.46.46,0,0,0-.64-.14,3.37,3.37,0,0,1-.6.23c-.12,0-.3.06-.3-.12s0-.28.24-.31a3.92,3.92,0,0,0,.8-.23l-.23-.26c-.33-.33-.66-.66-1-1a.33.33,0,0,0-.4-.12,5.8,5.8,0,0,1-.81.16c-.09,0-.2-.11-.3-.16.08-.08.15-.19.25-.22a6.4,6.4,0,0,1,.66-.14.42.42,0,0,0,0-.14c-.41-.47-.81-.94-1.23-1.4-.06-.07-.17-.16-.24-.14-.32.09-.63.22-.95.32s-.46.31-.76.2ZM49.23,42.3c.1.24,0,.32-.18.37a4.26,4.26,0,0,1-.63.22L47,43.23l.14.22c.27.33.55.66.81,1,.15.19.29.15.45,0a.61.61,0,0,1,.14-.07l1.4-.5a1.42,1.42,0,0,1,.36,0l0,.09a3.17,3.17,0,0,1-.34.3,3.74,3.74,0,0,1-1.38.45c-.24.05-.29.23-.13.43.34.44.69.88,1,1.3a.36.36,0,0,0,.32.08c.43-.12.84-.28,1.27-.41l1.24-.38a72,72,0,0,0-5.1-5.93l-2.65.67c.26.3.47.56.7.8a.42.42,0,0,0,.26.06,2.43,2.43,0,0,0,.87-.26c.13-.05.25-.12.38-.16l1-.31c.11.15.11.27-.09.35l-.59.22-1.46.5c.33.38.63.74.94,1.08a.28.28,0,0,0,.21.08l1.9-.42.56-.13ZM45.69,50c-.27-.32-.48-.59-.7-.83s-.4-.36-.79-.19l-1.48.62c.1.1.19.25.31.31s.21.15.13.24-.2.25-.37.1-.37-.34-.57-.53l-1.2.43c-.26.1-.53.18-.78.28a.88.88,0,0,0-.25.22s0,.1.08.15l.48.52,0,.07c-.1,0-.24,0-.31,0s-.41-.34-.63-.51a.28.28,0,0,0-.22-.07c-.41.13-.81.26-1.21.42s-.75.33-1.14.5l.74.88-.06.1a1.3,1.3,0,0,1-.46-.1,2.3,2.3,0,0,1-.42-.46c-.17-.21-.33-.36-.63-.23s-.62.22-.94.32l-.75.25c.16.14.31.2.36.31a.58.58,0,0,1,0,.43c-.1.17-.22,0-.31-.07a1.64,1.64,0,0,1-.3-.35c-.11-.23-.23-.16-.41-.09-.6.23-1.21.43-1.81.65a1,1,0,0,0-.21.12c.38.38.73.74,1.09,1.12l2.16-.72c.45-.16.88-.35,1.32-.52l1.84-.74,1.91-.76c.41-.17.81-.36,1.23-.5.66-.23,1.32-.42,2-.63l1.48-.5.88-.23ZM41,40.34l-.06,0c-.17.06-.34.13-.52.18-.35.08-.72.14-1.07.23l-1.59.47-1.44.42c-.31.1-.61.23-.92.32-.63.17-1.25.33-1.88.48l-1.31.33-.48.13-.9.24-1.05.21-2,.54-.51.15a2.36,2.36,0,0,1,.28.2c.26.25.51.51.77.75.09.09.24.24.32.22.59-.15,1.18-.33,1.76-.5.24-.07.17-.15,0-.27a7.29,7.29,0,0,1-.53-.58s0-.18,0-.19.2-.08.24,0a2.85,2.85,0,0,1,.47.51.65.65,0,0,0,.74.29l.69-.21,1.33-.48a3.1,3.1,0,0,1-.51-.39c-.05-.05,0-.19,0-.29s.22,0,.27,0,.29.34.44.51a.16.16,0,0,0,.14.06,5.16,5.16,0,0,0,.67-.2l1.1-.38.63-.21c-.18-.2-.32-.33-.44-.49a.21.21,0,0,1,0-.2s.15,0,.2,0c.21.17.4.36.61.55L38.52,42a.93.93,0,0,1-.1-.21c0-.1-.07-.25,0-.31s.2,0,.28.1.28.29.53.22.68-.18,1-.28c.11,0,.21-.11.33-.15l.75-.19,0-.09c-.12-.1-.24-.19-.35-.3s-.34-.27,0-.49Zm-15.23,15,.29.25c.22.22.42.44.65.65a.25.25,0,0,0,.22,0c.36-.09.72-.22,1.08-.31.72-.19,1.45-.36,2.17-.54.26-.06.52-.14.77-.22s.54-.13.81-.22.46-.19.68-.28l-.84-1c-.1-.11-.2-.21-.38-.14l-1,.35-1.21.44.77.67c-.27.31-.34.31-.59.05s-.3-.35-.46-.5a.39.39,0,0,0-.26-.07,7.66,7.66,0,0,0-.82.23c-.23.07-.45.18-.68.25l-1.16.34ZM42,49.4c-.44-.53-.87-1.07-1.33-1.61-.09-.1-.27-.25-.36-.22a10.14,10.14,0,0,1-1.24.45,5,5,0,0,0-1.14.52c.29.34.56.67.85,1a3,3,0,0,0,.28.22,4.89,4.89,0,0,0,.46.45.41.41,0,0,0,.31,0L42,49.4ZM20,48.15c.41.53.8,1,1.17,1.51a.29.29,0,0,0,.37.11c.49-.16,1-.34,1.45-.52l1.13-.41L23,47.54c-.09-.11-.17-.18-.33-.12a2.8,2.8,0,0,1-.5.12c-.4.1-.81.2-1.21.32s-.63.18-1,.29Zm15.16,1.46c.11.1.21.16.28.24.39.44.77.88,1.14,1.34.07.1.12.18.24.14.3-.09.59-.2.88-.3l1-.33.51-.2-1.69-1.74-2.36.85Zm5-2.37c-.44-.51-.84-1-1.25-1.44a.35.35,0,0,0-.29,0A5.07,5.07,0,0,0,38,46l-1.11.44c-.22.09-.44.15-.65.22,0,.07,0,.09,0,.1l1.19,1.38a.3.3,0,0,0,.4.06c.36-.17.74-.31,1.11-.46l1.22-.49ZM25.52,50.67c-.39-.52-.78-1-1.14-1.52l-2.8,1L23,51.73l2.56-1.06Zm-8.35-1.58c.4.5.77,1,1.18,1.42.11.12.25.32.53.2.66-.3,1.34-.54,2-.8-.34-.44-.69-.9-1.05-1.34s-.26-.32-.66-.16-.92.34-1.39.51c-.18.06-.38.11-.62.17ZM25.81,51,23.23,52c.31.4.64.78.93,1.19.09.12.16.16.3.11l1-.34c.43-.14.87-.26,1.3-.41s.31-.18.08-.44-.68-.79-1-1.18Zm-4-5.47a13.41,13.41,0,0,1,.92,1.1.52.52,0,0,0,.64.25l.66-.16,1.74-.5a3.36,3.36,0,0,0-.25-.41c-.27-.35-.7-.6-.67-1.09l-3,.81Zm25.07,2.14-.5-.55c-.33-.37-.66-.74-1-1.1a.35.35,0,0,0-.27-.1c-.46.13-.92.28-1.37.42l-.23.11-.22.08a1,1,0,0,0,.13.25c.35.42.69.85,1.06,1.26.15.17.25.43.59.29.58-.24,1.19-.44,1.81-.66ZM24.74,49c.22.29.41.55.61.8s.32.35.48.53.44-.09.67-.08c0,0,.06,0,.09,0,.54-.2,1.07-.39,1.6-.6a.16.16,0,0,0,.07-.27l-1-1.32-2.51,1ZM18.55,46.5l.95,1.07c.14.17.28.35.54.16a.9.9,0,0,1,.28-.13L22.57,47,21.43,45.6l-2.88.9Zm22.25.92a1.9,1.9,0,0,1,.28.25c.34.4.69.81,1,1.22s.29.39.68.25,1.06-.41,1.58-.62l-1.47-1.79a.3.3,0,0,0-.25,0q-.41.15-.81.33l-.29.14-.73.26Zm-11,4L28.64,50a.2.2,0,0,0-.18-.05l-1,.39-1.3.52s0,0,0,0c.38.45.76.91,1.16,1.35a.36.36,0,0,0,.32.05c.69-.24,1.38-.5,2.12-.77ZM35,49.31l2.28-.87c-.49-.55-1-1.08-1.43-1.61l-2.08.86L35,49.31Zm14.3-2.52c-.15-.17-.26-.28-.36-.41-.3-.4-.6-.81-.91-1.21a.27.27,0,0,0-.2-.12c-.19.05-.38.12-.57.19l-.49.16-1,.29c.23.29.43.55.64.79a10.24,10.24,0,0,0,.72.75c.13.12.26.27.5.16.4-.18.82-.31,1.24-.46.12,0,.26-.08.46-.14Zm4.42.32c-.28-.31-.57-.64-.87-1a.85.85,0,0,0-.31-.2c-.2.25-.5.24-.77.32-.53.16-1.05.38-1.58.54-.22.07-.22.19-.13.31s.37.43.55.65.28.16.25.36c0,0,.11.1.15.09.35-.11.69-.21,1-.35.55-.23,1.1-.5,1.68-.77ZM31.08,48.87l-1.18.43-.72.31c-.16.07-.19.14-.06.31s.44.69.69,1c.11.15.19.39.44.35a2.55,2.55,0,0,0,.39-.13l1.73-.77c-.45-.52-.88-1-1.29-1.51Zm2.74,3.46c-.28-.4-.53-.78-.79-1.14a2.29,2.29,0,0,0-.36-.4c-.2-.19-.3.13-.47.12s-.1,0-.15,0a1.88,1.88,0,0,0-.58.19,2.5,2.5,0,0,1-.8.36.21.21,0,0,0-.11.36l.73.93c.13.15.21.35.52.22.47-.2,1-.3,1.47-.46.18-.06.35-.14.54-.22ZM47.16,39.55a1.6,1.6,0,0,1-.23-.3.44.44,0,0,0-.56-.3c-.61.11-1.22.25-1.83.38-.16,0-.31.1-.47.15s-.46.15-.7.21-.72.16-1.09.24c0,0-.06,0-.09,0l-.53.15L41,40.3l.8.72.61-.2c.34-.11.69-.23,1-.31s.49-.1.49-.45c.13,0,.27,0,.33,0a.36.36,0,0,0,.4.06c.45-.12.88-.27,1.32-.39s.77-.15,1.2-.23ZM22.52,51.86s0-.08,0-.1c-.4-.45-.8-.89-1.19-1.35a.3.3,0,0,0-.41-.08l-2,.8c.46.42.9.8,1.31,1.21.15.15.22.24.48.13.6-.24,1.23-.41,1.86-.61Zm3,3.15,2.76-.86c-.25-.34-.51-.66-.73-1s-.26-.51-.58-.19h0l-1.39.43-1,.33,1,1.27Zm-2.21-7.75c.11.15.18.25.25.33s.27.31.4.46l.54.63a.22.22,0,0,0,.11,0l1-.4,1.19-.46c.13-.05.22-.11.09-.26s-.47-.59-.68-.9-.25-.17-.43-.1c-.35.13-.7.24-1.05.36l-.33.09-1.1.26Zm-5.1-.65-2.49.76a1.56,1.56,0,0,0,.13.19c.28.36.57.71.86,1.06.1.1.2.2.38.11a6.07,6.07,0,0,1,.8-.32l1.3-.44c.16,0,.11-.14,0-.22s-.25-.22-.35-.34-.39-.48-.65-.8Zm12.91,6.61s0-.07,0-.09l-1-1.26a.18.18,0,0,0-.14,0l-.51.15-.46.2c-.41.16-.83.31-1.29.47.3.4.6.77.85,1.17a.32.32,0,0,0,.45.12l.59-.2,1.54-.52ZM33,50.58l1.26,1.59,2-.69-1.3-1.59a.28.28,0,0,0-.2-.1,1.63,1.63,0,0,0-.37.13L33,50.58Zm12-5c-.13-.18-.22-.29-.31-.4l-.82-1a.22.22,0,0,0-.18-.08,5.25,5.25,0,0,0-.69.13c-.28.08-.55.2-.83.29l-.57.18c.18.2.34.36.48.54s.39.51.61.75.26.25.48.14a5.59,5.59,0,0,1,.72-.26l1.11-.3Zm2.61-.82a9.16,9.16,0,0,0-.74-.93c-.18-.18-.21-.58-.69-.39a18.68,18.68,0,0,1-2,.49,1.38,1.38,0,0,0,.14.24c.31.36.64.71.95,1.08a.3.3,0,0,0,.38.1c.37-.13.75-.23,1.13-.34l.82-.25Zm-16.12,4a.9.9,0,0,1,.19.23c.2.49.65.77,1,1.17a.23.23,0,0,0,.22.06c.52-.21,1-.44,1.56-.67.12,0,.13-.1,0-.23-.31-.38-.59-.8-.89-1.19a.43.43,0,0,0-.3-.17,3.7,3.7,0,0,0-.73.25c-.35.16-.68.36-1,.55Zm11-2.37-.77-.9c-.29-.36-.53-.83-1.11-.43-.06,0-.15,0-.22.07-.38.14-.77.29-1.15.45l1.34,1.55,1.91-.74ZM30.8,48.56c-.32-.4-.62-.77-.9-1.16a.33.33,0,0,0-.43-.17c-.41.16-.82.3-1.24.45l-.41.13c-.14,0-.19.13-.08.27s.4.55.61.82l.41.51,2-.85Zm4.26-3.28a1.73,1.73,0,0,0,.17.36c.2.22.42.44.64.64a.28.28,0,0,0,.25,0l1.17-.47,1.24-.45c-.09-.11-.15-.19-.21-.25-.22-.22-.44-.46-.68-.66a.33.33,0,0,0-.3-.08c-.6.2-1.19.41-1.77.62-.19.07-.36.18-.51.25ZM21.79,54.16l2.07-.65-.7-.93c-.29-.37-.29-.37-.72-.29-.07,0-.13.08-.2.1l-1.59.47,1.14,1.3Zm11.3-6.58,0,0c-.33-.4-.65-.8-1-1.19,0,0-.11,0-.16,0l-1.42.52a1.57,1.57,0,0,0-.33.19,1.7,1.7,0,0,1,.15.22,4.39,4.39,0,0,0,.27.47c.14.17.33.29.47.46a.29.29,0,0,0,.39.12l1.65-.75Zm.87-2c-.07,0-.12,0-.15,0l-1.19.5c-.11,0-.13.27,0,.31.32.13.43.42.61.68a.77.77,0,0,0,.3.27c.06,0,.18,0,.28-.08l1.28-.49a1.48,1.48,0,0,0,.31-.15s.12-.17.1-.2q-.4-.48-.84-1s-.14,0-.2,0a4.49,4.49,0,0,0-.48.16Zm-7.5.73c.33.43.62.84.94,1.27l2.07-.76c-.32-.37-.59-.67-.85-1a.4.4,0,0,0-.56-.12,2.23,2.23,0,0,1-.31.12l-1,.29a1.92,1.92,0,0,0-.29.18Zm18.63,2.34c.21.24.43.49.66.73.08.09.23.12.28.22s.3.12.46.1a2.19,2.19,0,0,0,.33-.12c.33-.1.66-.19,1-.3l.48-.17c-.32-.36-.59-.68-.88-1-.07-.08-.2-.19-.28-.17a3.25,3.25,0,0,0-.67.21l-1.36.49ZM27.23,44l-2.2.61L26.2,46l1.92-.67a10.07,10.07,0,0,0-.83-.88c-.18-.14-.17-.25-.06-.44Zm15.85-1.51c.26.32.53.62.76.94s.29.17.47.11l.77-.21L46.26,43l-.44-.48L45.37,42c-.1-.12-.21-.1-.34-.07l-1.16.32c-.26.08-.52.19-.79.29Zm-5.86,1.56c-.32-.29-.56-.53-.82-.76a.3.3,0,0,0-.19,0l-.88.22c-.4.11-.79.25-1.2.36-.25.07-.21.17-.07.33s.48.54.72.82l2.44-.94Zm13.34,4.31c-.32-.36-.65-.73-1-1.12a.29.29,0,0,0-.36-.08c-.48.18-1,.39-1.44.58-.2.07-.17.12,0,.26.28.29.52.61.79.91a.31.31,0,0,0,.23.11,5.66,5.66,0,0,0,.58-.2l1.2-.46ZM25.13,55.14l-1-1.3-2,.64,1.09,1.22,1.91-.56ZM43.59,43.77c-.24-.3-.42-.55-.62-.78s-.23-.31-.36-.32a1.33,1.33,0,0,0-.64.14,4.5,4.5,0,0,1-1.39.39.65.65,0,0,0-.23.09c.15.19.27.36.4.51a2.48,2.48,0,0,0,.49.43c.32.19.61,0,.91-.11s.61-.18.91-.25l.53-.1Zm-9.27,1.31-.86-1-2.16.71a9.23,9.23,0,0,0,.65.86c.08.1.19.3.41.19a5.65,5.65,0,0,1,.57-.23l1.39-.53Zm-3.51-.16c-.36.13-.72.26-1.08.37s-.5.11-.75.17-.19.12-.11.21c.33.36.67.71,1,1l1.9-.7-1-1.1ZM38,44.21c.24.26.46.51.7.75s.33.32.6.19a4.35,4.35,0,0,1,.59-.25l.86-.28.18,0a.76.76,0,0,0-.08-.21c-.23-.25-.47-.48-.7-.73a.37.37,0,0,0-.45-.06l-1.7.63Zm4-2.88.22.25c.32.31.52.82,1.14.48a5.86,5.86,0,0,1,1-.24,5.71,5.71,0,0,0,.67-.3c-.18-.22-.37-.46-.56-.68s-.2-.22-.39-.14-.44.1-.66.17L42,41.33ZM39.72,43.2c-.24-.25-.46-.44-.64-.67a.44.44,0,0,0-.55-.13l-1.13.4-.69.25.86.85,2.15-.7Zm2.56-.86s0-.05,0-.06l-.44-.49c-.27-.32-.3-.31-.68-.16a8.2,8.2,0,0,1-1,.3l-.94.27c.32.28.65.47.81.87l2.21-.73Zm-16,14.15-.93-1L23.54,56a9.31,9.31,0,0,1,.73.9.27.27,0,0,0,.38.13l1.08-.39.53-.18Z" transform="translate(-0.02 -0.24)"/><path d="M36.6,56c0-.27.06-.37.34-.45.61-.16,1.19-.41,1.8-.58.45-.13.92-.17,1.37-.29s1.19-.35,1.79-.53l2.55-.75c.24-.07.46-.18.7-.27A6,6,0,0,1,46,52.8a.38.38,0,0,1,.27.24A7.27,7.27,0,0,0,47,54.86a3.36,3.36,0,0,1,.2.43c0,.13.05.27-.19.32a6.59,6.59,0,0,0-.84.32,15.14,15.14,0,0,1-2,.65A12.51,12.51,0,0,0,42.8,57c-.52.17-1,.32-1.57.48l-2.08.63c-.34.09-.68.15-1,.23l-.07,0c-.25.21-.4.14-.48-.15-.38,0-.28-.46-.56-.56,0,0-.05-.14-.07-.21-.08-.27-.17-.53-.23-.8s-.08-.48-.12-.72Zm9.27-2.67a1.2,1.2,0,0,0-.24.06c-.43.16-.85.34-1.28.49-.8.27-1.61.54-2.42.79-.47.15-1,.26-1.44.38s-.89.19-1.32.31-1.1.32-1.65.49c-.16,0-.32.13-.48.19a2.66,2.66,0,0,1,.11.28,4.05,4.05,0,0,0,.36,1.23c.28.51.25.53.8.39s1.08-.29,1.61-.45c.36-.1.71-.23,1.06-.34s.57-.13.85-.22c.51-.17,1-.38,1.51-.53s.85-.21,1.27-.33c.61-.18,1.21-.38,1.81-.59.27-.08.28-.17.17-.43A6,6,0,0,1,46,53.44s-.05-.09-.08-.15Z" transform="translate(-0.02 -0.24)"/><path d="M11.77,43.74a.61.61,0,0,1,.05.18.37.37,0,0,1-.05.24,1.2,1.2,0,0,1-.37.23,4.37,4.37,0,0,1-1.59.43A8.1,8.1,0,0,0,9,45a5.16,5.16,0,0,1-.67.1.6.6,0,0,1-.63-.35c-.06-.14-.09-.3-.15-.44s-.15-.23-.22-.35L7,43.3c-.1-.19,0-.25.17-.23A4.62,4.62,0,0,0,9,42.65l1.2-.33h.05c.49-.1.57-.06.87.37s.41.54.61.81a1.15,1.15,0,0,1,.1.23l-.05,0ZM7.6,43.58c.17.31.33.63.52.94a.3.3,0,0,0,.25.14c.32,0,.65-.11,1-.18s.4-.15.61-.18a2.65,2.65,0,0,0,1.16-.38s.09-.05.1-.09a.44.44,0,0,0-.14-.58,1.35,1.35,0,0,1-.24-.28.45.45,0,0,0-.54-.19A9.48,9.48,0,0,1,9,43.14c-.29,0-.52.41-.88.19l0,0-.48.23Z" transform="translate(-0.02 -0.24)"/><path d="M40.2,38.46c0,.29-.29.28-.45.36a8.43,8.43,0,0,1-1,.39c-.23.08-.46.17-.67-.05a.44.44,0,0,1-.09-.11c-.06-.11-.11-.22-.16-.33-.18-.41-.18-.41.22-.65a2.81,2.81,0,0,1,.67-.38,6.49,6.49,0,0,1,1.09-.11.21.21,0,0,1,.14.11c.1.25.19.51.28.77Zm-.49-.23c-.1-.09-.16-.18-.23-.19a1.41,1.41,0,0,0-1.18.37c0,.05,0,.21,0,.3s.14.07.2,0c.31-.11.61-.22.9-.35a1.41,1.41,0,0,0,.28-.18Z" transform="translate(-0.02 -0.24)"/><path d="M45.31,37.64a7.1,7.1,0,0,1-.86.21c-.3,0-.62.2-.92,0,0,0-.09,0-.09,0a8.15,8.15,0,0,1-.29-1c0-.08.14-.24.25-.28a3,3,0,0,1,1.34-.33.46.46,0,0,1,.42.34c.05.27.14.53.19.8a.84.84,0,0,1,0,.27ZM43.54,37c.24.54.24.55.66.5.22,0,.44-.09.67-.14.14-.41,0-.66-.47-.61a6.3,6.3,0,0,0-.86.25Z" transform="translate(-0.02 -0.24)"/><path d="M42.31,37a8.25,8.25,0,0,1,.43.76c.06.13.06.31-.19.33a3.89,3.89,0,0,0-.44.16l-.75.18a.65.65,0,0,0-.2,0,.41.41,0,0,1-.61-.2,3.45,3.45,0,0,1-.18-.57c0-.2.11-.32.28-.37.37-.12.73-.24,1.09-.33a2.61,2.61,0,0,1,.57,0Zm-.09.79c0-.24-.09-.33-.33-.35a1.88,1.88,0,0,0-.9.26c-.06,0-.07.18-.1.28s.17.06.24,0l1.09-.23Z" transform="translate(-0.02 -0.24)"/><path d="M41.15,4.69c.19.15.39.29.58.45a.35.35,0,0,1,.06.21c0,.35,0,.71.06,1.07,0,.61,0,1.23,0,1.85,0,1.27,0,2.54,0,3.81,0,.55,0,1.1,0,1.64,0,.86,0,1.71,0,2.57s.07,1.54,0,2.31.16,1.34.13,2,.09,1.46.13,2.2c0,.36,0,.73,0,1.1v1.36l0,1.55a14.69,14.69,0,0,0,0,2c0,.47,0,.93,0,1.4A9.82,9.82,0,0,1,42,31.54c0,.08.06.16.06.24a1.36,1.36,0,0,1-.56,1.09,1.8,1.8,0,0,1-.57.29c-.51.21-1,.44-1.54.61a15.38,15.38,0,0,1-1.52.39c-.44.09-.89.12-1.33.2s-.57.14-.86.21c-.56.14-1.11.3-1.68.41s-1.45.22-2.18.34-1.17.21-1.75.32-1.42.29-2.13.41c-.47.08-.95.11-1.43.17l-1.66.21c-.46.06-.93.09-1.39.17s-1,.2-1.47.3c-.1,0-.2,0-.3,0l-1.36.23a5.64,5.64,0,0,0-.93.15,8.56,8.56,0,0,1-2,.24c-.33,0-.67,0-1,0s-.65.12-1,.17c-.8.13-1.6.23-2.4.36-.55.09-1.1.22-1.66.33l-.12,0c-.69,0-1.38.08-2.07.14-.52,0-1,.17-1.54.19a2.88,2.88,0,0,1-1.26-.17l-.53-.22a.64.64,0,0,1-.38-.62c0-.78,0-1.56,0-2.33S5.33,33.84,5.3,33c0-.52,0-1,0-1.56s-.08-1.23-.08-1.85.07-1.32.07-2a10.86,10.86,0,0,0-.1-1.27c0-.35-.06-.71-.08-1.06s0-.75,0-1.12c0-.95,0-1.91,0-2.87,0-.73-.08-1.47-.12-2.2,0-.37,0-.73,0-1.09s-.11-.92-.16-1.38c0-.24,0-.49-.07-.73s-.08-.42-.11-.63c-.06-.53-.14-1.05-.18-1.58s0-1.19-.07-1.78a1.27,1.27,0,0,1,.44-1,.59.59,0,0,1,.48-.2A6.29,6.29,0,0,0,6,10.5c.18,0,.38,0,.56-.06s.39-.13.59-.17l1.17-.15c.49,0,1-.08,1.48-.16s1-.25,1.54-.33S12.4,9.54,13,9.48c.09,0,.18-.08.27-.1l1.44-.21,1.82-.31c.26,0,.53-.07.79-.12.47-.1.93-.24,1.39-.33.64-.12,1.28-.2,1.92-.31l1.18-.21,1.48-.22,1.64-.32c.85-.16,1.71-.31,2.56-.48.48-.09.95-.22,1.43-.31l1.5-.27a23.2,23.2,0,0,1,2.34-.36,10.54,10.54,0,0,0,1.44-.3c.36-.07.73-.1,1.09-.17l1.38-.29a.78.78,0,0,1,.22,0L38.47,5c.42,0,.85-.09,1.27-.15s1-.17,1.5-.25l-.09.11ZM5.89,36.5h0c0,.32,0,.65.07,1,0,.14,0,.34.1.39a2.11,2.11,0,0,0,.89.43,9.31,9.31,0,0,0,1.67,0c.41,0,.81-.11,1.22-.16.58-.06,1.16-.1,1.73-.17s.88-.14,1.31-.21l.56-.11a2.93,2.93,0,0,0,.53-.09,2.66,2.66,0,0,1,1-.2h.19c.72-.08,1.44-.18,2.17-.25.5-.05,1-.07,1.51-.12.22,0,.44-.1.66-.14l.58-.12,1.71-.28,1-.2L24,36.07,26,35.82c.14,0,.29,0,.43,0s.47-.1.71-.13.74,0,1.09-.11c.6-.11,1.19-.26,1.79-.39.4-.08.81-.14,1.22-.21l1.71-.27c.48-.07,1-.13,1.45-.23s1-.23,1.43-.36c.15,0,.29-.12.45-.15s.63-.1.95-.16l.76-.16c.46-.1.93-.14,1.38-.28a8.18,8.18,0,0,0,1.52-.65c.39-.23,1-.39.7-1.1,0,0,0-.06,0-.09,0-.43.1-.86.11-1.29s0-.91,0-1.36c0-.7,0-1.4,0-2.11,0-.55,0-1.11,0-1.67s0-1.12,0-1.67-.07-.89-.08-1.34,0-1.11,0-1.67-.11-1-.13-1.52c0-.91,0-1.81-.05-2.71,0-.62,0-1.23,0-1.85s0-1.3,0-1.94,0-1.35,0-2c0-.44,0-.89,0-1.34,0-.73,0-1.47,0-2.21,0-.06,0-.13,0-.2,0-.36,0-.72,0-1.07a.69.69,0,0,0-.71-.46c-.08,0-.15.13-.23.14-.47.07-.94.12-1.41.17s-.76,0-1.14.1l-1.86.27c-.25,0-.5.07-.75.12L34,6.12l-1,.16-.76.16-1.15.16L30,6.84a3.29,3.29,0,0,0-.85.14c-.39.2-.84.08-1.24.29a2.5,2.5,0,0,1-.88.14c-.49.07-1,.11-1.47.21s-.89.26-1.33.36-.76.13-1.13.18l-2.71.41c-.29,0-.58.12-.87.18l-2,.4c-.47.1-.94.24-1.42.32-.69.1-1.39.16-2.08.24L13,9.86l-1.14.2c-.35.06-.71.1-1.06.15a15.51,15.51,0,0,1-1.66.27,14.25,14.25,0,0,0-1.95.25c-.59.12-1.19.22-1.78.36a1,1,0,0,0-.48.26.7.7,0,0,0-.22.59c.09.76.12,1.53.18,2.3,0,.26,0,.51.06.76.12.79.27,1.57.36,2.35s.13,1.62.16,2.42,0,1.86.06,2.79c0,.72,0,1.44.09,2.16.08.89.09,1.79.1,2.69,0,.62-.08,1.25-.07,1.87s.06,1.36.09,2c.06,1.2-.09,2.4.09,3.6.07.52.06,1,.09,1.58Z" transform="translate(-0.02 -0.24)"/><path d="M24.29,5.84A1.11,1.11,0,0,1,23.18,6.9a.53.53,0,0,1-.59-.39.26.26,0,0,0-.05-.09.52.52,0,0,1-.15-.49,1.33,1.33,0,0,1,.2-.49A1.26,1.26,0,0,1,23.24,5c.11,0,.3,0,.44.09.49.21.61.22.61.78Zm-.37,0a.5.5,0,0,0-.54-.48.87.87,0,0,0-.69.58c0,.22.32.59.5.58a.72.72,0,0,0,.73-.68Z" transform="translate(-0.02 -0.24)"/></g></g></svg>