<svg xmlns="http://www.w3.org/2000/svg" viewBox="0 0 69.11 51.05"><title>アセット 9512px</title><g id="レイヤー_2" data-name="レイヤー 2"><g id="レイヤー_1-2" data-name="レイヤー 1"><path d="M43.71,8.46l0,0h.39A1.25,1.25,0,0,1,44,8.9c-.44.5-.92,1-1.36,1.45s-.83,1-1.27,1.49-1,1.14-1.57,1.69-1.25,1.29-1.9,1.92c-.44.43-.91.83-1.37,1.24-.25.23-.51.44-.74.68s-.57.63-.87.93-.47.43-.69.65l-2.63,2.67-1.12,1.11s0,.08-.11.16l.42.21a2.85,2.85,0,0,1,.41.26c.38.31.77.62,1.13.95s.71.72,1.09,1.06.83.69,1.25,1,1,.78,1.56,1.17l.54.35.81.5c.39.23.79.43,1.18.65.18.11.35.26.54.37s.49.27.75.4l1.52.8c.44.23.88.49,1.33.7s1,.4,1.51.64.84.48,1.26.72l.41.21,1,.5c.09.05.16.14.25.19l1.65.9c.22.11.47.18.69.29s.65.32,1,.49a17.83,17.83,0,0,0,2.33,1.22c.59.22,1.12.58,1.73.76.4.11.75.36,1.14.5.56.2,1.13.35,1.7.52L59,38.7c.32.1.64.17,1,.27a13.21,13.21,0,0,1,1.79.56,7.16,7.16,0,0,0,1.17.3c.52.13,1,.27,1.56.43s1.16.4,1.74.58l2.18.61.68.17c.09,0,.18.07.27.1-.27.47-.62.22-.94.15l-1-.24c-.76-.21-1.53-.41-2.28-.63s-1.59-.48-2.38-.74c-.26-.08-.51-.2-.77-.28s-.64-.15-1-.24-.81-.25-1.22-.37l-1.08-.3c-.66-.19-1.33-.35-2-.56s-1.54-.55-2.29-.86c-.48-.19-.92-.46-1.37-.69-.13-.06-.27-.09-.39-.15-.37-.16-.75-.31-1.11-.49-.62-.32-1.22-.68-1.84-1-.29-.15-.6-.25-.9-.39s-.33-.2-.49-.29l-1.39-.74c-.74-.42-1.47-.85-2.21-1.26-.26-.14-.54-.25-.8-.38-.44-.21-.86-.44-1.3-.66l-1.74-.85c-.39-.19-.78-.35-1.16-.57s-1-.63-1.51-.93-.94-.51-1.4-.77a4.22,4.22,0,0,1-1.28-.91c-.14-.17-.4-.24-.58-.39-.61-.5-1.2-1-1.8-1.52-.19-.16-.39-.28-.56-.44a7.49,7.49,0,0,1-.75-.74,4.32,4.32,0,0,0-.89-.76c-.22-.16-.42-.37-.64-.52a.32.32,0,0,0-.3,0c-.53.51-1,1.05-1.55,1.56s-.88.76-1.31,1.16S26.39,26.64,26,27l-.69.63-1,1c-.35.34-.68.69-1,1-.55.52-1.11,1-1.66,1.53s-.94.84-1.4,1.28-1.11,1.06-1.65,1.62-1.21,1.3-1.83,1.95-1.06,1-1.57,1.54-.85.94-1.33,1.48c.38,0,.68,0,1,0,.63,0,1.26.12,1.89.16.32,0,.64,0,1,0s.67,0,1,.07.89.12,1.34.13a8.59,8.59,0,0,0,1.24-.07,8,8,0,0,0,2.07-.53,5.29,5.29,0,0,1,.8-.24,1.69,1.69,0,0,0,.66-.32c.3-.23.66-.39,1-.6a3.63,3.63,0,0,0,1.19-1.15.65.65,0,0,0,0-.49,7.84,7.84,0,0,0-.51-1c-.29-.49-.62-1-.93-1.44A4.26,4.26,0,0,0,25,33a7.18,7.18,0,0,0-.92-.82,5.12,5.12,0,0,0-1.58-.55c-.16-.05-.33-.07-.49-.12s-.09-.1-.14-.15.14-.18.21-.19a2.69,2.69,0,0,1,1.39.27,5.15,5.15,0,0,1,1,.46,4,4,0,0,1,.73.7c.34.4.64.81.94,1.22a7.6,7.6,0,0,1,.43.72l.42.68c.06.1.09.22.15.32a1.88,1.88,0,0,1,.27.5.88.88,0,0,1-.08.6,4.13,4.13,0,0,1-.66.79,7.43,7.43,0,0,1-.92.76,7,7,0,0,1-1.67.92c-.4.14-.81.27-1.22.38a8.66,8.66,0,0,1-1.58.31,7.18,7.18,0,0,1-1.67.1c-.75-.12-1.5-.18-2.25-.24s-1.21,0-1.82-.06a9.32,9.32,0,0,1-1.06,0,6.91,6.91,0,0,1-1.62-.25,3.56,3.56,0,0,0-.94-.13c-.51-.05-1-.1-1.54-.13a4.1,4.1,0,0,0-1.54.34c-.29.11-.59.18-.86.3a1.59,1.59,0,0,0-.47.33,7,7,0,0,0-.91,1.06,4,4,0,0,0-.29,1s0,.09,0,.13a2,2,0,0,0,.4,1.67c.15.23.3.47.43.71a1.92,1.92,0,0,0,1.15,1c.52.17,1,.38,1.55.51a16.15,16.15,0,0,0,2.06.36c.61.06,1.23,0,1.84,0,.29,0,.57,0,.86,0s.55-.05.83-.07c.12,0,.25,0,.36,0a9.07,9.07,0,0,1,1.95.05c.74,0,1.49.1,2.23.18s1.23.14,1.83.25a7.22,7.22,0,0,1,.89.31c.38.14.78.26,1.15.43s1,.48,1.44.73,1,.49,1.46.76.68.39,1,.59c.56.32,1.12.65,1.69,1s1.07.56,1.62.82.84.33,1.26.5.67.33,1,.48a10.22,10.22,0,0,1,1,.37,2.92,2.92,0,0,0,.88.32l1,.26c.32.07.64.14,1,.18a3.94,3.94,0,0,0,.84,0,8.4,8.4,0,0,0,1-.14c.22,0,.43-.13.65-.18l.8-.15c.71-.16,1.42-.34,2.13-.48.52-.1,1-.14,1.57-.23s1-.25,1.53-.33A17.07,17.07,0,0,1,47.44,52C48,52,48.5,52,49,52l.79,0a3.73,3.73,0,0,1,.75.05c.52.14,1,.31,1.56.47s1.17.31,1.75.5c.26.08.5.22.76.32s.55.21.83.33.43.21.65.29a13.31,13.31,0,0,0,1.9.66A4.66,4.66,0,0,1,59,55c.56.22,1.12.44,1.68.68.28.12.55.29.83.42a4.32,4.32,0,0,0,.51.16l.06-.08.11.45c-.23.24-.41.15-.65,0-.51-.28-1-.5-1.59-.74s-.85-.39-1.28-.56a6.46,6.46,0,0,0-1.09-.39,9.7,9.7,0,0,1-1.74-.61c-.41-.19-.82-.37-1.25-.52s-1-.32-1.46-.48-.79-.3-1.2-.44a9,9,0,0,0-.89-.25,8.38,8.38,0,0,0-2.87-.18c-.39,0-.79,0-1.18,0a8.59,8.59,0,0,0-1.51.22c-.41.13-.86.14-1.28.23s-.89.2-1.34.28-.92.13-1.38.22-.66.15-1,.23l-.71.13a14.6,14.6,0,0,1-1.59.36,8.83,8.83,0,0,1-1.35-.09L36.53,54c-.47-.1-1-.17-1.41-.31A10.21,10.21,0,0,1,34,53.24l-1-.4c-.35-.17-.69-.37-1-.53-.82-.36-1.66-.68-2.47-1.06-.57-.26-1.09-.61-1.63-.92-.36-.21-.71-.43-1.08-.63s-1-.57-1.49-.82-1.14-.52-1.71-.78a10.79,10.79,0,0,0-3.3-1c-.59-.07-1.18-.08-1.77-.12L17.79,47c-.09,0-.23,0-.26.08s0,.21.06.26c.38.35.76.71,1.17,1s.79.55,1.2.82a.76.76,0,0,0,.83,0,2.84,2.84,0,0,0,1-.88c0-.07.21-.07.39-.12a1.5,1.5,0,0,1-.86,1.15c-.22.09-.41.26-.64.34a.9.9,0,0,1-.54,0,4.93,4.93,0,0,1-1.7-1c-.28-.23-.53-.49-.8-.74l-.2-.1a1.21,1.21,0,0,0-.05.18,3.17,3.17,0,0,1-.7,1.84,1.39,1.39,0,0,1-1,.46A3.62,3.62,0,0,1,14,50a2.89,2.89,0,0,1-1.26-1c-.31-.5-.65-1-1-1.47-.31.24-.57.48-.85.66a2.07,2.07,0,0,1-2.22.09,2.43,2.43,0,0,1-1.29-1.67c0-.13-.08-.15-.22-.06-.55.37-1.11.71-1.68,1.05-.33.2-.68.36-1,.56s-.7.49-1.07.7c-.63.35-1.26.69-1.9,1a5.76,5.76,0,0,1-1,.36.4.4,0,0,1-.33,0c-.06-.07,0-.23,0-.34.12-.31.25-.62.4-.92.06-.12.2-.19.26-.31.33-.67.67-1.33,1-2s.58-1.52.89-2.27c.16-.4.37-.79.55-1.18l.18-.41c-.18-.22-.4-.46-.6-.71a1.31,1.31,0,0,1-.32-1,2,2,0,0,0,0-.41.25.25,0,0,1,0-.12c.09-.52.18-1,.3-1.55a8.87,8.87,0,0,1,.29-.87c.11-.35.24-.7.33-1,0-.11,0-.24-.08-.4.27-.08.23-.39.34-.62.23-.48.39-1,.58-1.47s.3-.94.46-1.41c.1-.29.22-.59.33-.88s.35-.83.54-1.24c.27-.58.56-1.14.83-1.72a5.58,5.58,0,0,0,.23-.69c.19-.58.36-1.16.56-1.74a4.13,4.13,0,0,1,.44-1A2.42,2.42,0,0,1,8.76,25c.44-.17.86-.41,1.29-.61a1.83,1.83,0,0,1,.25-.06L11.38,24c.1,0,.19-.11.29-.15l1.11-.34c.4-.11.8-.22,1.2-.35s.69-.28,1-.43L16.58,22a3.34,3.34,0,0,1,.44-.17l1.54-.56c.43-.17.84-.36,1.27-.52s.72-.21,1.07-.33.69-.27,1-.38A8.47,8.47,0,0,1,23,19.8a5,5,0,0,1,.95,0c.46,0,.93.07,1.39.13a1.45,1.45,0,0,1,.47.19c.21.11.32.06.56-.22.43-.48.88-.94,1.32-1.41.19-.21.36-.43.55-.63l.7-.74c.29-.3.6-.6.89-.91l1.28-1.38c.44-.47.9-.93,1.35-1.4s.84-.89,1.25-1.35.72-.86,1.11-1.27.75-.72,1.13-1.09c.2-.2.39-.41.58-.62l.84-.91c.41-.43.83-.85,1.25-1.27l.87-.87a1.27,1.27,0,0,0,.1-.12.54.54,0,0,1,.82-.09c.28.21.58.38.86.58l.88.64,1.06.81c.14.11.28.2.42.29s.17.18.07.31l-.18.15-.28-.24c-.34-.27-.67-.54-1-.79s-.61-.42-.91-.63l-1.07-.75c-.12-.09-.23-.17-.38,0s-.43.43-.65.64c-.47.41-.82.92-1.31,1.32a18.76,18.76,0,0,0-1.3,1.37c-.24.26-.51.5-.76.76l-1,1c-.22.23-.45.45-.66.69-.53.59-1,1.21-1.56,1.78s-1,1-1.55,1.53c-.31.3-.6.62-.88,1-.43.48-.84,1-1.28,1.46s-.68.69-1,1-.65.67-1,1-.74.82-1.11,1.22L24.79,22.1c-.35.38-.69.77-1.05,1.14-.21.22-.46.4-.68.62S22.34,24.59,22,25s-.55.49-.81.75-.67.69-1,1-.82.77-1.22,1.17-1,1-1.49,1.51l-2,2c.21.24.15.42-.14.49-.11,0-.25,0-.32.08-.34.33-.66.67-1,1s-.43.56-.66.83c-.36.43-.72.86-1.09,1.27s-1,1.11-1.51,1.66a2.07,2.07,0,0,0-.72,1.15.68.68,0,0,0-.47.75,11.31,11.31,0,0,1,1.29-.08,14,14,0,0,1,1.45.2c.26,0,.52.12.78.16a.4.4,0,0,0,.28-.08c.39-.37.78-.76,1.16-1.14l.78-.82c.36-.36.73-.71,1.08-1.08.5-.52,1-1.07,1.5-1.6l.88-.89c.21-.22.4-.45.62-.65.37-.34.76-.66,1.13-1s.57-.58.86-.87l.46-.43c.24-.23.47-.48.71-.71l.36-.34c.33-.29.68-.57,1-.88s.61-.64.93-1,.56-.53.85-.79.5-.51.77-.74.77-.59,1.13-.91.44-.5.68-.74.4-.35.58-.54.58-.62.87-.93.39-.32.57-.5c.65-.68,1.35-1.31,2-2,.25-.26.53-.48.78-.74s.38-.5.6-.73c.54-.53,1.11-1.05,1.65-1.58l1.95-1.91L39.71,13c.35-.35.71-.69,1-1.06s.66-.82,1-1.22.62-.69.94-1l.87-1a1.57,1.57,0,0,0,.15-.32Zm-38,34.7v.11a2.35,2.35,0,0,1-.37.14,3.22,3.22,0,0,1-.44,0c.28.31.51.59.78.84.49.47,1,.92,1.5,1.38a1.56,1.56,0,0,1,.37.4c.2.39.36.81.54,1.21a2,2,0,0,0,1.55.9A2.32,2.32,0,0,0,11,47.62c.17-.16.32-.51.69-.29,0-.12,0-.21,0-.39a1.69,1.69,0,0,1,.3.28c.2.29.36.62.58.9s.51.58.77.87a1.83,1.83,0,0,0,.32.36,3.08,3.08,0,0,0,.52.24,3.71,3.71,0,0,0,.71.24,7.34,7.34,0,0,0,.81.05A1.34,1.34,0,0,0,16.88,49c.09-.5.19-1,.29-1.49s0-.59-.31-.58L15,47l-1.12,0a10.12,10.12,0,0,1-2.52-.17c-.48-.12-1-.22-1.45-.31A7.55,7.55,0,0,1,8.06,46a1.9,1.9,0,0,1-.9-.59c-.21-.3-.39-.61-.58-.92A4,4,0,0,1,6,43.23c0-.11-.1-.22-.09-.32,0-.37.09-.74.14-1.11a1.14,1.14,0,0,1,.09-.46c.26-.45.54-.9.83-1.33a1.07,1.07,0,0,1,.34-.33,7.29,7.29,0,0,1,.81-.46c.18-.09.4-.09.56-.19a1.91,1.91,0,0,0,.53-.53,3.87,3.87,0,0,0,.32-.78c.32-.89.52-1.83.92-2.7.28-.6.53-1.21.79-1.81A2.91,2.91,0,0,0,11.54,32c0-.08.1-.18.17-.25s.18,0,.2.08.09.3.27.3a1.83,1.83,0,0,0,.47,0c.4-.08.81-.17,1.21-.27A2,2,0,0,0,15,31.36c.14-.16.3-.3.45-.46.45-.46.89-.94,1.35-1.4s.81-.82,1.22-1.23l.72-.7,1.24-1.22c.43-.43.86-.86,1.3-1.28.29-.28.59-.53.88-.81l1.37-1.33c.25-.24.5-.47.74-.73S25,21.41,25.31,21l.49-.51c-.2,0-.41-.08-.62-.1-.41,0-.82-.1-1.23-.11a5.83,5.83,0,0,0-1.18,0,13.55,13.55,0,0,0-1.38.4c-.29.09-.59.17-.88.27l-1.24.45L17.72,22l-1,.42L15.24,23c-.54.22-1.08.47-1.64.67s-1,.3-1.56.48c-.74.26-1.48.53-2.2.85a4.23,4.23,0,0,0-1.9,1.07l-.05,0c-.08.08-.21.14-.23.24-.14.45-.24.92-.37,1.38a9.26,9.26,0,0,1-.32,1c-.29.67-.61,1.33-.91,2-.2.46-.38.92-.57,1.38s-.27.65-.39,1-.25.84-.4,1.25c-.26.72-.54,1.43-.81,2.17a2.66,2.66,0,0,1,.5.09.49.49,0,0,1,.26.18,3.17,3.17,0,0,1,.17,1.8,3.59,3.59,0,0,1-.51,1.71c-.32.54-.44,1.2-1,1.6a1.42,1.42,0,0,1,.16.11A2,2,0,0,0,5,43a3.82,3.82,0,0,1,.67.15Zm-2-.2c-.67,1.67-1.33,3.29-2,4.84l.4.39.64.59.5-.38s.1-.13.15-.13a2.34,2.34,0,0,0,1-.52L5.66,47c.26-.14.53-.26.78-.42A6.89,6.89,0,0,0,7,46.14L3.74,43Zm6.49-6.26h.06l.6-.67c.42-.46.84-.92,1.25-1.39.1-.11.15-.26.25-.37.28-.3.59-.57.87-.87s.49-.56.73-.85c.06-.08.11-.18.17-.27l-2.33.41c0,.09-.1.25-.17.41l-.43.94c-.11.23-.24.46-.34.69s-.25.65-.36,1-.2.65-.3,1ZM3.14,41.62a4.83,4.83,0,0,0,.32-.45c.17-.3.32-.6.47-.9a3.52,3.52,0,0,0,.49-1.66c0-.5,0-1,0-1.48A.2.2,0,0,0,4.26,37a2.6,2.6,0,0,0-.4-.1c-.19.62-.34,1.23-.56,1.8a5,5,0,0,0-.37,1.9,1.64,1.64,0,0,0,.21,1Z" transform="translate(-0.21 -5.69)"/><path d="M11,44.6a1.59,1.59,0,0,1-.2.33.66.66,0,0,1-.28.13,3.12,3.12,0,0,1-1.93-.2,2.5,2.5,0,0,1-1-.61,3,3,0,0,1-.5-.89,1.53,1.53,0,0,1,0-1.17,2.45,2.45,0,0,1,.74-.92c.22-.17.41-.37.64-.52a2.83,2.83,0,0,1,1.34-.4,5.05,5.05,0,0,0,.92-.26.66.66,0,0,1,.58.18c.33.45.21,1,.29,1.48a6.12,6.12,0,0,1,0,1.21,12.21,12.21,0,0,1-.15,1.34c0,.08-.14.14-.21.21s-.13-.14-.13-.22c0-.42,0-.85,0-1.27s0-1.09-.06-1.63c0-.19,0-.39,0-.58s-.11-.29-.32-.24-.61.11-.91.18a8,8,0,0,0-1.09.3A2.75,2.75,0,0,0,7.51,42.2a.63.63,0,0,0,0,.73c.07.1,0,.28.07.4.18.36.32.78.73,1a11.69,11.69,0,0,0,1.3.44,1,1,0,0,0,.38,0l.74-.1a1.37,1.37,0,0,1,.28,0Z" transform="translate(-0.21 -5.69)"/><path d="M22.57,33.45c0,.07-.05.18-.11.22-.34.21-.68.43-1,.61s-.85.38-1.27.58-.61.35-.92.53c-.46.26-.94.5-1.38.79s-.59.46-.89.69a3,3,0,0,0-.82.89c0,.05-.15.06-.23.1s0-.18,0-.25a2.82,2.82,0,0,1,.7-.94,10.27,10.27,0,0,1,.92-.71c.48-.31,1-.59,1.49-.89.34-.2.67-.42,1-.6s.63-.26.94-.39l1.49-.66.07,0Z" transform="translate(-0.21 -5.69)"/><path d="M25.89,35.64c-.33.22-.66.45-1,.66-.6.36-1.22.7-1.83,1.05l-.75.39-1.88,1-.53.31c-.12.07-.24.14-.34,0s.05-.22.13-.28a9.35,9.35,0,0,1,1-.63c.45-.25.94-.43,1.36-.7s.62-.32.91-.52A16.42,16.42,0,0,1,24.48,36c.3-.16.61-.29.92-.43a1.74,1.74,0,0,1,.27-.14c.06,0,.13,0,.19.06l0,.11Z" transform="translate(-0.21 -5.69)"/></g></g></svg>